<?xml version="1.0" encoding="UTF-8" standalone="no"?>
<svg width="60px" height="60px" viewBox="0 0 60 60" version="1.1" xmlns="http://www.w3.org/2000/svg" xmlns:xlink="http://www.w3.org/1999/xlink" xmlns:sketch="http://www.bohemiancoding.com/sketch/ns">
    <!-- Generator: Sketch 3.3.1 (12005) - http://www.bohemiancoding.com/sketch -->
    <title>500px</title>
    <desc>Created with Sketch.</desc>
    <defs></defs>
    <g id="Social-icons-grid" stroke="none" stroke-width="1" fill="none" fill-rule="evenodd" sketch:type="MSPage">
        <g id="500px" sketch:type="MSLayerGroup" fill="#1CAFEC">
            <g id="Shape" sketch:type="MSShapeGroup">
                <path d="M44.3644898,29.397551 C43.3922449,29.5261224 42.5902041,30.0073469 41.8340816,30.5865306 C40.9916327,31.232449 40.285102,32.0216327 39.5577551,32.787551 C39.4597959,32.8904082 39.5032653,32.9442857 39.574898,33.0244898 C40.0861224,33.5969388 40.6138776,34.1534694 41.2126531,34.6353061 C42.2069388,35.4355102 43.2832653,36.0514286 44.5940816,36.1726531 C46.0708163,36.3097959 47.2665306,35.6185714 47.7955102,34.2808163 C47.9785714,33.8179592 48.055102,33.3342857 48.057551,32.7685714 C48.0636735,32.6271429 48.0397959,32.4189796 48.0140816,32.2108163 C47.7808163,30.3538776 46.2171429,29.1526531 44.3644898,29.397551 L44.3644898,29.397551 Z"></path>
                <path d="M32.0393878,30.54 C31.41,30.0863265 30.7469388,29.6816327 29.9846939,29.492449 C28.8238776,29.2053061 27.7677551,29.37 26.942449,30.3146939 C26.3020408,31.047551 25.9965306,31.915102 25.9977551,32.9485714 C26.005102,33.0416327 26.0130612,33.1946939 26.0265306,33.3471429 C26.1520408,34.7853061 27.1120408,35.8659184 28.5042857,36.12 C29.2689796,36.2602041 30.0122449,36.1585714 30.7340816,35.877551 C32.2738776,35.277551 33.4481633,34.1981633 34.5208163,32.9859184 C34.5991837,32.8965306 34.56,32.8530612 34.4987755,32.7887755 C33.7304082,31.9836735 32.9467347,31.1932653 32.0393878,30.54 L32.0393878,30.54 Z"></path>
                <path d="M30,0.0765306122 C13.4742857,0.0765306122 0.0765306122,13.4736735 0.0765306122,30 C0.0765306122,46.5263265 13.4742857,59.9234694 30,59.9234694 C46.5257143,59.9234694 59.9234694,46.5263265 59.9234694,30 C59.9234694,13.4736735 46.5257143,0.0765306122 30,0.0765306122 L30,0.0765306122 Z M44.7679592,40.2704082 C42.8755102,40.2483673 41.2604082,39.514898 39.7867347,38.397551 C38.8242857,37.6671429 37.9995918,36.7910204 37.2061224,35.8867347 C37.0726531,35.734898 37.0108163,35.7012245 36.8491837,35.8695918 C36.0385714,36.7114286 35.2683673,37.5955102 34.3573469,38.3369388 C33.2057143,39.2742857 31.9346939,39.9789796 30.4457143,40.1810204 C27.8130612,40.5385714 25.5397959,39.844898 23.7722449,37.7797959 C23.3718367,37.3114286 23.07,36.777551 22.8220408,36.2136735 C22.7902041,36.1426531 22.7816327,36.0569388 22.7008163,35.9969388 C22.3542857,36.745102 21.9244898,37.4338776 21.3612245,38.0326531 C19.9426531,39.5412245 18.1922449,40.3279592 16.1271429,40.4008163 C14.6344898,40.4534694 13.172449,40.2630612 11.8108163,39.6177551 C9.53020408,38.5365306 8.27632653,36.7371429 8.12081633,34.1969388 C8.10857143,34.0034694 8.16244898,33.9544898 8.35469388,33.9557143 C9.58102041,33.9642857 10.8079592,33.9642857 12.0342857,33.9557143 C12.2185714,33.9544898 12.27,34.0083673 12.3012245,34.1883673 C12.537551,35.5885714 13.29,36.5626531 14.7006122,36.9128571 C16.6689796,37.4008163 18.4769388,36.2846939 18.9942857,34.2587755 C19.3420408,32.8953061 19.1920408,31.5918367 18.2877551,30.4561224 C17.6883673,29.702449 16.8728571,29.335102 15.9159184,29.2677551 C14.5389796,29.1710204 13.412449,29.6246939 12.5993878,30.7677551 C12.5240816,30.874898 12.4353061,30.9012245 12.3134694,30.9006122 C11.2077551,30.897551 10.1026531,30.8944898 8.99693878,30.902449 C8.80530612,30.9036735 8.7655102,30.8504082 8.79857143,30.6673469 C9.3722449,27.4781633 9.94102041,24.2877551 10.5104082,21.0973469 C10.5881633,20.6608163 10.6683673,20.2242857 10.7393878,19.7871429 C10.7626531,19.6438776 10.8177551,19.5906122 10.9726531,19.5912245 C14.6442857,19.5961224 18.3153061,19.5961224 21.9869388,19.5912245 C22.1620408,19.5906122 22.2006122,19.6481633 22.1993878,19.8122449 C22.1914286,20.7961224 22.1895918,21.7812245 22.2006122,22.765102 C22.2018367,22.9659184 22.1510204,23.0204082 21.9471429,23.0197959 C19.3169388,23.0130612 16.6867347,23.0179592 14.0559184,23.0106122 C13.8379592,23.01 13.7406122,23.0461224 13.6995918,23.2916327 C13.4687755,24.6912245 13.2128571,26.0871429 12.9679592,27.484898 C12.9569388,27.5442857 12.9153061,27.625102 12.9802041,27.6636735 C13.0512245,27.7071429 13.0916327,27.6214286 13.1332653,27.5804082 C14.3387755,26.4195918 15.8087755,26.065102 17.4306122,26.1520408 C18.9906122,26.2353061 20.3222449,26.8206122 21.4206122,27.93 C21.8791837,28.3928571 22.2355102,28.9279592 22.5232653,29.5108163 C22.5544898,29.5744898 22.5869388,29.637551 22.6420408,29.7489796 C22.952449,28.9304082 23.3357143,28.2165306 23.8793878,27.5981633 C25.0714286,26.2426531 26.5781633,25.5116327 28.3689796,25.3463265 C30.8926531,25.1130612 32.9663265,26.0877551 34.7822449,27.7444898 C35.5346939,28.4308163 36.2008163,29.1997959 36.8546939,29.9785714 C36.9942857,30.1444898 37.054898,30.1591837 37.202449,29.9840816 C38.0442857,28.9842857 38.8830612,27.9795918 39.9195918,27.1665306 C41.1146939,26.2297959 42.4310204,25.5532653 43.9579592,25.3744898 C47.732449,24.932449 50.8867347,26.9877551 51.6906122,30.8840816 C52.0279592,32.522449 51.9244898,34.1430612 51.3563265,35.7220408 C50.3044898,38.6412245 47.8732653,40.3071429 44.7679592,40.2704082 L44.7679592,40.2704082 Z"></path>
            </g>
        </g>
    </g>
</svg>