<?xml version="1.0" encoding="UTF-8" standalone="no"?>
<svg width="60px" height="60px" viewBox="0 0 60 60" version="1.1" xmlns="http://www.w3.org/2000/svg" xmlns:xlink="http://www.w3.org/1999/xlink" xmlns:sketch="http://www.bohemiancoding.com/sketch/ns">
    <!-- Generator: Sketch 3.3.2 (12043) - http://www.bohemiancoding.com/sketch -->
    <title>8tracks</title>
    <desc>Created with Sketch.</desc>
    <defs></defs>
    <g id="Social-icons-grid" stroke="none" stroke-width="1" fill="none" fill-rule="evenodd" sketch:type="MSPage">
        <g id="8tracks" sketch:type="MSLayerGroup">
            <rect id="Rectangle-2" fill="#112B4B" sketch:type="MSShapeGroup" x="0" y="0" width="60" height="60" rx="80"></rect>
            <path d="M22.1098625,28.26505 C16.7994875,28.26505 12.501575,32.57145 12.5,37.8815625 C12.5014,43.1935125 16.7993125,47.5 22.1098625,47.5 C27.4156875,47.5 31.7077375,43.1933375 31.7101875,37.8815625 C31.7101875,35.168625 31.709575,34.5070375 31.709575,34.5070375 L28.278525,34.5070375 L28.278525,37.8815625 C28.275375,39.5925375 27.5889375,41.1246625 26.4703375,42.2476375 C25.3487625,43.368425 23.8192625,44.05775 22.1098625,44.05775 C20.398625,44.05775 18.870875,43.3681625 17.746325,42.2476375 C16.627375,41.1246625 15.941025,39.59245 15.938575,37.8815625 C15.9409375,36.17225 16.627375,34.6403 17.746325,33.517325 C18.870875,32.39645 20.398625,31.7089625 22.1098625,31.7070375 L37.8915375,31.7070375 C43.200075,31.7070375 47.4983375,27.4303 47.5,22.1184375 C47.4983375,16.804475 43.200075,12.5018375 37.8915375,12.5 C32.58475,12.5018375 28.2852625,16.804475 28.28325,22.1184375 C28.28325,24.8172 28.2808875,25.46505 28.2808875,25.46505 L31.7101875,25.46505 L31.7101875,22.1184375 C31.7131625,20.4092125 32.4094875,18.877 33.5310625,17.7521875 C34.651675,16.6334125 36.181175,15.944 37.891625,15.944 C39.6007625,15.944 41.133675,16.633325 42.255075,17.7542 C43.372625,18.8770875 44.05985,20.4092125 44.05985,22.1184375 C44.05985,23.831425 43.372625,25.3617125 42.254025,26.4825 C41.1335875,27.603375 39.6007625,28.263125 37.8913625,28.26505 L22.1098625,28.26505 L22.1098625,28.26505 L22.1098625,28.26505 Z" id="Shape" fill="#FFFFFF" sketch:type="MSShapeGroup"></path>
        </g>
    </g>
</svg>