<?xml version="1.0" encoding="UTF-8" standalone="no"?>
<svg width="60px" height="60px" viewBox="0 0 60 60" version="1.1" xmlns="http://www.w3.org/2000/svg" xmlns:xlink="http://www.w3.org/1999/xlink" xmlns:sketch="http://www.bohemiancoding.com/sketch/ns">
    <!-- Generator: Sketch 3.3.2 (12043) - http://www.bohemiancoding.com/sketch -->
    <title>airbnb</title>
    <desc>Created with Sketch.</desc>
    <defs>
        <linearGradient x1="50%" y1="0%" x2="50%" y2="100%" id="linearGradient-1">
            <stop stop-color="#FF6E6B" offset="0%"></stop>
            <stop stop-color="#F35B63" offset="52.7004943%"></stop>
            <stop stop-color="#E84A5C" offset="100%"></stop>
        </linearGradient>
    </defs>
    <g id="Social-icons-grid" stroke="none" stroke-width="1" fill="none" fill-rule="evenodd" sketch:type="MSPage">
        <g id="airbnb" sketch:type="MSLayerGroup">
            <rect id="Path" fill="url(#linearGradient-1)" sketch:type="MSShapeGroup" x="0" y="0" width="60" height="60" rx="80"></rect>
            <path d="M47.005205,37.0770173 C46.816779,36.6166186 46.6283531,36.1183048 46.4399271,35.6958213 C46.1386585,35.005765 45.8363254,34.3525406 45.5723161,33.7393979 L45.5350568,33.7003994 C42.9332883,27.9448746 40.1420293,22.1124362 37.2017329,16.3569114 L37.0878257,16.1261704 C36.7865571,15.5509429 36.4852884,14.936717 36.1829553,14.3235743 C35.8061034,13.6324347 35.4292515,12.9033799 34.8256497,12.2122402 C33.6195107,10.6783003 31.8842887,9.83333333 30.0372886,9.83333333 C28.1519646,9.83333333 26.4550665,10.6783003 25.2106036,12.1364099 C24.6442612,12.8264662 24.2301499,13.555521 23.853298,14.2466606 C23.5509648,14.8598033 23.2496962,15.4740293 22.9484276,16.0503401 L22.8345204,16.2799977 C19.9314833,22.0355225 17.102965,27.867961 14.5011965,33.6234857 L14.4639372,33.7003994 C14.1999279,34.3146254 13.8975948,34.9667665 13.5963261,35.6579061 C13.4079002,36.0793063 13.2194742,36.539705 13.0310483,37.0391021 C12.5402892,38.4582132 12.3901872,39.801494 12.5786131,41.18269 C12.9927244,44.060994 14.8780484,46.4778161 17.4798169,47.5524407 C18.4602706,47.9749242 19.4790481,48.1666667 20.5340205,48.1666667 C20.8363537,48.1666667 21.2132056,48.1276682 21.5144742,48.089753 C22.7589371,47.9359257 24.0417239,47.5145255 25.2861869,46.7854707 C26.8319184,45.9025886 28.3020666,44.6362215 29.9617053,42.7946269 C31.6202795,44.6362215 33.1287516,45.9025886 34.6372238,46.7854707 C35.8816867,47.5145255 37.163409,47.9359257 38.4078719,48.089753 C38.7091405,48.1276682 39.0870569,48.1666667 39.3883255,48.1666667 C40.4443625,48.1666667 41.5003994,47.9749242 42.4425292,47.5524407 C45.0826216,46.4778161 46.9296217,44.0219955 47.3447975,41.18269 C47.6460661,39.8394092 47.4959641,38.4972117 47.005205,37.0770173 L47.005205,37.0770173 Z M29.9989647,39.0724392 C27.9624741,36.4627913 26.6434924,34.008054 26.1910572,31.9357185 C26.0026313,31.0528363 25.9643074,30.2858664 26.07715,29.5947267 C26.1527333,28.9815841 26.3794832,28.4431885 26.6807518,27.9838731 C27.3971962,26.9471637 28.6043997,26.2950225 29.9989647,26.2950225 C31.3945942,26.2950225 32.6390571,26.9092485 33.3171776,27.9838731 C33.6195107,28.4431885 33.8451961,28.9815841 33.9207793,29.5947267 C34.033622,30.2858664 33.9963626,31.0907515 33.8079367,31.9357185 C33.3555015,33.9690556 32.0354553,36.4248761 29.9989647,39.0724392 L29.9989647,39.0724392 Z M45.0442977,40.8761186 C44.7802884,42.8715405 43.4613068,44.5983063 41.6132421,45.3652763 C40.7083717,45.7487613 39.7279181,45.8646734 38.7474644,45.7487613 C37.8042701,45.6339324 36.8621403,45.3273611 35.8816867,44.7510503 C34.5243811,43.9840803 33.1670756,42.7946269 31.5830201,41.0299459 C34.0719459,37.9209009 35.5804181,35.0815954 36.1456959,32.5499444 C36.4097052,31.360491 36.4469645,30.2858664 36.3341219,29.2881554 C36.1829553,28.3283596 35.8433628,27.4465608 35.3164088,26.6785075 C34.1475292,24.9517417 32.1866219,23.9540308 29.9989647,23.9540308 C27.812372,23.9540308 25.8514647,24.9907402 24.6825851,26.6785075 C24.1545666,27.4465608 23.8149741,28.3283596 23.664872,29.2881554 C23.5137055,30.2858664 23.5509648,31.3984061 23.853298,32.5499444 C24.4185758,35.0815954 25.9643074,37.9598994 28.4159738,41.0678611 C26.8691777,42.8325421 25.4746128,44.0219955 24.1173072,44.7900488 C23.1368536,45.3652763 22.1936593,45.6729309 21.2515295,45.7877598 C20.2327519,45.9025886 19.2522983,45.7487613 18.3857518,45.4042748 C16.5376871,44.6362215 15.217641,42.9094557 14.9536317,40.9140338 C14.8407891,39.9553213 14.9163723,38.9955255 15.2932242,37.9209009 C15.4071315,37.5374159 15.5944928,37.1539309 15.7839834,36.6935323 C16.0479926,36.0793063 16.3492612,35.4271652 16.6505298,34.775024 L16.6888537,34.6981104 C19.2906222,28.9815841 22.0808166,23.1480623 24.9838537,17.4694512 L25.0977609,17.2397935 C25.3990295,16.6634827 25.7002981,16.0503401 26.0026313,15.4740293 C26.3038999,14.8598033 26.6434924,14.2845758 27.0576037,13.786262 C27.8496314,12.8654647 28.9056684,12.3660676 30.074548,12.3660676 C31.2434276,12.3660676 32.2994645,12.8654647 33.0914923,13.786262 C33.5056035,14.2845758 33.8451961,14.8598033 34.1475292,15.4740293 C34.4487978,16.0503401 34.7500664,16.6634827 35.0523996,17.2397935 L35.1652423,17.4694512 C38.03102,23.1870608 40.8212144,29.0194992 43.4229828,34.7371088 L43.4229828,34.775024 C43.7242515,35.38925 43.9882607,36.0793063 44.2905939,36.6935323 C44.4790198,37.1539309 44.6674458,37.5374159 44.7802884,37.9209009 C45.0826216,38.9186119 45.1954642,39.8784077 45.0442977,40.8761186 L45.0442977,40.8761186 Z" id="Fill-2" fill="#FFFFFF" sketch:type="MSShapeGroup"></path>
        </g>
    </g>
</svg>