<?xml version="1.0" encoding="UTF-8" standalone="no"?>
<svg width="60px" height="60px" viewBox="0 0 60 60" version="1.1" xmlns="http://www.w3.org/2000/svg" xmlns:xlink="http://www.w3.org/1999/xlink" xmlns:sketch="http://www.bohemiancoding.com/sketch/ns">
    <!-- Generator: Sketch 3.3.1 (12005) - http://www.bohemiancoding.com/sketch -->
    <title>amazon</title>
    <desc>Created with Sketch.</desc>
    <defs></defs>
    <g id="Social-icons-grid" stroke="none" stroke-width="1" fill="none" fill-rule="evenodd" sketch:type="MSPage">
        <g id="amazon" sketch:type="MSLayerGroup">
            <rect id="circle" fill="#000000" sketch:type="MSShapeGroup" x="0" y="0" width="60" height="60" rx="80"></rect>
            <g id="Shape-+-Path-+-Path" transform="translate(13.000000, 13.500000)" sketch:type="MSShapeGroup">
                <path d="M19.5014858,14.517153 C19.5014858,16.2889362 19.543204,17.7658935 18.6597353,19.3400491 C17.9462003,20.6204557 16.8106256,21.4063892 15.5492309,21.4063892 C13.8256086,21.4063892 12.8166525,20.0783258 12.8166525,18.1095206 C12.8166525,14.2374048 16.2503902,13.5334572 19.5014858,13.5334572 L19.5014858,14.517153 L19.5014858,14.517153 Z M24.032939,25.6024098 C23.7348565,25.8719938 23.3054313,25.8907065 22.9702881,25.7078875 C21.4768148,24.4531941 21.2096051,23.8727637 20.3941365,22.6782471 C17.9276367,25.2204149 16.1800613,25.9828565 12.9849227,25.9828565 C9.20093809,25.9828565 6.25877043,23.6212192 6.25877043,18.8970023 C6.25877043,15.20609 8.23409944,12.6967705 11.0509128,11.4661747 C13.4892677,10.3833958 16.8951933,10.1869798 19.5014192,9.89127869 L19.5014192,9.30068427 C19.5014192,8.21871312 19.5847892,6.93864312 18.9546241,6.00381574 C18.4078955,5.16712909 17.3568885,4.82303076 16.4325665,4.82303076 C14.718592,4.82303076 13.1942459,5.71127832 12.8204451,7.55266208 C12.7420653,7.96286067 12.4470435,8.36780894 12.0389765,8.38901218 L7.68357828,7.91163633 C7.31603188,7.82810229 6.9067007,7.52917023 7.01329182,6.96125991 C8.01373129,1.61528316 12.7861123,0 17.0627316,0 C19.2489141,0 22.1077118,0.590594427 23.8314006,2.26369849 C26.0175831,4.3308463 25.807528,7.08659463 25.807528,10.0885698 L25.807528,17.1713277 C25.807528,19.3017486 26.6816817,20.2369126 27.5033382,21.386061 C27.7905753,21.7985482 27.8554481,22.2907326 27.4894321,22.5922898 C26.5712314,23.3711556 24.9394958,24.804764 24.042121,25.6125739 L24.032939,25.6024098 L24.032939,25.6024098 Z" id="Shape" fill="#FFFFFF"></path>
                <path d="M30.1915368,26.8626228 C26.018315,28.6532534 21.4830027,29.5188168 17.3577535,29.5188168 C11.2408738,29.5188168 5.31974394,27.8219517 0.531926468,25.002459 C0.112614845,24.755559 -0.197843426,25.1907303 0.150473987,25.5094521 C4.58857678,29.5640504 10.4532839,32 16.9663205,32 C21.6136134,32 27.0099051,30.5210907 30.732876,27.7422544 C31.34827,27.28137 30.8209035,26.5922983 30.1915368,26.8626228 L30.1915368,26.8626228 Z" id="Path" fill="#FD9826"></path>
                <path d="M31.3027592,30.2469294 C31.1668256,30.5906239 31.4587868,30.7296902 31.7661179,30.4687894 C33.7631377,28.7781842 34.2789935,25.2375794 33.8696623,24.7259418 C33.4642567,24.2189487 29.9729652,23.7821619 27.8415421,25.2954676 C27.514117,25.5297802 27.5712717,25.8501175 27.9342936,25.8063648 C29.1343419,25.660298 31.8055073,25.336124 32.2819736,25.9533066 C32.7576415,26.5704219 31.7522118,29.1109742 31.3027592,30.2469294 L31.3027592,30.2469294 Z" id="Path" fill="#FD9826"></path>
            </g>
        </g>
    </g>
</svg>