<?xml version="1.0" encoding="UTF-8" standalone="no"?>
<svg width="60px" height="60px" viewBox="0 0 60 60" version="1.1" xmlns="http://www.w3.org/2000/svg" xmlns:xlink="http://www.w3.org/1999/xlink" xmlns:sketch="http://www.bohemiancoding.com/sketch/ns">
    <!-- Generator: Sketch 3.3.2 (12043) - http://www.bohemiancoding.com/sketch -->
    <title>aol</title>
    <desc>Created with Sketch.</desc>
    <defs></defs>
    <g id="Social-icons-grid" stroke="none" stroke-width="1" fill="none" fill-rule="evenodd" sketch:type="MSPage">
        <g id="aol" sketch:type="MSLayerGroup">
            <rect id="Rectangle-9" fill="#FF0000" sketch:type="MSShapeGroup" x="0" y="0" width="60" height="60" rx="80"></rect>
            <path d="M15.6999839,32.854033 L19.210501,32.854033 L17.4554058,26.8779507 L15.6999839,32.854033 L15.6999839,32.854033 Z M32.719624,29.0918404 C31.0974385,29.0918404 29.7229486,30.4582554 29.7229486,32.3347586 C29.7229486,34.2095916 31.0974385,35.5763406 32.719624,35.5763406 C34.3422993,35.5763406 35.7167892,34.2095916 35.7167892,32.3347586 C35.7167892,30.4582554 34.3422993,29.0918404 32.719624,29.0918404 L32.719624,29.0918404 Z M41.5734747,21.6666667 L45.3645066,21.6666667 L45.3645066,38.8072332 L41.5734747,38.8072332 L41.5734747,21.6666667 Z M32.719624,39.1666667 C28.1675446,39.1666667 25.9817171,35.4838099 25.9817171,32.3347586 C25.9817171,29.1843711 28.1675446,25.5023495 32.719624,25.5023495 C37.2720299,25.5023495 39.4575309,29.1843711 39.4575309,32.3347586 C39.4575309,35.4838099 37.2720299,39.1666667 32.719624,39.1666667 L32.719624,39.1666667 Z M21.1577767,38.8072332 L20.3425203,36.3289462 L14.5224095,36.3289462 L13.639392,38.8072332 L9.16666667,38.8072332 L15.7682349,21.6666667 L19.14225,21.6666667 L25.6755673,38.8072332 L21.1577767,38.8072332 Z M49.9691621,38.9697466 C51.3669053,38.9697466 52.5,37.8106762 52.5,36.3808903 C52.5,34.9511045 51.3669053,33.7920341 49.9691621,33.7920341 C48.5714189,33.7920341 47.4383242,34.9511045 47.4383242,36.3808903 C47.4383242,37.8106762 48.5714189,38.9697466 49.9691621,38.9697466 Z" id="Fill-1" fill="#FFFFFF" sketch:type="MSShapeGroup"></path>
        </g>
    </g>
</svg>