<?xml version="1.0" encoding="UTF-8" standalone="no"?>
<svg width="60px" height="60px" viewBox="0 0 60 60" version="1.1" xmlns="http://www.w3.org/2000/svg" xmlns:xlink="http://www.w3.org/1999/xlink" xmlns:sketch="http://www.bohemiancoding.com/sketch/ns">
    <!-- Generator: Sketch 3.3.1 (12005) - http://www.bohemiancoding.com/sketch -->
    <title>apple</title>
    <desc>Created with Sketch.</desc>
    <defs></defs>
    <g id="Social-icons-grid" stroke="none" stroke-width="1" fill="none" fill-rule="evenodd" sketch:type="MSPage">
        <g id="apple" sketch:type="MSLayerGroup">
            <rect id="circle" fill="#999999" sketch:type="MSShapeGroup" x="0" y="0" width="60" height="60" rx="80"></rect>
            <path d="M37.3743639,28.9402823 C37.3368639,25.1405984 40.4727985,23.3181001 40.6134233,23.2281002 C38.8499875,20.6490401 36.1049901,20.295603 35.1271785,20.2552905 C32.7909307,20.0181032 30.5681203,21.6306017 29.3831215,21.6306017 C28.1999976,21.6306017 26.3699993,20.2890405 24.4331261,20.3256029 C21.8868785,20.3621654 19.5384433,21.805914 18.226882,24.0868494 C15.582197,28.6768451 17.5500076,35.4784011 20.1281302,39.2012101 C21.3890665,41.0237084 22.8909401,43.0712064 24.8643757,42.9980815 C26.7628114,42.9230816 27.4818733,41.7690202 29.7787461,41.7690202 C32.0746814,41.7690202 32.7215558,42.9980815 34.7306164,42.9605816 C36.775302,42.9230816 38.0699882,41.1033958 39.3215496,39.274335 C40.7681107,37.1602745 41.3634226,35.113714 41.3999851,35.0077766 C41.3549851,34.9880891 37.4137389,33.477778 37.3743639,28.9402823 L37.3743639,28.9402823 Z M33.5962425,17.7896678 C34.643429,16.520294 35.3503033,14.7577957 35.1571785,12.9999849 C33.6496799,13.0599848 31.8196817,14.0031089 30.7387452,15.2715452 C29.7674961,16.3956067 28.9181219,18.1909175 29.1459342,19.9140408 C30.8296826,20.0452907 32.5481185,19.0571666 33.5962425,17.7896678 L33.5962425,17.7896678 Z" id="Shape" fill="#FFFFFF" sketch:type="MSShapeGroup"></path>
        </g>
    </g>
</svg>