<?xml version="1.0" encoding="utf-8"?>
<!-- Generated by IcoMoon.io -->
<!DOCTYPE svg PUBLIC "-//W3C//DTD SVG 1.1//EN" "http://www.w3.org/Graphics/SVG/1.1/DTD/svg11.dtd">
<svg version="1.1" xmlns="http://www.w3.org/2000/svg" xmlns:xlink="http://www.w3.org/1999/xlink" width="24" height="24" viewBox="0 0 24 24">
<path fill="#444444" d="M15 10h-7.337l2.057-2.294c0.373-0.39 0.373-1.021 0-1.413-0.375-0.391-0.979-0.391-1.353 0l-4.367 4.707 4.367 4.706c0.185 0.196 0.431 0.294 0.676 0.294s0.49-0.098 0.677-0.294c0.373-0.39 0.373-1.021 0-1.413l-2.057-2.293h7.337c1.657 0 3 1.343 3 3v3c0 0.552 0.448 1 1 1s1-0.448 1-1v-3c0-2.761-2.239-5-5-5z"></path>
</svg>
