<?xml version="1.0" encoding="UTF-8" standalone="no"?>
<svg width="60px" height="60px" viewBox="0 0 60 60" version="1.1" xmlns="http://www.w3.org/2000/svg" xmlns:xlink="http://www.w3.org/1999/xlink" xmlns:sketch="http://www.bohemiancoding.com/sketch/ns">
    <!-- Generator: Sketch 3.3.1 (12005) - http://www.bohemiancoding.com/sketch -->
    <title>bankofamerica</title>
    <desc>Created with Sketch.</desc>
    <defs></defs>
    <g id="Social-icons-grid" stroke="none" stroke-width="1" fill="none" fill-rule="evenodd" sketch:type="MSPage">
        <g id="bankofamerica" sketch:type="MSLayerGroup">
            <rect id="circle" fill="#D11834" sketch:type="MSShapeGroup" x="0" y="0" width="60" height="60" rx="80"></rect>
            <path d="M25.0091431,25.0616518 C26.1595158,25.509125 27.3098896,25.9887674 28.4285749,26.5317868 C24.849262,27.9702333 21.3659726,29.6957934 18.0742528,31.6772594 C16.9555675,31.102073 15.8051937,30.5268856 14.6548199,30.0155558 C17.9782282,28.0979464 21.4298291,26.4362417 25.0091431,25.0616518 L25.0091431,25.0616518 Z M20.7062525,23.546129 C16.9987458,24.7291515 13.4194329,26.2626624 10,28.1164152 C11.0865172,28.5317215 12.1730345,28.9475073 13.2278632,29.3949817 C16.5195841,27.4452043 20.0028724,25.8156687 23.6143545,24.5375818 C22.6555493,24.1856525 21.6972247,23.8342028 20.7062525,23.546129 L20.7062525,23.546129 Z M47.6905466,30.5348561 C47.7548827,30.7264247 47.9142833,30.7902813 48.0741644,30.7902813 C48.1697084,30.7902813 48.265733,30.7902813 48.3295895,30.7264247 C48.3612769,30.6942566 48.3939256,30.6304012 48.3939256,30.5665446 C48.3939256,30.438352 48.297901,30.374975 48.1697084,30.374975 L47.9464513,30.3106389 C47.8821152,30.2789514 47.7860906,30.2789514 47.722234,30.2150949 C47.6583775,30.1512383 47.6266901,30.0552137 47.6266901,29.9596698 C47.6266901,29.7042447 47.8504267,29.60822 48.0741644,29.60822 C48.265733,29.60822 48.4577822,29.7042447 48.5216387,29.9275017 L48.3617576,29.9596698 C48.3617576,29.8314771 48.2023571,29.7359321 48.0424759,29.7359321 C47.9469319,29.7359321 47.7865712,29.7997886 47.7865712,29.9270211 C47.7865712,30.0869022 47.8825948,30.1185897 48.0107874,30.1512383 L48.2023571,30.1829268 C48.297901,30.2146143 48.3939256,30.2467823 48.4577822,30.2784708 C48.5216387,30.3744954 48.5533262,30.438352 48.5533262,30.5665446 C48.5533262,30.6620886 48.5216387,30.7902813 48.4256141,30.8541378 C48.3295895,30.9184739 48.2018764,30.9501624 48.0741644,30.9501624 C47.8187393,30.9501624 47.6588581,30.8219698 47.5633142,30.5665446 L47.6905466,30.5348561 L47.6905466,30.5348561 Z M48.8813145,29.7681008 L48.8813145,30.8867863 L48.754082,30.8867863 L48.754082,29.60822 L48.977339,29.60822 L49.3931251,30.630881 L49.7445748,29.60822 L50,29.60822 L50,30.8867863 L49.8401192,30.8867863 L49.8401192,29.7681008 L49.4248132,30.8867863 L49.2971006,30.8867863 L48.8813145,29.7681008 Z M32.7279441,24.8204704 C29.7876741,23.4141908 26.751859,22.2316501 23.6521884,21.2728449 C22.5335031,21.5926061 21.4469859,21.9440558 20.3921561,22.2959862 C23.5878523,23.2543108 26.7196909,24.4690207 29.7238175,25.9069876 C30.7147908,25.5233698 31.7052834,25.1723997 32.7279441,24.8204704 L32.7279441,24.8204704 Z M37.5032427,23.4498803 C34.5312841,22.1396265 31.4316125,21.0531081 28.2676058,20.1903286 C27.2449441,20.3818972 26.2539719,20.6056349 25.2634792,20.86106 C28.3953179,21.7881767 31.463301,22.9380699 34.403571,24.344829 C35.4262328,24.0250667 36.480582,23.7053054 37.5032427,23.4498803 Z M45.1899081,26.0359164 C37.6793518,28.5608812 30.6489175,32.1718827 24.2892146,36.6778328 C25.8870627,37.6683254 27.4210543,38.6909861 28.9228767,39.8096714 C34.9311299,35.0478166 41.6105951,31.0848848 48.7692221,28.0807582 C47.5871598,27.3456907 46.404618,26.6749593 45.1899081,26.0359164 Z M40.0666812,23.546129 C32.2694909,25.5914504 24.9509839,28.9153382 18.3353752,33.3252637 C19.8055102,34.0598517 21.2756452,34.8270872 22.7136122,35.6576998 C29.2015078,31.1839177 36.3918232,27.6679807 44.06178,25.3672331 C42.7515261,24.7286698 41.4417518,24.0896269 40.0666812,23.546129 L40.0666812,23.546129 Z" id="path7" fill="#FFFFFF" sketch:type="MSShapeGroup"></path>
        </g>
    </g>
</svg>