<?xml version="1.0" encoding="UTF-8" standalone="no"?>
<svg width="60px" height="60px" viewBox="0 0 60 60" version="1.1" xmlns="http://www.w3.org/2000/svg" xmlns:xlink="http://www.w3.org/1999/xlink" xmlns:sketch="http://www.bohemiancoding.com/sketch/ns">
    <!-- Generator: Sketch 3.3.2 (12043) - http://www.bohemiancoding.com/sketch -->
    <title>bbc</title>
    <desc>Created with Sketch.</desc>
    <defs></defs>
    <g id="Social-icons-grid" stroke="none" stroke-width="1" fill="none" fill-rule="evenodd" sketch:type="MSPage">
        <g id="bbc" sketch:type="MSLayerGroup">
            <rect id="Rectangle-9" fill="#000000" sketch:type="MSShapeGroup" x="0" y="0" width="60" height="60" rx="80"></rect>
            <path d="M5,22.5 L20.1224212,22.5 L20.1224212,37.5 L5,37.5 L5,22.5 Z M22.4388582,37.5 L37.5612794,37.5 L37.5612794,22.5 L22.4388582,22.5 L22.4388582,37.5 Z M39.8775788,37.5 L55,37.5 L55,22.5 L39.8775788,22.5 L39.8775788,37.5 Z M31.7292421,29.6586958 C31.7292421,29.6586958 33.0481427,29.0670633 33.0367195,27.4977304 C33.0367195,27.4977304 33.2372452,24.9263598 30.0002064,24.6124353 L26.4075338,24.6124353 L26.4075338,35.3929247 L30.5249866,35.3929247 C30.5249866,35.3929247 33.9657166,35.4049486 33.9657166,32.3507398 C33.9657166,32.3507398 34.0459544,30.2743761 31.7292421,29.6586958 Z M28.2311207,26.2905625 L29.6992114,26.2905625 C31.2245558,26.3750193 31.1673021,27.5701634 31.1673021,27.5701634 C31.1673021,29.0550394 29.4813444,29.079232 29.4813444,29.079232 L28.2311207,29.079232 L28.2311207,26.2905625 Z M32.0847383,32.1937051 C32.0847383,33.823447 30.1579295,33.7268214 30.1579295,33.7268214 L28.2311207,33.7268214 L28.2311207,30.7812621 L30.1579295,30.7812621 C32.141992,30.7692382 32.0847383,32.1937051 32.0847383,32.1937051 Z M14.2961643,29.6586958 C14.2961643,29.6586958 15.6150649,29.0670633 15.6036417,27.4977304 C15.6036417,27.4977304 15.8041674,24.9263598 12.5671286,24.6124353 L8.97445602,24.6124353 L8.97445602,35.3929247 L13.0919088,35.3929247 C13.0919088,35.3929247 16.5326388,35.4049486 16.5326388,32.3507398 C16.5326388,32.3507398 16.6128766,30.2743761 14.2961643,29.6586958 Z M10.7980429,26.2905625 L12.2661336,26.2905625 C13.791478,26.3750193 13.7342243,27.5701634 13.7342243,27.5701634 C13.7342243,29.0550394 12.0482666,29.079232 12.0482666,29.079232 L10.7981805,29.079232 L10.7981805,26.2905625 L10.7980429,26.2905625 Z M14.6516605,32.1937051 C14.6516605,33.823447 12.7248517,33.7268214 12.7248517,33.7268214 L10.7980429,33.7268214 L10.7980429,30.7812621 L12.7248517,30.7812621 C14.7090519,30.7692382 14.6516605,32.1937051 14.6516605,32.1937051 Z M51.9147662,25.3852951 L51.9147662,27.377202 C51.9147662,27.377202 50.0681953,26.1820579 48.0267414,26.1578653 C48.0267414,26.1578653 44.2190919,26.0796376 44.0470554,29.9998551 C44.0470554,29.9998551 43.9094262,33.606293 47.9809108,33.811568 C47.9809108,33.811568 49.6898526,34.028867 52.0065649,32.471558 L52.0065649,34.5358978 C52.0065649,34.5358978 48.8984847,36.4795642 45.2971414,34.9825195 C45.2971414,34.9825195 42.2692991,33.8177973 42.1546539,29.9998551 C42.1546539,29.9998551 42.028448,26.0734084 46.0656629,24.76947 C46.0656629,24.76947 47.14385,24.3348721 49.0820821,24.5279784 C49.0819444,24.5281233 50.2402318,24.6489415 51.9147662,25.3852951 Z" id="Carrés" fill="#FFFFFF" sketch:type="MSShapeGroup"></path>
        </g>
    </g>
</svg>