<?xml version="1.0" encoding="utf-8"?>
<!-- Generator: Adobe Illustrator 13.0.0, SVG Export Plug-In . SVG Version: 6.00 Build 14948)  -->
<!DOCTYPE svg PUBLIC "-//W3C//DTD SVG 1.1//EN" "http://www.w3.org/Graphics/SVG/1.1/DTD/svg11.dtd">
<svg version="1.1" id="_x35__copy_14_xA0_Image_1_" xmlns="http://www.w3.org/2000/svg" xmlns:xlink="http://www.w3.org/1999/xlink"
	 x="0px" y="0px" width="113.266px" height="113.266px" viewBox="0 0 113.266 113.266" enable-background="new 0 0 113.266 113.266"
	 xml:space="preserve">
<circle fill="#2196F3" cx="57.236" cy="56.887" r="56.541"/>
<g id="Layer_5">
	<path fill="#FFFFFF" d="M79.303,77.954c0,6.627-5.688,12-12.702,12H49.071c-7.016,0-12.702-5.373-12.702-12V42.005
		c0-6.627,5.687-12,12.702-12h17.529c7.015,0,12.702,5.373,12.702,12V77.954z"/>
	<g>
		<polygon fill="#FFFFFF" points="47.211,52.261 36.527,35.479 47.211,18.697 68.576,18.697 79.26,35.479 68.576,52.261 		"/>
	</g>
	<rect x="36.423" y="35.542" fill="#FFFFFF" width="42.935" height="27.801"/>
</g>
<g id="Layer_5_copy">
	<path fill="#2196F3" d="M78.425,77.278c0,6.383-5.439,11.56-12.146,11.56H49.516c-6.709,0-12.146-5.177-12.146-11.56v-34.63
		c0-6.384,5.438-11.559,12.146-11.559h16.763c6.707,0,12.146,5.175,12.146,11.559V77.278z"/>
	<g>
		<polygon fill="#2196F3" points="47.737,52.528 37.521,36.363 47.737,20.197 68.167,20.197 78.383,36.363 68.167,52.528 		"/>
	</g>
	<rect x="37.421" y="36.424" fill="#2196F3" width="41.057" height="26.781"/>
</g>
<g id="Layer_5_copy_2">
	<path fill="#FFFFFF" d="M77.309,76.022c0,6.242-5.179,11.307-11.563,11.307H49.788c-6.386,0-11.563-5.064-11.563-11.307V42.154
		c0-6.243,5.177-11.305,11.563-11.305h15.958c6.384,0,11.563,5.062,11.563,11.305V76.022z"/>
	<g>
		<polygon fill="#FFFFFF" points="48.096,52.817 38.37,37.007 48.096,21.197 67.544,21.197 77.269,37.007 67.544,52.817 		"/>
	</g>
	<rect x="38.275" y="37.067" fill="#FFFFFF" width="39.083" height="26.192"/>
</g>
<g>
	<path fill="#2196F3" d="M56.406,73.442v-3.988c-2.083-0.133-3.767-0.377-5.052-0.73c-1.286-0.354-2.349-0.687-3.191-0.997v-6.581
		h7.312c0,0.665,0.133,1.158,0.399,1.479c0.266,0.322,0.819,0.482,1.662,0.482c0.731,0,1.251-0.11,1.562-0.332
		s0.466-0.554,0.466-0.997c0-0.311-0.128-0.582-0.383-0.814s-0.77-0.504-1.546-0.814c-1.639-0.62-3.074-1.213-4.303-1.778
		c-1.23-0.564-2.25-1.19-3.058-1.878c-0.809-0.687-1.412-1.49-1.811-2.41c-0.399-0.919-0.599-2.032-0.599-3.34
		c0-1.085,0.15-2.078,0.449-2.975c0.299-0.897,0.781-1.684,1.446-2.36c0.665-0.676,1.54-1.23,2.626-1.662
		c1.085-0.432,2.426-0.725,4.021-0.88v-3.822h4.354v3.755c1.041,0.067,1.961,0.172,2.759,0.316c0.798,0.145,1.528,0.311,2.193,0.499
		c0.665,0.188,1.273,0.388,1.828,0.598c0.554,0.211,1.008,0.427,1.362,0.648v5.949h-6.979c0-0.643-0.178-1.08-0.531-1.313
		c-0.355-0.232-0.787-0.349-1.297-0.349c-0.731,0-1.258,0.095-1.578,0.283c-0.322,0.188-0.482,0.515-0.482,0.98
		c0,0.377,0.172,0.654,0.516,0.831c0.343,0.177,0.858,0.377,1.545,0.598c1.285,0.421,2.498,0.864,3.64,1.33
		c1.141,0.465,2.144,1.042,3.008,1.728c0.864,0.687,1.546,1.518,2.044,2.493c0.499,0.976,0.748,2.172,0.748,3.59
		c0,2.548-0.743,4.525-2.227,5.933c-1.485,1.407-3.668,2.243-6.548,2.509v4.021H56.406z"/>
</g>
<circle fill="#2196F3" cx="58.851" cy="25.395" r="1.593"/>
</svg>