<?xml version="1.0" encoding="UTF-8" standalone="no"?>
<svg width="60px" height="60px" viewBox="0 0 60 60" version="1.1" xmlns="http://www.w3.org/2000/svg" xmlns:xlink="http://www.w3.org/1999/xlink" xmlns:sketch="http://www.bohemiancoding.com/sketch/ns">
    <!-- Generator: Sketch 3.3.2 (12043) - http://www.bohemiancoding.com/sketch -->
    <title>behance</title>
    <desc>Created with Sketch.</desc>
    <defs>
        <linearGradient x1="50%" y1="0%" x2="50%" y2="100%" id="linearGradient-1">
            <stop stop-color="#008EF9" offset="0%"></stop>
            <stop stop-color="#0453FA" offset="100%"></stop>
        </linearGradient>
    </defs>
    <g id="Social-icons-grid" stroke="none" stroke-width="1" fill="none" fill-rule="evenodd" sketch:type="MSPage">
        <g id="behance" sketch:type="MSLayerGroup">
            <rect id="Rectangle-9" fill="url(#linearGradient-1)" sketch:type="MSShapeGroup" x="0" y="0" width="60" height="60" rx="80"></rect>
            <path d="M21.1984688,38.5398961 C21.732886,38.5398961 22.2402086,38.490787 22.7176337,38.3800507 C23.2015989,38.2712402 23.6313749,38.0979139 23.9938817,37.841776 C24.3563884,37.5962303 24.6562974,37.2592068 24.8739883,36.8297426 C25.0935478,36.4050929 25.1981889,35.8543002 25.1981889,35.1860308 C25.1981889,33.8793425 24.8412879,32.9520464 24.1321574,32.3877727 C23.4211584,31.8331283 22.4728482,31.556769 21.3068471,31.556769 L15.4170467,31.556769 L15.4170467,38.5398961 L21.1984688,38.5398961 L21.1984688,38.5398961 Z M20.8994942,27.7445517 C21.8590159,27.7445517 22.6541016,27.5105611 23.2828826,27.0339136 C23.9060579,26.5649694 24.2087697,25.7907783 24.2087697,24.7277099 C24.2087697,24.1374373 24.1078658,23.6501976 23.9060579,23.2717683 C23.6977099,22.893339 23.4211584,22.5967584 23.0717318,22.3897296 C22.725108,22.1740346 22.3336381,22.0257442 21.8786361,21.9448586 C21.432977,21.8543437 20.9648949,21.8196784 20.4856011,21.8196784 L15.4170467,21.8196784 L15.4170467,27.7445517 L20.8994942,27.7445517 L20.8994942,27.7445517 Z M21.600216,17.5 C22.7764943,17.5 23.8387886,17.6049587 24.8095219,17.8216167 C25.7746494,18.0324971 26.5986982,18.3839645 27.2947485,18.8673525 C27.9805216,19.3507405 28.5168074,19.9920481 28.9008029,20.8018675 C29.2754555,21.5982059 29.4641833,22.5967584 29.4641833,23.7773036 C29.4641833,25.0531783 29.1829602,26.1191355 28.6205142,26.9722864 C28.054331,27.8235115 27.2218735,28.5216316 26.1100615,29.063758 C27.6245549,29.5124807 28.7457098,30.3020787 29.4894092,31.4248484 C30.2368458,32.5562845 30.6021555,33.9091931 30.6021555,35.4960924 C30.6021555,36.7815963 30.3629758,37.8889593 29.8864849,38.8201071 C29.4043883,39.7618471 28.7485127,40.526409 27.9403469,41.1166816 C27.125641,41.7108059 26.1894767,42.1470106 25.1411968,42.4310733 C24.1041286,42.7151359 23.0278199,42.8576487 21.9253509,42.8576487 L10,42.8576487 L10,17.5 L21.600216,17.5 Z M43.9476359,28.8076201 C43.3655697,28.1451282 42.3808219,27.7859575 41.1793176,27.7859575 C40.3973121,27.7859575 39.7498451,27.9217298 39.2322453,28.1980891 C38.725857,28.4705966 38.3100954,28.809546 37.9924348,29.2091596 C37.6775772,29.6155136 37.4617548,30.0449779 37.3365592,30.5033299 C37.2113636,30.9491638 37.1356856,31.3555179 37.1132625,31.7127628 L45.0753309,31.7127628 C44.9585439,30.4272588 44.5315707,29.4768525 43.9476359,28.8076201 Z M38.3250441,38.4551588 C39.057532,39.1927588 40.1170233,39.5634847 41.4895038,39.5634847 C42.4761201,39.5634847 43.3291321,39.3073468 44.0448027,38.7941081 C44.7539331,38.2818324 45.1855778,37.7348914 45.3518824,37.1667661 L49.6617887,37.1667661 C48.9694755,39.3766774 47.9183928,40.9549103 46.4842488,41.9043537 C45.0678565,42.8576487 43.3394094,43.3333333 41.326002,43.3333333 C39.9226898,43.3333333 38.659522,43.0993427 37.5252869,42.638102 C36.3929205,42.1710837 35.4455446,41.5172581 34.6485903,40.6641072 C33.8721906,39.8071045 33.2695698,38.7941081 32.8397938,37.6039337 C32.4146892,36.4204997 32.1998012,35.1099597 32.1998012,33.6906093 C32.1998012,32.3174793 32.4230979,31.0348641 32.8575454,29.8485413 C33.3022702,28.6602927 33.9161025,27.6338154 34.723334,26.7719982 C35.5333684,25.9072921 36.4928901,25.2245788 37.6103079,24.7248211 C38.7286599,24.2279521 39.960996,23.9775918 41.326002,23.9775918 C42.8330211,23.9775918 44.153181,24.2760984 45.2846131,24.8856294 C46.4123081,25.4855313 47.3363266,26.3001653 48.0632087,27.3199021 C48.7891565,28.3357872 49.305822,29.4989998 49.6290883,30.8047252 C49.9486175,32.1056359 50.060733,33.4672109 49.969172,34.8913759 L37.1132625,34.8913759 C37.1132625,36.3434658 37.5897534,37.7175588 38.3250441,38.4551588 Z M36.1126318,19.2005243 L46.0862389,19.2005243 L46.0862389,21.7041275 L36.1126318,21.7041275 L36.1126318,19.2005243 Z" id="Fill-11" fill="#FFFFFF" sketch:type="MSShapeGroup"></path>
        </g>
    </g>
</svg>