<?xml version="1.0" encoding="UTF-8" standalone="no"?>
<svg width="60px" height="60px" viewBox="0 0 60 60" version="1.1" xmlns="http://www.w3.org/2000/svg" xmlns:xlink="http://www.w3.org/1999/xlink" xmlns:sketch="http://www.bohemiancoding.com/sketch/ns">
    <!-- Generator: Sketch 3.3.1 (12005) - http://www.bohemiancoding.com/sketch -->
    <title>bestbuy</title>
    <desc>Created with Sketch.</desc>
    <defs></defs>
    <g id="Social-icons-grid" stroke="none" stroke-width="1" fill="none" fill-rule="evenodd" sketch:type="MSPage">
        <g id="bestbuy" sketch:type="MSLayerGroup">
            <path d="M30.0000025,60 C13.4399991,60 0,46.5600004 0,30.0000003 C0,13.4400011 13.4399991,0 30.0000025,0 C46.5599984,0 60,13.4400011 60,30.0000003 C60,46.5600004 46.5599984,60 30.0000025,60 Z" id="path2760" fill="#013B63" sketch:type="MSShapeGroup"></path>
            <g id="Best_Buy_Logo" transform="translate(7.000000, 14.125285)" sketch:type="MSShapeGroup">
                <g id="Group">
                    <g id="Shape">
                        <path d="M1.08159851,7.55043638 L10.7456456,0 L45.999316,3.36760566 L43.3296059,31.6966478 L8.01699628,28.3878099 L0,19.0102138 L1.08159851,7.55043638 Z" fill="#010101"></path>
                        <path d="M1.66181413,7.84421837 L10.9750756,0.642626714 L45.35486,3.94422548 L42.8096976,31.0521971 L8.31254771,27.7507123 L0.583920694,18.7807287 L1.66181413,7.84421837 Z" fill="#F6EB16"></path>
                        <path d="M17.5689789,6.56620404 L25.3730186,7.31177415 L25.1488897,9.64920484 L21.6343643,9.31318529 L21.5627708,10.0660515 L24.7688625,10.3727157 L24.563202,12.5156597 L21.3755217,12.2126436 L21.2947509,13.0626961 L24.888166,13.4061828 L24.6752094,15.6278449 L16.8143395,14.8750927 L17.5689789,6.56620404 Z" fill="#010101"></path>
                        <path d="M26.5370979,12.8810347 L25.0607658,15.0588062 C25.0607658,15.0588062 26.9153581,16.0558067 29.488052,16.2797058 C32.0568699,16.5075378 33.9408748,15.7710879 34.545031,14.5409542 C35.1508971,13.3143545 34.4255564,11.9187476 33.2357695,11.5314274 C32.0441016,11.1457601 29.9782627,10.7344996 30.1931004,10.324892 C30.407995,9.91733648 31.7044312,10.0017546 32.4920743,10.3304781 C33.2798315,10.6592015 33.4947261,10.8556262 33.4947261,10.8556262 L34.8498736,8.91851194 C34.8498736,8.91851194 33.4101933,7.86456764 30.7163147,7.70479448 C28.0208401,7.54502131 26.0395341,8.89462861 25.9018191,10.1487026 C25.7623371,11.4028906 26.5683346,12.1428747 27.7931772,12.5910147 C27.7931772,12.5910147 28.8324238,12.9251533 29.6164758,13.0959276 C30.3987038,13.2685829 30.8963247,13.7844969 29.9617323,13.9680964 C29.026969,14.1515819 27.1044312,13.4613025 26.5370979,12.8810347 L26.5370979,12.8810347 Z" fill="#010101"></path>
                        <path d="M37.2625651,11.1954648 L34.9653581,10.9769808 L35.2225477,8.27218017 L44.069539,9.11676062 L43.8123494,11.8215613 L41.5133755,11.6011963 L40.9772218,17.2217005 L36.7834126,16.8216691 L37.2625651,11.1954648 Z" fill="#010101"></path>
                        <path d="M18.2209021,16.0631598 L22.2807584,16.4304158 L21.849202,21.1458047 C21.849202,21.1458047 21.4489393,22.2769281 22.8003817,22.4072888 C24.1537621,22.5358826 24.0932838,21.3203411 24.0932838,21.3203411 L24.5374944,16.665487 L28.613881,17.0547453 L28.0906097,22.5413547 C28.0906097,22.5413547 27.6095192,25.5362323 22.6243048,25.0606178 C17.6406865,24.5848894 17.708632,21.4341716 17.708632,21.4341716 L18.2209021,16.0631598 L18.2209021,16.0631598 Z" fill="#010101"></path>
                        <path d="M33.2890087,17.5028283 L34.453145,19.7961974 L35.9551846,17.7580778 L40.6870855,18.2078139 L36.2728525,22.5818252 L35.9312441,26.1549757 L31.7796159,25.7583073 L32.1137571,22.2438106 L28.5734102,17.0712755 L33.2890087,17.5028283 Z" fill="#010101"></path>
                        <path d="M15.6005551,19.910028 C15.6005551,19.910028 17.3101933,19.5739514 17.2660743,17.8277327 C17.2221264,16.079747 13.7331375,15.6463702 13.7331375,15.6463702 L7.97481537,15.0752224 L7.18888228,23.4135235 C7.18888228,23.4135235 11.7849492,23.896434 13.1234523,24.0046785 C14.4621264,24.11127 17.159482,23.9973254 17.4257918,22.273052 C17.6902206,20.5472966 15.6005551,19.910028 15.6005551,19.910028 L15.6005551,19.910028 Z M11.6692367,17.5230066 C11.6692367,17.5230066 13.4375861,17.3595854 13.340228,18.1894026 C13.2409888,19.0175669 11.5608773,18.6429578 11.5608773,18.6429578 L11.6692367,17.5230066 L11.6692367,17.5230066 Z M11.3001537,21.7754923 L11.3919257,20.4205269 C11.3919257,20.4205269 13.6026617,20.3378758 13.5310682,21.2872237 C13.4594746,22.2365715 11.3001537,21.7754923 11.3001537,21.7754923 L11.3001537,21.7754923 Z" fill="#010101"></path>
                        <path d="M14.7595589,10.3562424 C14.7595589,10.3562424 16.469197,10.0202229 16.4250781,8.2739472 C16.3810161,6.52784252 12.8921413,6.09064659 12.8921413,6.09064659 L7.13188104,5.52155087 L6.347886,13.8597379 C6.347886,13.8597379 10.9439529,14.3426485 12.280689,14.4492399 C13.6192491,14.5593654 16.3167187,14.4436539 16.5830285,12.7194375 C16.8491673,10.9934541 14.7595589,10.3562424 14.7595589,10.3562424 L14.7595589,10.3562424 Z M10.8631252,7.99122336 C10.8631252,7.99122336 12.6332986,7.82962617 12.5359405,8.6577334 C12.4368724,9.48584063 10.7565898,9.11123155 10.7565898,9.11123155 L10.8631252,7.99122336 L10.8631252,7.99122336 Z M10.4958662,12.2457041 L10.5876382,10.8886867 C10.5876382,10.8886867 12.7966642,10.8079736 12.7269517,11.7572644 C12.6553581,12.7047883 10.4958662,12.2457041 10.4958662,12.2457041 L10.4958662,12.2457041 Z" fill="#010101"></path>
                    </g>
                    <path d="M5.11945229,13.9294499 C5.03862454,14.7907886 4.27480793,15.4205901 3.41540025,15.339706 C2.55428253,15.2571689 1.92436183,14.4931875 2.00513259,13.6320769 C2.08784139,12.7726762 2.85165799,12.1429317 3.71288971,12.2237018 C4.5722404,12.3062389 5.20204709,13.0701632 5.11945229,13.9294499 L5.11945229,13.9294499 Z" id="Shape" fill="#010101"></path>
                    <path d="M4.54824287,13.8762682 C4.49699876,14.4197705 4.01408426,14.8182629 3.46863941,14.7667912 C2.92507559,14.7153765 2.52669393,14.230642 2.57805204,13.6871966 C2.6312912,13.1436372 3.1143197,12.7452018 3.65776952,12.7966165 C4.20127633,12.8479742 4.59971499,13.3309988 4.54824287,13.8762682 L4.54824287,13.8762682 Z" id="Shape" fill="#FFFFFF"></path>
                    <path d="M40.7183792,19.026744 C40.7533209,18.657664 41.0819901,18.3860553 41.4510731,18.4208828 C41.8201561,18.4557673 42.0937621,18.7861437 42.0588203,19.1553377 C42.0240496,19.5244178 41.6933854,19.7961974 41.3243024,19.761313 C40.9552193,19.7246045 40.6834374,19.395824 40.7183792,19.026744 L40.7183792,19.026744 Z M41.8934597,19.1388075 C41.9247534,18.8248473 41.7190929,18.5768939 41.4399009,18.5512436 C41.1589418,18.5237122 40.9111004,18.729371 40.8817447,19.0415642 C40.8505651,19.3555245 41.0562825,19.6033068 41.3352466,19.6308952 C41.6162627,19.6566595 41.8640471,19.4529388 41.8934597,19.1388075 L41.8934597,19.1388075 Z M41.1663519,18.6834853 L41.447311,18.7109027 C41.631026,18.7274329 41.722684,18.8009069 41.7080917,18.9606801 C41.6952664,19.0910979 41.6144387,19.1462176 41.4896059,19.1462176 L41.6621487,19.4968864 L41.5151995,19.4838902 L41.351834,19.1369265 L41.2655341,19.1295734 L41.2342404,19.4564158 L41.0929343,19.4434767 L41.1663519,18.6834853 L41.1663519,18.6834853 Z M41.2765923,19.0212149 L41.399601,19.0342111 C41.4840198,19.0416212 41.5573804,19.0378022 41.5667286,18.9349728 C41.5759058,18.8469066 41.4968451,18.8249043 41.4233705,18.8174942 L41.2967138,18.804669 L41.2765923,19.0212149 L41.2765923,19.0212149 Z" id="Shape" fill="#010101"></path>
                </g>
            </g>
        </g>
    </g>
</svg>