<?xml version="1.0" encoding="UTF-8" standalone="no"?>
<svg width="60px" height="60px" viewBox="0 0 60 60" version="1.1" xmlns="http://www.w3.org/2000/svg" xmlns:xlink="http://www.w3.org/1999/xlink" xmlns:sketch="http://www.bohemiancoding.com/sketch/ns">
    <!-- Generator: Sketch 3.3.1 (12005) - http://www.bohemiancoding.com/sketch -->
    <title>chase</title>
    <desc>Created with Sketch.</desc>
    <defs></defs>
    <g id="Social-icons-grid" stroke="none" stroke-width="1" fill="none" fill-rule="evenodd" sketch:type="MSPage">
        <g id="chase" sketch:type="MSLayerGroup">
            <path d="M60,30.0000003 C60,46.5600004 46.5599984,60 30.0000025,60 C13.4399991,60 0,46.5600004 0,30.0000003 C0,13.4400011 13.4399991,0 30.0000025,0 C46.5599984,0 60,13.4400011 60,30.0000003 L60,30.0000003 Z" id="path2760" fill="#0659A5" sketch:type="MSShapeGroup"></path>
            <g id="Group" transform="translate(14.000000, 14.000000)" fill="#FFFFFF" sketch:type="MSShapeGroup">
                <path d="M11.4178953,0 C10.797153,0 10.2920183,0.503304525 10.2920183,1.1243518 L10.2920183,9.00335536 L31.1086934,9.00335536 L21.6288765,0.00244026436 L11.4178953,0" id="Shape"></path>
                <path d="M31.8712761,11.3868836 C31.8712761,10.7649212 31.3691917,10.264362 30.7463142,10.264362 L22.8679207,10.264362 L22.8679207,31.080427 L31.8676157,21.5981698 L31.8712761,11.3868836" id="Shape"></path>
                <path d="M20.4807321,31.8359939 C21.0978139,31.8359939 21.6026436,31.3326894 21.6026436,30.710727 L21.6026436,22.8329436 L0.786578546,22.8329436 L10.2651754,31.8338587 L20.4807321,31.8359939" id="Shape"></path>
                <path d="M0.0264361973,20.4503305 C0.0264361973,21.0704626 0.52852059,21.5752923 1.150788,21.5752923 L9.02979156,21.5752923 L9.02979156,0.757702084 L0.0276563294,10.2375191 L0.0264361973,20.4503305" id="Shape"></path>
            </g>
        </g>
    </g>
</svg>