<?xml version="1.0" encoding="utf-8"?>
<!-- Generator: Adobe Illustrator 16.0.0, SVG Export Plug-In . SVG Version: 6.00 Build 0)  -->
<!DOCTYPE svg PUBLIC "-//W3C//DTD SVG 1.1//EN" "http://www.w3.org/Graphics/SVG/1.1/DTD/svg11.dtd">
<svg version="1.1" id="Layer_1" xmlns="http://www.w3.org/2000/svg" xmlns:xlink="http://www.w3.org/1999/xlink" x="0px" y="0px"
	 width="60px" height="60px" viewBox="0 0 60 60" enable-background="new 0 0 60 60" xml:space="preserve">
<circle fill="#333333" cx="10" cy="10" r="10"/>
<path fill="#FFFFFF" d="M13.832,6.151c-0.221-0.222-0.583-0.222-0.805,0L10,9.179L6.972,6.151c-0.221-0.222-0.583-0.222-0.805,0
	c-0.222,0.221-0.222,0.583,0,0.805l3.027,3.028l-3.028,3.028c-0.222,0.222-0.222,0.583,0,0.805c0.112,0.112,0.257,0.167,0.403,0.167
	c0.146,0,0.292-0.055,0.402-0.167L10,10.79l3.028,3.028c0.112,0.111,0.257,0.167,0.403,0.167s0.292-0.055,0.403-0.167
	c0.221-0.222,0.221-0.583,0-0.805l-3.029-3.029l3.029-3.028C14.054,6.735,14.054,6.374,13.832,6.151z"/>
</svg>
