<?xml version="1.0" encoding="UTF-8" standalone="no"?>
<svg width="60px" height="60px" viewBox="0 0 60 60" version="1.1" xmlns="http://www.w3.org/2000/svg" xmlns:xlink="http://www.w3.org/1999/xlink" xmlns:sketch="http://www.bohemiancoding.com/sketch/ns">
    <!-- Generator: Sketch 3.3.1 (12005) - http://www.bohemiancoding.com/sketch -->
    <title>cnn</title>
    <desc>Created with Sketch.</desc>
    <defs></defs>
    <g id="Social-icons-grid" stroke="none" stroke-width="1" fill="none" fill-rule="evenodd" sketch:type="MSPage">
        <g id="cnn" sketch:type="MSLayerGroup">
            <rect id="circle" fill="#C90614" sketch:type="MSShapeGroup" x="0" y="0" width="60" height="60" rx="80"></rect>
            <path d="M26.6355123,39.1226163 C25.0573723,39.008535 23.7192008,37.665663 23.7191244,35.7702702 L23.7191244,26.7539817 C23.7198407,26.428415 23.4793935,26.1473206 23.1313265,26.1473206 L20.3505874,26.1473206 C14.3286324,26.1400697 14.862987,33.9302261 19.9888647,33.9394106 L23.0635016,33.9394106 L23.0635159,36.2048425 L19.8758247,36.2048425 C17.8345768,36.2048425 16.3198133,35.4338271 15.2977758,34.2826212 C14.2757383,33.1316571 13.7634397,31.5828587 13.7604574,30.0376857 C13.7572816,28.4925128 14.2632645,26.9526572 15.309082,25.80411 C16.354897,24.6553212 17.9348374,23.881647 20.1019023,23.881647 L25.3468765,23.881647 C25.6929592,23.881647 25.9798894,24.1840108 25.9798894,24.5342307 L25.9798894,35.529781 C25.9779792,36.0963203 26.292696,36.5340347 26.7033372,36.6628595 C27.1139736,36.7907176 27.5958232,36.6278134 27.8789354,36.216444 L27.8902534,36.2043591 C29.3819973,33.7339676 35.3067503,24.1153687 35.316865,24.0986915 C35.4790718,23.8637614 35.6730838,23.8221894 35.8142328,23.8698039 C35.9553794,23.9174183 36.0979275,24.0721048 36.0968292,24.4535036 L36.0968292,35.5292976 C36.0949189,36.0953535 36.410087,36.5335513 36.8202722,36.6621344 C37.2304549,36.7902342 37.7015619,36.62733 37.9845689,36.2159606 L37.9845689,36.2038757 L38.0071574,36.2038757 C39.498905,33.7334842 45.4236557,24.1148853 45.4337703,24.0982081 C45.5946209,23.865695 45.78194,23.8202558 45.9311381,23.8693205 C46.0803339,23.9183851 46.2261271,24.0626786 46.2250359,24.4416605 L46.2250359,39.0643672 L43.9755734,39.0643672 L43.9755734,30.5288153 C43.9755734,30.5288153 42.63449,32.8479041 40.3357438,36.8448578 C38.084703,40.7589093 33.8362683,39.1385684 33.8360462,35.7693034 L33.8360462,30.5288153 C33.8360462,30.5288153 32.5176993,32.8479041 30.2188241,36.8448578 C29.2339732,38.5568022 27.8629492,39.2103526 26.6355099,39.1216495 L26.6355123,39.1226163 Z M46.8015771,39.0653533 L49.0509949,39.065334 L49.0509949,24.1221362 C49.0621601,20.2781771 44.6040663,19.6729662 42.7660688,22.7490519 C41.6840669,24.5600923 38.9340704,29.1794174 38.9340704,29.1794174 L38.9340704,24.1221362 C38.9452428,20.2776937 34.4984504,19.6729662 32.6604481,22.7490519 C31.5785823,24.5596089 28.81715,29.1794174 28.81715,29.1794174 L28.81715,24.6026311 C28.8203186,22.265415 27.4712264,20.9986777 25.3581827,20.9986777 L20.4410174,20.9986777 C7.87405921,21.0078622 7.7532469,39.065334 20.2714586,39.065334 L20.2714109,39.0648506 L23.0634538,39.0648506 L23.0634538,36.7766991 L23.0610555,36.7766991 L23.0610555,36.7768393 L19.8733667,36.7768393 C17.6897424,36.7729721 16.0024809,35.9415323 14.8769331,34.6740699 C13.7513804,33.4063658 13.1847837,31.7154492 13.1816079,30.0395178 C13.1792787,28.8328085 13.4735502,27.6242202 14.0689316,26.5693182 C14.082127,26.5460129 14.0954186,26.5227612 14.1088576,26.4995862 C14.3322117,26.115023 14.5961219,25.7516159 14.9008109,25.4170506 C15.5113443,24.7467806 16.2874486,24.1952275 17.2241465,23.8245149 C17.2475656,23.8152649 17.2710852,23.8061278 17.294705,23.7971047 C18.1110949,23.4845417 19.0473376,23.3082387 20.100206,23.3082387 L25.3473567,23.3082387 C26.0041518,23.3082387 26.5472171,23.8682522 26.5472171,24.5348542 L26.5472171,35.5320965 L26.5472171,35.5441814 C26.5461426,35.9163957 26.7056439,36.059239 26.8755371,36.1121708 C26.9879363,36.1473498 27.1153291,36.1350286 27.2342123,36.0568 C27.2940587,36.0170169 27.3516989,35.9604238 27.4041249,35.8845931 C28.9108155,33.3902736 34.8420402,23.7789256 34.8420402,23.7789256 L34.8507286,23.7789256 L34.8507286,23.7674642 C35.1290122,23.3652794 35.5878751,23.1861814 35.9849251,23.3203236 C36.1148441,23.364138 36.2321685,23.4411286 36.3311633,23.5444536 C36.535645,23.7559007 36.663254,24.0780305 36.6619694,24.4535036 L36.6619694,35.5292976 C36.6610599,35.8434455 36.7749992,35.9970959 36.9122162,36.069306 C36.9368608,36.0819411 36.9622299,36.09204 36.9877934,36.1000859 C37.1513775,36.1513258 37.3513514,36.1046782 37.507136,35.8946429 C37.5085687,35.8946429 37.5057033,35.882558 37.507136,35.882558 C37.5086688,35.8805304 37.5103778,35.8810543 37.5121132,35.8819892 C37.5134996,35.8819864 37.514915,35.8831121 37.5163206,35.8839344 C37.517279,35.8840412 37.5182063,35.8837149 37.5190749,35.882558 C39.0296431,33.381471 44.9570155,23.791634 44.9570155,23.791634 L44.9570155,23.7674642 L44.9589957,23.7674642 L44.9589957,23.7673241 L44.9690519,23.7673241 C45.1910252,23.448166 45.5264496,23.2786722 45.8557638,23.2882052 C45.9423438,23.2904671 46.0284867,23.3050597 46.1120007,23.33251 C46.5034036,23.46187 46.7898179,23.8623574 46.8011906,24.4033728 C46.801494,24.4169015 46.8016237,24.4305172 46.8015771,24.4442176 L46.8015771,39.0653533 Z" id="path2997-4-copy" fill="#FFFFFF" sketch:type="MSShapeGroup" transform="translate(30.000000, 29.958549) scale(1, -1) translate(-30.000000, -29.958549) "></path>
        </g>
    </g>
</svg>