<?xml version="1.0" encoding="UTF-8" standalone="no"?>
<svg width="60px" height="60px" viewBox="0 0 60 60" version="1.1" xmlns="http://www.w3.org/2000/svg" xmlns:xlink="http://www.w3.org/1999/xlink" xmlns:sketch="http://www.bohemiancoding.com/sketch/ns">
    <!-- Generator: Sketch 3.3.2 (12043) - http://www.bohemiancoding.com/sketch -->
    <title>codepen</title>
    <desc>Created with Sketch.</desc>
    <defs></defs>
    <g id="Social-icons-grid" stroke="none" stroke-width="1" fill="none" fill-rule="evenodd" sketch:type="MSPage">
        <g id="codepen" sketch:type="MSLayerGroup">
            <rect id="Rectangle-2" fill="#000000" sketch:type="MSShapeGroup" x="0" y="0" width="60" height="60" rx="60"></rect>
            <path d="M30.0173333,8.33333333 C18.0414444,8.33333333 8.33333333,18.0472222 8.33333333,30.0173333 C8.33333333,41.9874444 18.0414444,51.684 30,51.7009722 C41.9755278,51.7009722 51.6836389,41.9932222 51.6836389,30.0173333 C51.6836389,18.0414444 41.9928611,8.33333333 30,8.33333333 L30.0173333,8.33333333 Z M30.0173333,48.1396944 C20.0243056,48.1396944 11.8946111,40.0096389 11.8946111,30.0169722 C11.8946111,20.0243056 20.0243056,11.9083333 30,11.9083333 C39.9926667,11.9083333 48.1277778,20.0333333 48.1277778,30.0310556 C48.1277778,40.0287778 40.01,48.1277778 30,48.1396944 L30.0173333,48.1396944 Z" id="Shape-3" fill="#FFFFFF" sketch:type="MSShapeGroup"></path>
            <path d="M43.4154955,26.0892258 C43.412973,26.0717596 43.4086486,26.0550366 43.4061261,26.0375704 C43.4003604,26.0041244 43.3945946,25.9706785 43.3859459,25.9379758 C43.3809009,25.9182798 43.3740541,25.8993271 43.3679279,25.8807461 C43.3589189,25.8517596 43.3495495,25.8227731 43.3383784,25.7945298 C43.3308108,25.7748339 43.3214414,25.7555096 43.3127928,25.7365569 C43.3009009,25.7098001 43.2882883,25.683415 43.2738739,25.6581447 C43.2634234,25.639192 43.2518919,25.6209825 43.2410811,25.6031447 C43.2255856,25.5786177 43.2097297,25.5544623 43.1924324,25.5314217 C43.1798198,25.5139555 43.1664865,25.4964893 43.1531532,25.4797663 C43.1347748,25.4578407 43.1156757,25.4362866 43.0958559,25.4158474 C43.0807207,25.3998677 43.0659459,25.383888 43.0500901,25.3693947 C43.0288288,25.3496988 43.0072072,25.3307461 42.9848649,25.3129082 C42.9675676,25.2991582 42.9506306,25.2854082 42.9326126,25.2724015 C42.9257658,25.267942 42.92,25.2623677 42.9135135,25.2579082 L30.683964,16.8659488 C30.2976577,16.6002393 29.7945946,16.6002393 29.4082883,16.8659488 L17.1787387,25.2575366 C17.1722523,25.2619961 17.1664865,25.2675704 17.1596396,25.2720298 C17.1416216,25.2850366 17.1246847,25.2987866 17.1077477,25.309192 C17.0854054,25.3274015 17.0634234,25.3463542 17.0425225,25.3656785 C17.0263063,25.3801717 17.0115315,25.3961515 16.9963964,25.4121312 C16.9762162,25.4325704 16.9574775,25.4541244 16.9394595,25.4864555 C16.9257658,25.5031785 16.9124324,25.5206447 16.8998198,25.5381109 C16.8828829,25.5611515 16.8666667,25.5853069 16.8515315,25.6098339 C16.84,25.6280434 16.8291892,25.6462528 16.8183784,25.6469961 C16.8043243,25.6722663 16.7917117,25.6986515 16.7794595,25.7254082 C16.7708108,25.7443609 16.7614414,25.7640569 16.7538739,25.7833812 C16.7427027,25.8116244 16.7333333,25.8406109 16.7243243,25.8577055 C16.7181982,25.8766582 16.7117117,25.8956109 16.7063063,25.9149352 C16.698018,25.947638 16.6922523,25.9810839 16.6861261,26.0145298 C16.6832432,26.0319961 16.6789189,26.048719 16.6771171,26.051692 C16.6702703,26.1026042 16.6666667,26.153888 16.6666667,26.2062866 L16.6666667,34.6517596 L16.6666667,34.8070974 C16.6688288,34.8070974 16.6666667,34.8442596 16.6666667,34.8442596 C16.6727928,34.8814217 16.6666667,34.9185839 16.7027027,34.9438542 C16.7081081,34.9810163 16.7027027,34.9810163 16.7387387,35.0010839 C16.7477477,35.0382461 16.7747748,35.0754082 16.7747748,35.0754082 C16.7823423,35.1125704 16.7747748,35.1125704 16.8108108,35.132638 C16.8230631,35.1698001 16.8468468,35.1698001 16.8468468,35.2117934 C16.8572973,35.2117934 16.8828829,35.2489555 16.8828829,35.2489555 C16.898018,35.2861177 16.9189189,35.2861177 16.9189189,35.3206785 C16.9315315,35.3206785 16.954955,35.3578407 16.954955,35.3723339 C16.972973,35.4094961 16.990991,35.4094961 17.027027,35.4466582 C17.0421622,35.4466582 17.0630631,35.4838204 17.0630631,35.4931109 C17.083964,35.5302731 17.0990991,35.5302731 17.1351351,35.5495974 C17.1520721,35.5495974 17.1711712,35.5867596 17.1711712,35.5867596 C17.178018,35.5867596 17.1711712,35.5867596 17.2072072,35.6012528 L29.4082883,44.0463542 C29.6014414,44.1950028 29.8407207,44.232165 30.0569369,44.245915 C30.2789189,44.245915 30.5012613,44.1790231 30.6947748,44.0463542 L42.9246847,35.638415 C42.9311712,35.6339555 42.9369369,35.6283812 42.9437838,35.6239217 C42.9618018,35.610915 42.9787387,35.597165 42.996036,35.583415 C43.0183784,35.5652055 43.04,35.5462528 43.0612613,35.5269285 C43.0771171,35.5124352 43.0918919,35.4964555 43.107027,35.4804758 C43.1272072,35.4600366 43.1459459,35.4384825 43.1643243,35.4165569 C43.1776577,35.3998339 43.190991,35.3831109 43.2036036,35.3649015 C43.2209009,35.3418609 43.2367568,35.3177055 43.2522523,35.2931785 C43.2630631,35.274969 43.2745946,35.2567596 43.285045,35.2389217 C43.2994595,35.2129082 43.3120721,35.1865231 43.323964,35.1597663 C43.3326126,35.1408136 43.341982,35.1218609 43.3495495,35.1025366 C43.3607207,35.0735501 43.3700901,35.0445636 43.3790991,35.0155771 C43.3852252,34.9966244 43.3920721,34.9776717 43.3971171,34.9583474 C43.4054054,34.9256447 43.4115315,34.8921988 43.4172973,34.8587528 C43.4201802,34.8420298 43.4245045,34.8245636 43.4266667,34.8078407 C43.4331532,34.7561852 43.4367568,34.7049015 43.4367568,34.6525028 L43.4367568,26.2438204 C43.4259459,26.1936515 43.4345946,26.1564893 43.3985586,26.0892258 L43.4154955,26.0892258 Z M31.196036,20.0518609 L40.2054054,26.2453069 L36.1812613,29.021692 L31.196036,25.5827055 L31.196036,20.0518609 L31.196036,20.0518609 Z M28.8962162,20.0618947 L28.8962162,25.5927393 L23.9113514,29.021692 L19.8868468,26.2453069 L28.8962162,20.0518609 L28.8962162,20.0618947 Z M18.9664865,28.4635163 L21.8432432,30.4479758 L18.9664865,32.4324352 L18.9664865,28.4635163 L18.9664865,28.4635163 Z M28.8962162,40.843719 L19.8868468,34.6666244 L23.9113514,31.8909825 L28.8962162,35.3292258 L28.8962162,40.843719 L28.8962162,40.843719 Z M30.0464865,33.2533474 L25.9794595,30.4479758 L30.0464865,27.6426042 L34.1131532,30.4479758 L30.0464865,33.2533474 L30.0464865,33.2533474 Z M31.196036,40.843719 L31.196036,35.3132461 L36.1812613,31.8750028 L40.2054054,34.6506447 L31.196036,40.843719 L31.196036,40.843719 Z M41.1261261,32.4324352 L38.2497297,30.4479758 L41.1261261,28.4635163 L41.1261261,32.4324352 L41.1261261,32.4324352 Z" id="Shape-2" fill="#FFFFFF" sketch:type="MSShapeGroup"></path>
        </g>
    </g>
</svg>