<?xml version="1.0" encoding="UTF-8" standalone="no"?>
<svg width="60px" height="60px" viewBox="0 0 60 60" version="1.1" xmlns="http://www.w3.org/2000/svg" xmlns:xlink="http://www.w3.org/1999/xlink" xmlns:sketch="http://www.bohemiancoding.com/sketch/ns">
    <!-- Generator: Sketch 3.3.2 (12043) - http://www.bohemiancoding.com/sketch -->
    <title>dailymotion</title>
    <desc>Created with Sketch.</desc>
    <defs>
        <linearGradient x1="50%" y1="0%" x2="50%" y2="100%" id="linearGradient-1">
            <stop stop-color="#1B70A5" offset="0%"></stop>
            <stop stop-color="#1B608D" offset="52.4553571%"></stop>
            <stop stop-color="#1C5177" offset="100%"></stop>
        </linearGradient>
    </defs>
    <g id="Social-icons-grid" stroke="none" stroke-width="1" fill="none" fill-rule="evenodd" sketch:type="MSPage">
        <g id="dailymotion" sketch:type="MSLayerGroup">
            <rect id="Path" fill="url(#linearGradient-1)" sketch:type="MSShapeGroup" x="0" y="0" width="60" height="60" rx="70"></rect>
            <g id="Shape-+-Shape-+-Shape" transform="translate(13.333333, 6.666667)" sketch:type="MSShapeGroup">
                <path d="M32.4518519,41.8115365 L29.0153958,25.428271 L27.617526,24.9057979 L26.0314694,25.50291 L26.2958122,27.3315661 L27.4293391,27.7047612 L29.9972404,42.1847316 L29.9972404,42.2593706 L32.4518519,41.8115365 Z M21.5382716,25.2416735 L22.5950133,41.2890633 L22.7466957,44.1253462 L27.0510772,43.4162755 L26.6734447,40.8785487 L26.1069959,40.9905072 L24.3327524,25.9134247 L23.086565,25.6148686 L21.5382716,25.2416735 Z M9.94432341,18.934676 L9.15192447,23.7115735 L5.82812878,23.0398223 L1.74969741,42.3340096 L6.80997337,41.848856 L9.60445413,26.6224954 L10.5485355,26.0627027 L11.5681433,18.0763273 L10.624062,17.9270492 L9.94432341,18.934676 Z M12.4366981,27.107649 L11.1156137,26.3985783 L9.03800533,43.9014291 L9.71774389,43.7148315 L10.7379811,34.3849537 L12.2862745,29.4214587 L12.4366981,27.107649 Z M21.0089567,20.9872492 L21.1600097,23.0398223 L19.9515856,22.5919882 L19.8760591,20.5020955 L21.0089567,20.9872492 Z M21.0089567,20.2408589 L19.8382958,19.7557053 L19.7627693,17.7031322 L20.8579037,18.2256053 L21.0089567,20.2408589 L21.0089567,20.2408589 Z M17.6486565,21.6963199 L17.6864198,19.5317882 L18.9703704,20.0542614 L19.0458969,22.218793 L17.6486565,21.6963199 L17.6486565,21.6963199 Z M17.6486565,16.0983932 L17.6108932,14.4563347 L18.7815541,15.0161274 L18.8570806,16.6581859 L17.6486565,16.0983932 L17.6486565,16.0983932 Z M18.8564512,17.2179785 L18.9319777,19.3451907 L17.6480271,18.8227175 L17.6480271,16.6581859 L18.8564512,17.2179785 L18.8564512,17.2179785 Z M20.8207698,17.5911736 L19.7256354,17.10602 L19.6501089,15.4639615 L20.70748,15.9864347 L20.8207698,17.5911736 L20.8207698,17.5911736 Z M20.6313241,13.821903 L20.6690874,15.352003 L19.6494795,14.8295298 L19.6494795,13.2994298 L20.6313241,13.821903 L20.6313241,13.821903 Z M20.556427,13.1501518 L19.5745824,12.6649981 L19.5368192,10.9856201 L20.4809005,11.4707738 L20.556427,13.1501518 L20.556427,13.1501518 Z M17.6102639,11.6200518 L17.6102639,9.97799334 L18.6298717,10.5004665 L18.667635,12.1798445 L17.6102639,11.6200518 L17.6102639,11.6200518 Z M18.7431615,12.8142762 L18.7809247,14.3816957 L17.6102639,13.821903 L17.6480271,12.2544835 L18.7431615,12.8142762 L18.7431615,12.8142762 Z M15.4577584,23.4988523 L15.4206245,23.4876564 L16.0625999,8.14933728 L15.8360203,6.28336172 L23.237618,11.0229397 L21.7270879,12.4784006 L23.086565,25.6148686 L21.5382716,25.2416735 L21.1228758,25.428271 L21.0095861,23.5622954 L19.8766885,23.2637394 L19.952215,25.6521881 L20.7830065,25.9507442 L20.858533,27.107649 L19.8766885,26.6971344 L19.952215,29.1229026 L20.9718228,29.4587782 L21.1228758,33.0414513 L18.7437908,26.2493003 L18.7733721,25.5476934 L18.7431615,26.2493003 L21.1228758,33.0414513 L21.650932,44.0507071 L21.6886952,44.0507071 L21.6886952,44.4612218 L13.6457516,45.7300852 L15.0423626,23.3756979 L15.4577584,23.4988523 L15.4577584,23.4988523 Z M17.6486565,24.1483984 L17.6486565,22.4427101 L19.0458969,23.0025028 L19.0458969,25.428271 L18.7817261,25.3536806 L18.818688,24.4952832 L17.6486565,24.1483984 L17.6486565,24.1483984 Z M16.7045752,0.312239911 L16.1381264,6.46995927 L17.119971,7.10439097 L16.7045752,0.312239911 Z" id="Shape" fill="#D19B3C"></path>
                <path d="M25.616703,23.0025028 L22.7089325,21.8829174 L23.086565,25.6148686 L24.3327524,25.9134247 L26.1069959,40.9905072 L26.6734447,40.8785487 L26.9377875,42.5206072 L27.013314,42.5579267 L28.2972646,42.8938023 L30.0721375,42.5579267 L27.4293391,27.7047612 L26.2958122,27.3315661 L25.616703,23.0025028 Z M10.5485355,26.0627027 L10.4736383,26.1000222 L9.60445413,26.6224954 L6.58339385,42.8564828 L9.03800533,43.9014291 L9.60445413,43.7521511 L9.03800533,43.8641096 L11.1156137,26.3985783 L10.5485355,26.1000222 L10.5485355,26.0627027 Z M3.52519971,26.9956905 L-0.175599129,40.244117 L-0.251125635,40.393395 L1.71256354,42.2966901 L1.74969741,42.1847316 L5.82812878,23.0398223 L4.69523118,24.0847686 L4.16717502,26.4732173 L3.52519971,26.9956905 Z M14.7024933,21.3231248 L11.5681433,23.4876564 L11.6436698,22.9651833 L14.7024933,20.8379711 L14.7024933,21.3231248 Z M14.8164125,18.0763273 L14.7786492,18.5241614 L12.0219317,20.7260126 L11.9464052,20.6513736 L11.9841685,20.315498 L14.7786492,18.0016883 L14.8164125,18.0763273 L14.8164125,18.0763273 Z M14.891939,15.9864347 L12.210748,18.5241614 L12.2862745,17.9270492 L14.9297023,15.4639615 L14.891939,15.9864347 L14.891939,15.9864347 Z M12.1723554,13.2247908 L10.5485355,26.0627027 L10.5485355,26.1000222 L12.3611716,27.0703295 L12.4744614,27.107649 L12.2856451,29.4214587 L10.7373517,34.3849537 L9.67998063,44.1626657 L13.6451222,45.7300852 L15.0423626,23.3756979 L15.4199952,23.4876564 L16.0619705,8.14933728 L15.8353909,6.28336172 L11.0394578,12.4037616 L12.1723554,13.2247908 L12.1723554,13.2247908 Z M15.0045994,13.7845835 L12.4744614,16.2476712 L12.5877511,15.6878786 L15.0423626,13.1874713 L15.0045994,13.7845835 L15.0045994,13.7845835 Z M15.1185185,11.5827323 L12.8149601,13.7845835 L12.8904866,13.1874713 L15.1185185,11.0229397 L15.1185185,11.5827323 L15.1185185,11.5827323 Z M20.7830065,25.6148686 L21.6886952,44.0507071 L22.7466957,44.1999852 L22.7466957,44.1253462 L22.7089325,44.1626657 L21.5382716,25.2416735 L20.7830065,25.6148686 Z" id="Shape" fill="#FADA2D"></path>
                <path d="M12.361801,27.8167197 L12.4744614,27.107649 L12.4366981,27.107649 L12.361801,27.8167197 Z M15.1185185,11.5827323 L15.1185185,11.0229397 L12.8898572,13.1874713 L12.8143307,13.7845835 L15.1185185,11.5827323 Z M12.4744614,16.2476712 L15.0045994,13.7845835 L15.0423626,13.1874713 L12.5877511,15.6878786 L12.4744614,16.2476712 Z M12.2101186,18.5241614 L14.891939,15.9864347 L14.9297023,15.4639615 L12.2862745,17.9270492 L12.2101186,18.5241614 Z M14.7780198,18.5241614 L14.8164125,18.0763273 L14.7780198,18.0016883 L11.9841685,20.315498 L11.9457758,20.6513736 L12.0219317,20.7260126 L14.7780198,18.5241614 Z M14.7024933,20.8379711 L11.6436698,22.9651833 L11.5681433,23.4876564 L14.7024933,21.3231248 L14.7024933,20.8379711 Z M19.7250061,17.10602 L20.8207698,17.5911736 L20.7068506,15.9864347 L19.6501089,15.4639615 L19.7250061,17.10602 Z M20.556427,13.1501518 L20.4809005,11.4707738 L19.5368192,10.9856201 L19.5745824,12.6649981 L20.556427,13.1501518 Z M18.6682643,12.1798445 L18.6305011,10.5004665 L17.6102639,9.97799334 L17.6102639,11.6200518 L18.6682643,12.1798445 Z M19.8389252,19.7557053 L21.0089567,20.2408589 L20.858533,18.2256053 L19.7627693,17.7031322 L19.8389252,19.7557053 Z M19.6501089,14.8295298 L20.6690874,15.352003 L20.6313241,13.821903 L19.6501089,13.2994298 L19.6501089,14.8295298 Z M19.8766885,20.5020955 L19.952215,22.5919882 L21.1606391,23.0398223 L21.0089567,20.9872492 L19.8766885,20.5020955 Z M21.1228758,25.428271 L21.0089567,23.5622954 L19.8766885,23.2637394 L19.952215,25.6521881 L20.7830065,25.9507442 L20.7830065,25.6148686 L21.1228758,25.428271 Z M19.8766885,26.6971344 L19.952215,29.1229026 L20.9711934,29.4587782 L20.858533,27.107649 L19.8766885,26.6971344 Z M17.6486565,16.0983932 L18.8564512,16.6581859 L18.7809247,15.0161274 L17.6102639,14.4563347 L17.6486565,16.0983932 Z M17.6486565,21.6963199 L19.0452675,22.218793 L18.9703704,20.0542614 L17.6864198,19.5317882 L17.6486565,21.6963199 Z M18.7809247,25.353632 L19.0452675,25.428271 L19.0452675,23.0025028 L17.6486565,22.4427101 L17.6486565,24.1594076 L18.818688,24.4952832 L18.7809247,25.353632 Z M17.6486565,18.8227175 L18.9326071,19.3451907 L18.8564512,17.2179785 L17.6486565,16.6581859 L17.6486565,18.8227175 Z M17.6102639,13.821903 L18.7809247,14.3816957 L18.7431615,12.8142762 L17.6486565,12.2544835 L17.6102639,13.821903 Z" id="Shape" fill="#FADA2D"></path>
            </g>
        </g>
    </g>
</svg>