<?xml version="1.0" encoding="UTF-8" standalone="no"?>
<svg width="60px" height="60px" viewBox="0 0 60 60" version="1.1" xmlns="http://www.w3.org/2000/svg" xmlns:xlink="http://www.w3.org/1999/xlink" xmlns:sketch="http://www.bohemiancoding.com/sketch/ns">
    <!-- Generator: Sketch 3.3.1 (12005) - http://www.bohemiancoding.com/sketch -->
    <title>dribbble</title>
    <desc>Created with Sketch.</desc>
    <defs></defs>
    <g id="Social-icons-grid" stroke="none" stroke-width="1" fill="none" fill-rule="evenodd" sketch:type="MSPage">
        <g id="dribbble" sketch:type="MSLayerGroup">
            <rect id="circle" fill="#EB588E" sketch:type="MSShapeGroup" x="0" y="0" width="60" height="60" rx="80"></rect>
            <path d="M11.6817156,30 C11.6817156,26.6723171 12.5006237,23.6034116 14.1384647,20.7931914 C15.7763056,17.9829712 17.9984884,15.7579152 20.8050799,14.1179566 C23.6116714,12.4779981 26.6766141,11.6580311 30,11.6580311 C33.3233859,11.6580311 36.3883286,12.4779981 39.1949201,14.1179566 C42.0015116,15.7579152 44.2236944,17.9829712 45.8615353,20.7931914 C47.4993763,23.6034116 48.3182844,26.6723171 48.3182844,30 C48.3182844,33.3276829 47.4993763,36.3965884 45.8615353,39.2068086 C44.2236944,42.0170288 42.0015116,44.2420848 39.1949201,45.8820434 C36.3883286,47.5220019 33.3233859,48.3419689 30,48.3419689 C26.6766141,48.3419689 23.6116714,47.5220019 20.8050799,45.8820434 C17.9984884,44.2420848 15.7763056,42.0170288 14.1384647,39.2068086 C12.5006237,36.3965884 11.6817156,33.3276829 11.6817156,30 Z M14.3531321,30 C14.3531321,31.974319 14.7029569,33.8570587 15.4026171,35.6482756 C16.1022773,37.4394924 17.0881473,39.0436026 18.3602568,40.4606541 C19.1553252,39.0436026 20.1372199,37.718122 21.3059705,36.4841726 C22.474721,35.2502232 23.6076765,34.2590981 24.7048709,33.5107675 C25.8020653,32.7624369 26.839614,32.1176085 27.8175481,31.576263 C28.7954823,31.0349174 29.5865635,30.6527969 30.1908155,30.4298899 L31.073337,30.1194139 C31.1369425,30.1034919 31.2402998,30.075629 31.3834121,30.0358242 C31.5265244,29.9960193 31.6298818,29.9601955 31.6934872,29.9283517 C31.3595585,29.1481772 30.9381786,28.2645235 30.4293348,27.277364 C25.4840093,28.7581033 20.1332792,29.4984618 14.376984,29.4984618 C14.3610826,29.6099153 14.3531321,29.777093 14.3531321,30 Z M14.6870591,26.7758258 C19.4892723,26.7758258 24.3073145,26.1389582 29.1413304,24.865204 C27.2331662,21.4738334 25.2932284,18.4646342 23.3214588,15.8375162 C21.12707,16.8724415 19.2666379,18.3531585 17.7401065,20.2797118 C16.2135752,22.206265 15.1959029,24.3716147 14.6870591,26.7758258 Z M20.0298921,42.0846826 C22.9557438,44.4729718 26.2790799,45.6670984 30,45.6670984 C32.0989806,45.6670984 34.1343252,45.2531345 36.1060948,44.4251943 C35.4382373,40.5880097 34.3251583,36.6235092 32.7668242,32.5315738 L32.7191203,32.5315738 L32.6714165,32.5554566 C32.4169946,32.6509882 32.0751203,32.7823421 31.6457834,32.9495223 C31.2164464,33.1167026 30.4134394,33.506784 29.2367381,34.1197782 C28.0600369,34.7327724 26.9708095,35.3855616 25.9690233,36.0781655 C24.9672372,36.7707693 23.9257132,37.682286 22.8444201,38.8127429 C21.7631271,39.9431997 20.9442189,41.1214047 20.3876711,42.3473931 L20.0298921,42.0846826 Z M26.2075427,14.810557 C26.223444,14.7946351 26.2393452,14.7866742 26.2552465,14.7866742 C26.2393452,14.7866742 26.223444,14.7946351 26.2075427,14.810557 Z M26.3029504,14.7866742 C28.3860296,17.4934019 30.3418686,20.5344445 32.1705259,23.9098931 C33.2677203,23.495923 34.3012937,23.0142919 35.2712772,22.4649854 C36.2412606,21.9156789 37.0084901,21.426087 37.5729887,20.9961949 C38.1374872,20.5663029 38.6582492,20.1125348 39.1352903,19.6348769 C39.6123313,19.1572191 39.9104775,18.8348049 40.0297378,18.6676247 C40.148998,18.5004444 40.2483801,18.3611297 40.3278869,18.2496762 C37.3861338,15.63848 33.9435393,14.3329016 30,14.3329016 C28.791496,14.3329016 27.5591585,14.4841576 26.3029504,14.7866742 Z M33.3631225,26.2504048 C33.7606567,27.094267 34.1104816,27.8505472 34.4126076,28.5192681 C34.4444103,28.6147997 34.496089,28.7541145 34.5676451,28.9372166 C34.6392013,29.1203188 34.6988305,29.2516727 34.7465346,29.3312824 C35.3189839,29.2516727 35.911301,29.1959468 36.5235036,29.164103 C37.1357063,29.1322591 37.7200728,29.1163374 38.2766207,29.1163374 C38.8331686,29.1163374 39.3817575,29.1282787 39.9224041,29.1521616 C40.4630506,29.1760445 40.9718867,29.2078879 41.4489278,29.2476927 C41.9259688,29.2874975 42.3751757,29.3312821 42.796562,29.3790479 C43.2179482,29.4268137 43.5995753,29.4785592 43.9414547,29.5342859 C44.2833342,29.5900127 44.5735298,29.6377778 44.8120503,29.6775826 C45.0505708,29.7173874 45.2493349,29.7532112 45.4083486,29.7850551 L45.6468679,29.8328206 C45.5991638,26.1389334 44.4145297,22.8749872 42.09293,20.0408841 L42.069078,20.0647668 C41.9259657,20.25583 41.774905,20.4508707 41.6158913,20.6498948 C41.4568776,20.8489188 41.111028,21.2031764 40.5783322,21.7126781 C40.0456364,22.2221798 39.4811463,22.7038109 38.884845,23.1575858 C38.2885437,23.6113608 37.4934872,24.1288156 36.4996517,24.709966 C35.5058162,25.2911164 34.4603169,25.8045908 33.3631225,26.2504048 Z M35.7006119,31.7912079 C37.084031,35.5965486 38.1017033,39.3301846 38.7536594,42.992228 C40.5187112,41.7980834 41.9895657,40.2895034 43.1662669,38.4664427 C44.3429682,36.643382 45.1062224,34.6491904 45.4560525,32.4838083 C42.1167652,31.5284926 38.8649842,31.2976281 35.7006119,31.7912079 Z" id="dribbble-copy-2" fill="#FFFFFF" sketch:type="MSShapeGroup"></path>
        </g>
    </g>
</svg>