<?xml version="1.0" encoding="UTF-8" standalone="no"?>
<svg width="60px" height="60px" viewBox="0 0 60 60" version="1.1" xmlns="http://www.w3.org/2000/svg" xmlns:xlink="http://www.w3.org/1999/xlink" xmlns:sketch="http://www.bohemiancoding.com/sketch/ns">
    <!-- Generator: Sketch 3.3.1 (12005) - http://www.bohemiancoding.com/sketch -->
    <title>ebay</title>
    <desc>Created with Sketch.</desc>
    <defs></defs>
    <g id="Social-icons-grid" stroke="none" stroke-width="1" fill="none" fill-rule="evenodd" sketch:type="MSPage">
        <g id="ebay" sketch:type="MSLayerGroup">
            <rect id="circle" fill="#EFF0EB" sketch:type="MSShapeGroup" x="0" y="0" width="60" height="60" rx="80"></rect>
            <g id="logo" transform="translate(5.000000, 20.000000)" sketch:type="MSShapeGroup">
                <path d="M6.47774133,4.34849223 C2.95345317,4.34849223 0.0166661617,5.83131537 0.0166661617,10.3049251 C0.0166661617,13.8490089 1.99144283,16.08086 6.56874233,16.08086 C11.9564382,16.08086 12.301809,12.5611496 12.301809,12.5611496 L9.69121617,12.5611496 C9.69121617,12.5611496 9.13148317,14.4563783 6.4094905,14.4563783 C4.19250183,14.4563783 2.59795667,12.9711147 2.59795667,10.8893017 L12.5748122,10.8893017 L12.5748122,9.58293322 C12.5748122,7.52336562 11.2564672,4.34849223 6.47774133,4.34849223 L6.47774133,4.34849223 Z M6.38674017,6.01809835 C8.49708383,6.01809835 9.9357815,7.30025488 9.9357815,9.22193719 L2.65569683,9.22193719 C2.65569683,7.18183636 4.53356383,6.01809835 6.38674017,6.01809835 L6.38674017,6.01809835 Z" id="e" fill="#E53238"></path>
                <path d="M12.5729603,0.016540957 L12.5729603,13.8342307 C12.5729603,14.6185666 12.5165142,15.7198641 12.5165142,15.7198641 L15.0064697,15.7198641 C15.0064697,15.7198641 15.0958427,14.9288967 15.0958427,14.2060294 C15.0958427,14.2060294 16.3260415,16.1147033 19.6710433,16.1147033 C23.193465,16.1147033 25.5861117,13.6894117 25.5861117,10.214676 C25.5861117,6.9821795 23.3883883,4.38233554 19.67673,4.38233554 C16.2010242,4.38233554 15.12099,6.24372083 15.12099,6.24372083 L15.12099,0.016540957 L12.5729603,0.016540957 Z M19.034035,6.09142562 C21.4260333,6.09142562 22.9470817,7.85203074 22.9470817,10.214676 C22.9470817,12.7481843 21.1903217,14.4056132 19.0510983,14.4056132 C16.4981227,14.4056132 15.12099,12.4287345 15.12099,10.2372383 C15.12099,8.19519091 16.3567315,6.09142562 19.034035,6.09142562 L19.034035,6.09142562 Z" id="b" fill="#0064D2"></path>
                <path d="M31.7741833,4.34849223 C26.4721583,4.34849223 26.1321183,7.22762876 26.1321183,7.68770463 L28.7711483,7.68770463 C28.7711483,7.68770463 28.9095383,6.00681719 31.5921817,6.00681719 C33.3354067,6.00681719 34.6862183,6.79812479 34.6862183,8.31944744 L34.6862183,8.86094132 L31.5921817,8.86094132 C27.4846283,8.86094132 25.3131083,10.0526322 25.3131083,12.4709007 C25.3131083,14.8508241 27.3195233,16.1457264 30.030945,16.1457264 C33.7261917,16.1457264 34.9165633,14.120765 34.9165633,14.120765 C34.9165633,14.9261838 34.9791767,15.7198641 34.9791767,15.7198641 L37.3252483,15.7198641 C37.3252483,15.7198641 37.2342467,14.7360726 37.2342467,14.1066635 L37.2342467,8.66634198 C37.2342467,5.09919769 34.332995,4.34849223 31.7741833,4.34849223 L31.7741833,4.34849223 Z M34.6862183,10.485423 L34.6862183,11.2074149 C34.6862183,12.1490891 34.1002967,14.4902217 30.65089,14.4902217 C28.7620067,14.4902217 27.95214,13.5553198 27.95214,12.4709007 C27.95214,10.4981283 30.6794367,10.485423 34.6862183,10.485423 L34.6862183,10.485423 Z" id="a" fill="#F5AF02"></path>
                <path d="M35.8131683,4.8001919 L38.7820783,4.8001919 L43.0428767,13.2658688 L47.2939267,4.8001919 L49.9833333,4.8001919 L42.2401183,19.8717669 L39.419085,19.8717669 L41.6534867,15.6703598 L35.8131683,4.8001919 Z" id="y" fill="#86B817"></path>
            </g>
        </g>
    </g>
</svg>