<?xml version="1.0" encoding="UTF-8" standalone="no"?>
<svg width="60px" height="60px" viewBox="0 0 60 60" version="1.1" xmlns="http://www.w3.org/2000/svg" xmlns:xlink="http://www.w3.org/1999/xlink" xmlns:sketch="http://www.bohemiancoding.com/sketch/ns">
    <!-- Generator: Sketch 3.3.1 (12005) - http://www.bohemiancoding.com/sketch -->
    <title>espn</title>
    <desc>Created with Sketch.</desc>
    <defs></defs>
    <g id="Social-icons-grid" stroke="none" stroke-width="1" fill="none" fill-rule="evenodd" sketch:type="MSPage">
        <g id="espn" sketch:type="MSLayerGroup">
            <rect id="circle" fill="#CC0000" sketch:type="MSShapeGroup" x="0" y="0" width="60" height="60" rx="80"></rect>
            <path d="M11.2550109,25.0671986 L19.8600859,25.0671986 L19.4950827,27.8822232 L10.9050079,27.8822232 L11.2550109,25.0671986 Z M10.7500065,28.9172322 L19.3650816,28.9172322 L19.1000793,31.2072521 L13.7150324,31.2072521 L13.5750312,32.3022617 L18.9700782,32.3022617 L18.6350752,34.9172845 L10,34.9172845 L10.7500065,28.9172322 Z M20.0000871,27.8822232 C20.0000871,27.8822232 20.0600877,26.9222148 20.3000898,26.4222104 C20.5250917,25.9522063 20.8250943,25.6122034 21.3300987,25.3272009 C21.6301013,25.1671995 22.165106,25.0671986 22.165106,25.0671986 L37.6652411,25.0671986 C37.6652411,25.0671986 38.3152467,25.0771987 38.5952492,25.1921997 C38.8952518,25.3172008 39.3302556,25.5022024 39.5602576,26.0622073 C39.7852596,26.597212 39.7402592,26.7722135 39.7402592,27.3072181 C39.7402592,27.8322227 39.725259,27.8822232 39.725259,27.8822232 L20.0000871,27.8822232 Z M19.8600859,28.9422324 L27.790155,28.9422324 C27.790155,28.9422324 28.4951612,28.9422324 28.820164,29.1372341 C29.160167,29.3622361 29.3151683,29.6372384 29.4151692,30.0722422 C29.51017,30.507246 29.2451677,32.7022652 29.0901664,33.2372698 C28.9201649,33.7622744 28.7201631,34.2572787 27.900156,34.6672823 C27.1651496,35.0422855 26.0501399,34.9172845 26.0501399,34.9172845 L19.2000802,34.9172845 L19.6050837,32.3022617 L26.0201396,32.3022617 L26.1501407,31.192252 L21.7251022,31.192252 C21.7251022,31.192252 21.0050959,31.2922529 20.33009,30.7072478 C19.9200864,30.3572447 19.8750861,29.8222401 19.8500858,29.587238 C19.8200856,29.4522368 19.8600859,28.9422324 19.8600859,28.9422324 L19.8600859,28.9422324 Z M30.1751758,28.9422324 L39.5302573,28.9422324 C39.5302573,28.9422324 39.4452566,30.0222418 39.1902544,30.4072452 C38.9352522,30.8072486 38.7102502,31.0222505 38.2852465,31.1172513 C37.8502427,31.2172522 37.200237,31.2172522 37.200237,31.2172522 L33.1302016,31.2172522 L32.7051979,34.9172845 L29.4401694,34.9172845 L30.1751758,28.9422324 Z M40.1652629,27.9072234 L49.8853476,27.9072234 C49.8853476,27.9072234 50.0703492,27.057216 49.9703483,26.5222113 C49.8703474,25.9872066 49.6303454,25.6272035 49.2353419,25.3672012 C48.7153374,25.0021981 47.7653291,25.0671986 47.7803292,25.0671986 L40.5602663,25.0671986 L40.1652629,27.9072234 Z M40.0402618,28.9422324 L43.2602898,28.9422324 L42.5252834,34.9172845 L39.3302556,34.9172845 L40.0402618,28.9422324 Z M46.5103182,28.9672326 L49.700346,28.9672326 L48.9653396,34.9172845 L45.7903119,34.9172845 L46.5103182,28.9672326 Z" id="Shape" fill="#FFFFFF" sketch:type="MSShapeGroup"></path>
        </g>
    </g>
</svg>