<?xml version="1.0" encoding="UTF-8" standalone="no"?>
<svg width="60px" height="60px" viewBox="0 0 60 60" version="1.1" xmlns="http://www.w3.org/2000/svg" xmlns:xlink="http://www.w3.org/1999/xlink" xmlns:sketch="http://www.bohemiancoding.com/sketch/ns">
    <!-- Generator: Sketch 3.3.1 (12005) - http://www.bohemiancoding.com/sketch -->
    <title>evernote</title>
    <desc>Created with Sketch.</desc>
    <defs></defs>
    <g id="Social-icons-grid" stroke="none" stroke-width="1" fill="none" fill-rule="evenodd" sketch:type="MSPage">
        <g id="evernote" sketch:type="MSLayerGroup">
            <rect id="circle" fill="#7CBF4A" sketch:type="MSShapeGroup" x="0" y="0" width="60" height="60" rx="80"></rect>
            <path d="M42.0471475,19.8801066 C42.0471475,17.8351066 38.9691475,17.6091066 38.9691475,17.6091066 L31.7351475,17.1531066 C31.7351475,17.1531066 31.5811475,15.1831066 30.1181475,14.5011066 C28.6561475,13.8201066 27.0491475,14.0261066 25.8951475,14.0391066 C24.7411475,14.0511066 24.4651475,15.5251066 24.4651475,16.9161066 C24.4651475,18.3061066 24.4911475,19.9061066 24.4911475,20.9161066 C24.4911475,22.7211066 23.6971475,23.4911066 21.7081475,23.4911066 L17.6061475,23.4911066 C16.4591475,23.4161066 15.5651475,23.6051066 15.5651475,24.5331066 C15.5651475,25.4591066 16.9161475,33.3731066 18.7681475,35.1981066 C19.8441475,36.2581066 26.4201475,37.0001066 27.8051475,37.0001066 C29.1901475,37.0001066 28.7301475,32.9101066 29.1141475,32.9101066 C29.4981475,32.9101066 29.9231475,35.2221066 32.1031475,35.7621066 C34.2851475,36.3061066 37.1971475,36.2051066 37.3521475,37.7581066 C37.5531475,39.8051066 37.7361475,42.4551066 36.3881475,42.6451066 L33.3391475,42.7661066 C31.2481475,42.6141066 31.8091475,40.3301066 32.7321475,40.3301066 C33.6541475,40.3301066 34.1171475,40.2931066 34.1171475,40.2931066 L34.2321475,37.7931066 C34.2321475,37.7931066 29.4451475,37.2291066 29.2401475,40.4591066 C29.0541475,43.4101066 29.5611475,44.8031066 29.9331475,45.1041066 C30.3061475,45.4111066 30.9501475,46.0001066 36.8131475,46.0001066 C45.0751475,45.9991066 42.0471475,21.9231066 42.0471475,19.8801066 L42.0471475,19.8801066 Z M38.6721475,30.5691066 C38.3481475,30.9151066 37.1741475,29.9991066 36.0551475,29.9991066 C34.9331475,29.9991066 33.7231475,30.5931066 33.4381475,30.2041066 C33.1561475,29.8131066 33.7001475,26.6611066 35.8111475,26.6611066 C37.9231475,26.6611066 38.9961475,30.2241066 38.6721475,30.5691066 L38.6721475,30.5691066 Z M21.5391475,19.6281066 C21.5391475,19.2241066 21.6431475,14.3231066 21.6431475,14.3231066 L15.4111475,20.4361066 L20.5601475,20.4361066 C21.4081475,20.4371066 21.5391475,20.0331066 21.5391475,19.6281066 L21.5391475,19.6281066 Z" id="Shape" fill="#FFFFFF" sketch:type="MSShapeGroup"></path>
        </g>
    </g>
</svg>