<?xml version="1.0" encoding="UTF-8" standalone="no"?>
<svg width="42px" height="13px" viewBox="0 0 53 16" version="1.1" xmlns="http://www.w3.org/2000/svg" xmlns:xlink="http://www.w3.org/1999/xlink" xmlns:sketch="http://www.bohemiancoding.com/sketch/ns">
    <!-- Generator: Sketch 3.3.1 (12005) - http://www.bohemiancoding.com/sketch -->
    <title>flickr_logo</title>
    <desc>Created with Sketch.</desc>
    <defs></defs>
    <g id="Page-2" stroke="none" stroke-width="1" fill="none" fill-rule="evenodd" sketch:type="MSPage">
        <g id="search-assist-+-Bitmap" sketch:type="MSLayerGroup" transform="translate(-201.000000, -831.000000)" fill="#FFFFFF">
            <g id="flickr_logo" transform="translate(201.000000, 831.000000)" sketch:type="MSShapeGroup">
                <path d="M2.20594872,7.58728205 L0.0939487179,7.58728205 L0.0939487179,4.98748718 L2.26564103,4.98748718 L2.26564103,4.32717949 C2.26564103,1.12882051 3.72,0.0143589744 6.58892308,0.0143589744 C7.36594872,0.0143589744 7.96348718,0.13825641 8.42174359,0.220717949 L8.20246154,2.77948718 C7.90379487,2.67630769 7.60492308,2.61435897 7.06707692,2.61435897 C6.1505641,2.61435897 5.792,3.27466667 5.792,4.32717949 L5.792,4.98748718 L8.34194872,4.98748718 L8.34194872,7.58728205 L5.792,7.58728205 L5.792,15.7378462 L2.20594872,15.7378462 L2.20594872,7.58728205" id="Fill-1"></path>
                <path d="M10.2145641,0.261948718 L13.8006154,0.261948718 L13.8006154,15.737641 L10.2145641,15.737641 L10.2145641,0.261948718 Z" id="Fill-2"></path>
                <path d="M16.8685128,0.509538462 L20.4545641,0.509538462 L20.4545641,3.23323077 L16.8685128,3.23323077 L16.8685128,0.509538462 Z" id="Fill-3"></path>
                <path d="M16.8685128,4.98748718 L20.4545641,4.98748718 L20.4545641,15.7378462 L16.8685128,15.7378462 L16.8685128,4.98748718 Z" id="Fill-4"></path>
                <path d="M31.2328205,8.06174359 C30.5753846,7.64923077 29.9179487,7.46358974 29.0613333,7.46358974 C27.5072821,7.46358974 26.312,8.57764103 26.312,10.4348718 C26.312,12.1476923 27.7066667,13.2615385 29.2609231,13.2615385 C30.0773333,13.2615385 30.8941538,13.0761026 31.4918974,12.7458462 L31.5716923,15.5107692 C30.6750769,15.8205128 29.5993846,15.985641 28.6430769,15.985641 C25.2162051,15.985641 22.606359,13.9220513 22.606359,10.3729231 C22.606359,6.80328205 25.2162051,4.73969231 28.6430769,4.73969231 C29.7187692,4.73969231 30.6750769,4.92553846 31.4918974,5.33805128 L31.2328205,8.06174359" id="Fill-5"></path>
                <path d="M33.0660513,0.261948718 L36.6518974,0.261948718 L36.6518974,9.50646154 L36.6918974,9.50646154 L39.6802051,4.98748718 L43.6049231,4.98748718 L39.9987692,9.91897436 L43.9037949,15.7378462 L39.5604103,15.7378462 L36.6918974,10.414359 L36.6518974,10.414359 L36.6518974,15.7378462 L33.0660513,15.7378462 L33.0660513,0.261948718" id="Fill-6"></path>
                <path d="M52.6494359,7.9585641 C52.2512821,7.83487179 51.8525128,7.83487179 51.4342564,7.83487179 C49.7608205,7.83487179 48.8244103,9.09353846 48.8244103,11.198359 L48.8244103,15.7378462 L45.238359,15.7378462 L45.238359,4.98748718 L48.505641,4.98748718 L48.505641,6.96841026 L48.545641,6.96841026 C49.1630769,5.60635897 50.0596923,4.73969231 51.6137436,4.73969231 C52.0315897,4.73969231 52.4699487,4.80164103 52.8289231,4.86358974 L52.6494359,7.9585641" id="Fill-7"></path>
            </g>
        </g>
    </g>
</svg>