<?xml version="1.0" encoding="UTF-8" standalone="no"?>
<svg width="60px" height="60px" viewBox="0 0 60 60" version="1.1" xmlns="http://www.w3.org/2000/svg" xmlns:xlink="http://www.w3.org/1999/xlink" xmlns:sketch="http://www.bohemiancoding.com/sketch/ns">
    <!-- Generator: Sketch 3.3.1 (12005) - http://www.bohemiancoding.com/sketch -->
    <title>foxnews</title>
    <desc>Created with Sketch.</desc>
    <defs></defs>
    <g id="Social-icons-grid" stroke="none" stroke-width="1" fill="none" fill-rule="evenodd" sketch:type="MSPage">
        <g id="foxnews" sketch:type="MSLayerGroup">
            <rect id="circle" fill="#305B79" sketch:type="MSShapeGroup" x="0" y="0" width="60" height="60" rx="80"></rect>
            <g id="Group" transform="translate(12.000000, 13.000000)" fill="#FFFFFF" sketch:type="MSShapeGroup">
                <path d="M-2.39808173e-14,0 L0.0400475298,0 L10.2555049,29.441609 L6.0822186,29.441609 L-2.39808173e-14,0.482239005 L-2.39808173e-14,0" id="path10618" transform="translate(5.127752, 14.720805) scale(1, -1) translate(-5.127752, -14.720805) "></path>
                <path d="M0.268367642,0 L18.8871317,29.4382717 L14.1882216,29.4382717 L0.106508876,0 L0.268367642,0" id="path10620" transform="translate(9.496820, 14.719136) scale(1, -1) translate(-9.496820, -14.719136) "></path>
                <path d="M12.5680473,17.7939509 L12.5680473,8.30769231 L18.4900758,8.30769231 L18.6719583,10.9007699 L15.3580252,10.9007699 L15.3580252,12.138906 L18.0578962,12.138906 L18.0578962,14.7269776 L15.3346642,14.7269776 L15.3329955,17.7939509 L12.5680473,17.7939509 Z M35.647356,17.7672526 L32.7038625,12.8447437 L35.3520054,8.30769231 L32.3100618,8.30769231 L31.1703759,10.2783645 L29.992311,8.30769231 L26.9420242,8.30769231 L29.6685935,12.876448 L26.8402367,17.7672526 L29.8337895,17.7639153 L31.1937369,15.4328153 L32.5870572,17.7672526 L35.647356,17.7672526 Z M24.2326428,15.0390146 L24.2509979,11.0058946 C24.2509979,10.5470167 23.843848,10.1348609 23.3766268,10.1348609 C22.907737,10.1348609 22.5306228,10.5470167 22.5306228,11.0058946 L22.5289541,15.0273341 C22.5289541,15.486212 22.907737,15.859989 23.3766268,15.859989 C23.843848,15.859989 24.2326428,15.4978926 24.2326428,15.0390146 Z M18.5325444,13.0900348 C18.5325444,10.4502352 20.7067915,8.30769231 23.389976,8.30769231 C26.0731605,8.30769231 28.2490763,10.4502352 28.2490763,13.0900348 C28.2490763,15.7315032 26.0731605,17.8723774 23.389976,17.8723774 C20.7067915,17.8723774 18.5325444,15.7315032 18.5325444,13.0900348 Z M13.5266272,19.3846154 L19.1416246,19.3846154 L19.1416246,21.4070156 L15.7058803,21.4070156 L15.7058803,22.6801934 L18.5308998,22.6801934 L18.5308998,24.5524154 L15.7058803,24.5524154 L15.7058803,26.0258308 L19.1850095,26.0258308 L19.1850095,28.048231 L13.5266272,28.048231 L13.5266272,19.3846154 Z M19.5976331,19.3846154 L21.825277,19.3846154 L22.8731873,24.440616 L23.8760442,19.3846154 L25.7415917,19.3846154 L26.8011826,24.3905566 L27.8807972,19.3846154 L29.6829361,19.3846154 L27.6521926,28.048231 L25.6665026,28.048231 L24.6402846,23.1173789 L23.6474396,28.048231 L21.6166961,28.048231 L19.5976331,19.3846154 Z M31.28259,24.9821113 C31.4444487,25.7063041 31.9083326,26.0684005 32.7142892,26.0684005 C33.2415816,26.0684005 33.5536186,25.8064229 33.5536186,25.4693562 C33.5536186,24.8336017 33.0263262,24.8569628 32.0368185,24.5582749 C30.346479,24.0593495 29.5288419,23.3585177 29.5288419,21.9368304 C29.5288419,20.2882071 30.7452856,19.0650888 32.7359816,19.0650888 C34.1993851,19.0650888 35.2222657,19.8259918 35.6961615,21.2359986 L33.7905665,21.8734218 C33.5652992,21.2493478 33.1998655,20.9990507 32.5858033,20.9990507 C32.1336,20.9990507 31.821563,21.286058 31.821563,21.6231247 C31.821563,22.1353994 32.3054706,22.1604291 33.1881849,22.4107261 C33.920721,22.6226443 34.5981917,22.7594734 35.1788809,23.2967777 C35.6527767,23.7339633 35.9014051,24.3713865 35.9014051,25.1439701 C35.9014051,25.8681629 35.6427648,26.5556455 35.168869,27.0679201 C34.5548069,27.7287044 33.693785,28.0908008 32.6709043,28.0908008 C30.7769899,28.0908008 29.5388538,27.1179796 29.183432,25.4443265 L31.28259,24.9821113 Z M10.7810661,19.3846154 L10.7810661,23.7397843 L8.17630803,19.3879527 L5.66666283,19.3879527 L5.64497041,28.0098521 L7.86427103,28.0048462 L7.86427103,23.0105855 L10.8378001,28.0098521 L12.9386268,28.0098521 L12.9386268,19.3879527 L10.7810661,19.3846154 Z" id="path10636" stroke="#305B79" stroke-width="0.5"></path>
            </g>
        </g>
    </g>
</svg>