<?xml version="1.0" encoding="UTF-8" standalone="no"?>
<svg width="60px" height="60px" viewBox="0 0 60 60" version="1.1" xmlns="http://www.w3.org/2000/svg" xmlns:xlink="http://www.w3.org/1999/xlink" xmlns:sketch="http://www.bohemiancoding.com/sketch/ns">
    <!-- Generator: Sketch 3.3.2 (12043) - http://www.bohemiancoding.com/sketch -->
    <title>gettyimages</title>
    <desc>Created with Sketch.</desc>
    <defs></defs>
    <g id="Social-icons-grid" stroke="none" stroke-width="1" fill="none" fill-rule="evenodd" sketch:type="MSPage">
        <g id="gettyimages" sketch:type="MSLayerGroup">
            <rect id="Rectangle-9" fill="#1A1919" sketch:type="MSShapeGroup" x="0" y="0" width="60" height="60" rx="80"></rect>
            <path d="M33.8948483,20.8692219 C33.8948483,23.3233141 31.8931069,25.257024 29.4162439,25.257024 C26.6309414,25.257024 24.6883954,23.3233141 24.6883954,20.8692219 C24.6883954,18.4271967 26.6309414,16.4799115 29.4162439,16.4799115 C31.8931069,16.4799115 33.8948483,18.4271967 33.8948483,20.8692219 L33.8948483,20.8692219 Z M17.7547368,40.2636389 C17.6192103,40.6829614 17.4649905,41.3737875 17.5070505,42.1898071 C17.7126768,46.3619145 22.3096722,48.3333333 29.6639302,48.3333333 C38.3827995,48.3333333 42.3255291,44.2607773 42.3255291,40.489892 C42.3255291,29.8967212 24.344127,35.7129346 24.344127,31.4322257 C24.344127,29.8967212 26.606017,29.7941531 29.4411683,29.7941531 C36.3000537,29.7941531 39.759873,26.2389625 39.759873,21.2312269 C39.759873,19.1889155 39.1320895,17.6579361 38.2940063,16.5342123 C39.2894248,15.9188038 40.9780534,15.9188038 42.5,15.9188038 L42.5,11.6758037 C39.3953535,11.5702189 37.3422054,12.3817134 36.0850806,14.0062108 C34.4042409,12.5868496 31.6656717,11.6758037 29.3523751,11.6758037 C22.2458034,11.6758037 18.5663378,16.2461166 18.5663378,20.8888305 C18.5663378,24.1016248 20.3531063,26.1333777 22.616554,27.9162523 C21.3983736,28.2646821 18.3513648,30.2014087 18.3513648,32.7460021 C18.3513648,36.1956079 23.150871,37.5274846 29.1576532,37.8849645 C34.0350481,38.1821103 36.415329,39.37371 36.415329,41.2048519 C36.415329,42.3934349 34.9074024,44.0480993 30.7107553,44.1597175 C23.9095076,44.3422284 23.1711221,42.3904182 23.6057414,40.3722404 L17.7547368,40.2636389 L17.7547368,40.2636389 Z" id="Fill-11" fill="#FFFFFF" sketch:type="MSShapeGroup"></path>
        </g>
    </g>
</svg>