<?xml version="1.0" encoding="UTF-8" standalone="no"?>
<svg width="60px" height="60px" viewBox="0 0 60 60" version="1.1" xmlns="http://www.w3.org/2000/svg" xmlns:xlink="http://www.w3.org/1999/xlink" xmlns:sketch="http://www.bohemiancoding.com/sketch/ns">
    <!-- Generator: Sketch 3.3.2 (12043) - http://www.bohemiancoding.com/sketch -->
    <title>github</title>
    <desc>Created with Sketch.</desc>
    <defs>
        <filter x="-50%" y="-50%" width="200%" height="200%" filterUnits="objectBoundingBox" id="filter-1">
            <feOffset dx="1" dy="0" in="SourceAlpha" result="shadowOffsetInner1"></feOffset>
            <feGaussianBlur stdDeviation="1" in="shadowOffsetInner1" result="shadowBlurInner1"></feGaussianBlur>
            <feComposite in="shadowBlurInner1" in2="SourceAlpha" operator="arithmetic" k2="-1" k3="1" result="shadowInnerInner1"></feComposite>
            <feColorMatrix values="0 0 0 0 0   0 0 0 0 0   0 0 0 0 0  0 0 0 0.0876981431 0" in="shadowInnerInner1" type="matrix" result="shadowMatrixInner1"></feColorMatrix>
            <feMerge>
                <feMergeNode in="SourceGraphic"></feMergeNode>
                <feMergeNode in="shadowMatrixInner1"></feMergeNode>
            </feMerge>
        </filter>
        <rect id="path-2" x="0" y="0" width="60" height="60" rx="80"></rect>
    </defs>
    <g id="Social-icons-grid" stroke="none" stroke-width="1" fill="none" fill-rule="evenodd" sketch:type="MSPage">
        <g id="github" sketch:type="MSLayerGroup">
            <mask id="mask-3" sketch:name="Mask" fill="white">
                <use xlink:href="#path-2"></use>
            </mask>
            <use id="Mask" fill="#FFFFFF" filter="url(#filter-1)" sketch:type="MSShapeGroup" xlink:href="#path-2"></use>
            <path d="M3.9964277,0 C1.78926166,0 4.82643756e-08,1.79568082 4.82643756e-08,4.0065556 L4.82643756e-08,55.9934444 C4.82643756e-08,58.206204 1.78934524,60 4.00704425,60 L20.6666667,60 C22.3888889,60 23.3179546,57.6332027 23.3179546,56.8433336 C23.3179546,56.130223 23.2892072,53.774482 23.27586,51.2756236 C14.6515584,53.0846465 12.8317284,47.7472117 12.8317284,47.7472117 C11.4215522,44.2906062 9.38970796,43.3714858 9.38970796,43.3714858 C6.57705644,41.5154174 9.60172213,41.553549 9.60172213,41.553549 C12.7146844,41.7645109 14.3538146,44.6352763 14.3538146,44.6352763 C17.1187253,49.2071077 21.6059288,47.8853769 23.3749369,47.1212591 C23.6531731,45.1884323 24.4565682,43.8691776 25.343126,43.1223923 C18.4575447,42.366198 11.2192918,39.8019711 11.2192918,28.3431752 C11.2192918,25.0782181 12.4302878,22.4104911 14.4133639,20.3162239 C14.0914926,19.5630008 13.0303953,16.5213861 14.7136738,12.4021818 C14.7136738,12.4021818 17.3168781,11.5984468 23.2409523,15.467567 C25.7137655,14.8049684 28.3657379,14.4726788 31.0002566,14.4612887 C33.6347752,14.4726788 36.2888015,14.8049684 38.7662345,15.467567 C44.6831218,11.5984468 47.2827327,12.4021818 47.2827327,12.4021818 C48.9701178,16.5213861 47.9085073,19.5630008 47.5866361,20.3162239 C49.5743328,22.4104911 50.7771147,25.0782181 50.7771147,28.3431752 C50.7771147,39.829208 43.5250006,42.3582745 36.6219662,43.098622 C37.7338854,44.0266562 38.7246532,45.8465739 38.7246532,48.6366192 C38.7246532,52.637962 38.688719,55.8583496 38.688719,56.8433336 C38.688719,57.6391453 38.6887206,60 41.3333333,60 L57.9945866,60 C60.2067153,60 62,58.2043192 62,55.9934444 L62,4.0065556 C62,1.79379604 60.2113247,0 58.0035723,0 L3.9964277,0 Z M11.7413705,42.9371818 C11.6730948,43.0857464 11.4307927,43.1303158 11.2100521,43.0283014 C10.9852039,42.9307439 10.8589194,42.7282007 10.931815,42.5791408 C10.9985511,42.4261191 11.2413664,42.3835306 11.4657005,42.4860402 C11.6910619,42.5835978 11.8194001,42.7881218 11.7413705,42.9371818 L11.7413705,42.9371818 L11.7413705,42.9371818 Z M12.9970273,44.2881301 C12.8491822,44.4203527 12.5601658,44.358946 12.3640658,44.1499649 C12.1612914,43.9414791 12.1233035,43.6626727 12.2732022,43.5284693 C12.4256671,43.3962467 12.7059571,43.4581486 12.9092447,43.6666344 C13.1120183,43.8775963 13.1515459,44.1544218 12.9970273,44.2881301 L12.9970273,44.2881301 L12.9970273,44.2881301 Z M14.2193168,46.0104903 C14.0293772,46.1377607 13.7187994,46.0184137 13.5268061,45.7524829 C13.3368665,45.4865521 13.3368665,45.1676332 13.5309127,45.0398676 C13.7234193,44.9121018 14.0293772,45.0269919 14.2239367,45.2909418 C14.4133639,45.5613297 14.4133639,45.8802486 14.2193168,46.0104903 L14.2193168,46.0104903 L14.2193168,46.0104903 Z M15.8938688,47.674415 C15.7239492,47.8551687 15.3620371,47.8066377 15.0971472,47.5600202 C14.8260979,47.3188502 14.7506353,46.9766561 14.9210681,46.7959024 C15.0930406,46.6146534 15.4570064,46.6656607 15.7239492,46.9102972 C15.9929456,47.1509721 16.0750818,47.4956422 15.8938688,47.674415 L15.8938688,47.674415 L15.8938688,47.674415 Z M18.2039492,48.6405809 C18.1289998,48.8748179 17.7804349,48.9812892 17.4293022,48.8817509 C17.0786836,48.7792412 16.8492156,48.5048918 16.9200583,48.2681787 C16.992954,48.032456 17.3430593,47.9215277 17.6967582,48.0279991 C18.0468644,48.1300134 18.2768457,48.4023822 18.2039492,48.6405809 L18.2039492,48.6405809 L18.2039492,48.6405809 Z M20.7409315,48.8198489 C20.7496588,49.0664664 20.451915,49.2709904 20.0833285,49.2754473 C19.712689,49.2833708 19.4128915,49.0837989 19.4087848,48.8411432 C19.4087848,48.5920497 19.699855,48.3895065 20.0704945,48.3835639 C20.439081,48.3766309 20.7409315,48.5747172 20.7409315,48.8198489 L20.7409315,48.8198489 L20.7409315,48.8198489 Z M23.1018338,48.432095 C23.1459821,48.6727698 22.8898196,48.9198825 22.5238,48.9857462 C22.1639408,49.0491337 21.8307761,48.9005691 21.7850881,48.6618752 C21.7404266,48.4152577 22.0012089,48.1681451 22.3605549,48.1042622 C22.7270877,48.0428555 23.0551193,48.1874585 23.1018338,48.432095 L23.1018338,48.432095 L23.1018338,48.432095 Z" id="Mask" fill="#161614" sketch:type="MSShapeGroup" mask="url(#mask-3)"></path>
        </g>
    </g>
</svg>