<?xml version="1.0" encoding="UTF-8" standalone="no"?>
<svg width="60px" height="60px" viewBox="0 0 60 60" version="1.1" xmlns="http://www.w3.org/2000/svg" xmlns:xlink="http://www.w3.org/1999/xlink" xmlns:sketch="http://www.bohemiancoding.com/sketch/ns">
    <!-- Generator: Sketch 3.3.1 (12005) - http://www.bohemiancoding.com/sketch -->
    <title>google</title>
    <desc>Created with Sketch.</desc>
    <defs></defs>
    <g id="Social-icons-grid" stroke="none" stroke-width="1" fill="none" fill-rule="evenodd" sketch:type="MSPage">
        <g id="google" sketch:type="MSLayerGroup">
            <rect id="circle" fill="#4585F3" sketch:type="MSShapeGroup" x="0" y="0" width="60" height="60" rx="80"></rect>
            <path d="M30.098794,17.2425244 C24.838262,17.2425244 21.9924005,20.5731042 21.9924005,24.2917562 C21.9924005,27.1227491 24.0204857,30.3165373 28.2045267,30.3165373 L29.2631753,30.3165373 C29.2631753,30.3165373 28.9747233,31.0168511 28.9732364,31.6933752 C28.9732364,32.6910623 29.3315711,33.2516108 30.0928465,34.1139931 C22.8934413,34.5526185 20,37.4564679 20,40.5773996 C20,43.3102594 22.6168842,46 28.1168016,46 C34.6277879,46 38,42.3854287 38,38.8377664 C38,36.3368578 36.7540063,34.9659673 33.5988766,32.6018503 C32.6710722,31.8807203 32.4911614,31.4212787 32.4911614,30.8815463 C32.4911614,30.108376 32.9535767,29.5968941 33.1230795,29.4036015 C33.4219395,29.0883859 33.9393689,28.7285643 34.1326615,28.5560879 C35.192797,27.6580208 36.690071,26.3287626 36.690071,23.6761936 C36.690071,21.8562696 35.9332562,20.2905997 34.2084917,18.8245498 L36.3138939,18.8245498 L37.8959194,17.2425244 L30.1002809,17.2425244 L30.098794,17.2425244 Z M28.6476128,18.4260697 C29.6021807,18.4260697 30.3991409,18.7635883 31.2407071,19.4639022 C32.1744589,20.3054684 33.6657856,22.5669916 33.6657856,25.3652734 C33.6657856,28.3850983 31.319511,29.2117958 30.0497274,29.2117958 C29.4282174,29.2117958 28.6832975,29.0378325 28.0528663,28.6066413 C26.6522386,27.6981662 25.2620188,25.2805221 25.2620188,22.4034363 C25.2620188,19.8073682 26.8083595,18.4260697 28.6476128,18.4260697 L28.6476128,18.4260697 Z M30.730712,35.2603668 C31.1321659,35.2603668 31.4206179,35.2930778 31.4206179,35.2930778 C31.4206179,35.2930778 32.3677515,35.9696019 33.0294069,36.4751363 C34.5698001,37.6928796 35.5303155,38.6236577 35.5303155,40.2815133 C35.5303155,42.5608789 33.4159921,44.3480919 29.9917396,44.3480919 C26.2329423,44.3480919 23.3603172,42.5980506 23.3603172,39.7402941 C23.3603172,37.3732034 25.3289278,35.3361969 30.730712,35.2603668 L30.730712,35.2603668 Z" id="path4429" fill="#FFFFFF" sketch:type="MSShapeGroup"></path>
        </g>
    </g>
</svg>