<?xml version="1.0" encoding="UTF-8" standalone="no"?>
<svg width="60px" height="60px" viewBox="0 0 60 60" version="1.1" xmlns="http://www.w3.org/2000/svg" xmlns:xlink="http://www.w3.org/1999/xlink" xmlns:sketch="http://www.bohemiancoding.com/sketch/ns">
    <!-- Generator: Sketch 3.3.2 (12043) - http://www.bohemiancoding.com/sketch -->
    <title>googledocs</title>
    <desc>Created with Sketch.</desc>
    <defs>
        <linearGradient x1="50%" y1="0%" x2="50%" y2="100%" id="linearGradient-1">
            <stop stop-color="#4989F9" offset="0%"></stop>
            <stop stop-color="#2B71E9" offset="100%"></stop>
        </linearGradient>
    </defs>
    <g id="Social-icons-grid" stroke="none" stroke-width="1" fill="none" fill-rule="evenodd" sketch:type="MSPage">
        <g id="googledocs" sketch:type="MSLayerGroup">
            <rect id="Rectangle-1" fill="#F2F3F4" sketch:type="MSShapeGroup" x="0" y="0" width="60" height="60" rx="80"></rect>
            <g id="Group" transform="translate(15.000000, 12.000000)" sketch:type="MSShapeGroup">
                <path d="M0,2.8851766 C0,1.29173756 1.28219061,0 2.88099397,0 L21.5277778,0 L30.7539683,9 L30.7539683,33.110527 C30.7539683,34.7063389 29.4716628,36 27.8745317,36 L2.8794366,36 C1.28916768,36 0,34.7187409 0,33.1148234 L0,2.8851766 Z" id="Rectangle-47" fill="url(#linearGradient-1)"></path>
                <path d="M4.92063492,11.4 L25.8333333,11.4 L25.8333333,13.8 L4.92063492,13.8 L4.92063492,11.4 Z M4.92063492,16.2 L25.8333333,16.2 L25.8333333,18.6 L4.92063492,18.6 L4.92063492,16.2 Z M4.92063492,21 L25.8333333,21 L25.8333333,23.4 L4.92063492,23.4 L4.92063492,21 Z M4.92063492,25.8 L16.6071429,25.8 L16.6071429,28.2 L4.92063492,28.2 L4.92063492,25.8 Z" id="Rectangle-50" fill="#EBF2FE"></path>
                <path d="M21.5277778,0 L30.7539683,9 L21.5277778,9 L21.5277778,0 Z" id="Rectangle-48" fill="#A0C3FF"></path>
                <path d="M21.5277778,9 L30.7539683,18 L30.7539683,9 L21.5277778,9 Z" id="Rectangle-48" opacity="0.416977612" fill="#05317A"></path>
            </g>
        </g>
    </g>
</svg>