<?xml version="1.0" encoding="UTF-8" standalone="no"?>
<svg width="60px" height="60px" viewBox="0 0 60 60" version="1.1" xmlns="http://www.w3.org/2000/svg" xmlns:xlink="http://www.w3.org/1999/xlink" xmlns:sketch="http://www.bohemiancoding.com/sketch/ns">
    <!-- Generator: Sketch 3.3.2 (12043) - http://www.bohemiancoding.com/sketch -->
    <title>google-sheets</title>
    <desc>Created with Sketch.</desc>
    <defs>
        <linearGradient x1="50%" y1="0%" x2="50%" y2="100%" id="linearGradient-1">
            <stop stop-color="#0AA25A" offset="0%"></stop>
            <stop stop-color="#05954F" offset="100%"></stop>
        </linearGradient>
    </defs>
    <g id="Social-icons-grid" stroke="none" stroke-width="1" fill="none" fill-rule="evenodd" sketch:type="MSPage">
        <g id="google-sheets" sketch:type="MSLayerGroup">
            <rect id="Rectangle-1" fill="#F2F3F4" sketch:type="MSShapeGroup" x="0" y="0" width="60" height="60" rx="80"></rect>
            <g id="Group" transform="translate(16.000000, 12.000000)" sketch:type="MSShapeGroup">
                <path d="M0,2.8050328 C0,1.25585596 1.25977769,0 2.80022621,0 L20.1388889,0 L28.7698413,8.75 L28.7698413,32.1907902 C28.7698413,33.7422739 27.5151378,35 25.9720187,35 L2.79782256,35 C1.25262783,35 0,33.7543315 0,32.1949672 L0,2.8050328 Z" id="Rectangle-47" fill="url(#linearGradient-1)"></path>
                <path d="M4.6031746,11.0833333 L24.1666667,11.0833333 L24.1666667,26.25 L4.6031746,26.25 L4.6031746,11.0833333 Z M5.75396825,12.25 L10.3571429,12.25 L10.3571429,15.75 L5.75396825,15.75 L5.75396825,12.25 Z M11.5079365,12.25 L23.012642,12.25 L23.012642,15.75 L11.5079365,15.75 L11.5079365,12.25 Z M5.75396825,16.9166667 L10.3571429,16.9166667 L10.3571429,20.4166667 L5.75396825,20.4166667 L5.75396825,16.9166667 Z M11.5079365,16.9166667 L23.012642,16.9166667 L23.012642,20.4166667 L11.5079365,20.4166667 L11.5079365,16.9166667 Z M5.75396825,21.5833333 L10.3571429,21.5833333 L10.3571429,25.0833333 L5.75396825,25.0833333 L5.75396825,21.5833333 Z M11.5079365,21.5833333 L23.012642,21.5833333 L23.012642,25.0833333 L11.5079365,25.0833333 L11.5079365,21.5833333 Z" id="Rectangle-57" fill="#E6F5EE"></path>
                <path d="M20.1388889,0 L28.7698413,8.75 L20.1388889,8.75 L20.1388889,0 Z" id="Rectangle-48" fill="#7BCFA9"></path>
                <path d="M20.1388889,8.75 L28.7698413,17.5 L28.7698413,8.75 L20.1388889,8.75 Z" id="Rectangle-48" opacity="0.416977612" fill="#0C6119"></path>
            </g>
        </g>
    </g>
</svg>