<?xml version="1.0" encoding="UTF-8" standalone="no"?>
<svg width="60px" height="60px" viewBox="0 0 60 60" version="1.1" xmlns="http://www.w3.org/2000/svg" xmlns:xlink="http://www.w3.org/1999/xlink" xmlns:sketch="http://www.bohemiancoding.com/sketch/ns">
    <!-- Generator: Sketch 3.3.2 (12043) - http://www.bohemiancoding.com/sketch -->
    <title>grooveshark</title>
    <desc>Created with Sketch.</desc>
    <defs>
        <linearGradient x1="50%" y1="0%" x2="50%" y2="100%" id="linearGradient-1">
            <stop stop-color="#FE9B00" offset="0%"></stop>
            <stop stop-color="#FF1E00" offset="100%"></stop>
        </linearGradient>
        <linearGradient x1="50%" y1="0%" x2="50%" y2="100%" id="linearGradient-2">
            <stop stop-color="#FF9E00" offset="0%"></stop>
            <stop stop-color="#FF6200" offset="100%"></stop>
        </linearGradient>
    </defs>
    <g id="Social-icons-grid" stroke="none" stroke-width="1" fill="none" fill-rule="evenodd" sketch:type="MSPage">
        <g id="grooveshark" sketch:type="MSLayerGroup">
            <rect id="Path" fill="url(#linearGradient-2)" sketch:type="MSShapeGroup" x="0" y="0" width="60" height="60" rx="80"></rect>
            <path d="M30,50 C18.9543183,50 10,41.0455818 10,30 C10,18.9542383 18.9543183,10 30,10 C41.0457817,10 50,18.9542383 50,30 C50,41.0455818 41.0457817,50 30,50 Z M44.6143543,33.8232707 C44.9298281,32.5773691 45.0863655,31.2932827 45.0781687,30.0077969 C45.0587765,27.5877249 44.2820872,24.9182527 41.2441024,26.1991403 C39.8086765,26.8044582 38.6119552,28.0345862 37.719912,29.2808876 C36.6963215,30.7117153 35.6477409,32.1177529 34.5005998,33.4514194 C33.4220312,34.7039184 32.2746901,35.9044382 31.0287885,36.9890044 C29.7854458,38.0723711 28.4321671,39.1023591 26.9420432,39.8178729 C25.9429228,40.2994802 24.9138745,40.6617353 23.8488405,40.9670132 C23.7281887,41.0005998 23.4029188,41.1481407 23.3068573,40.9998001 C23.2478209,40.9080368 23.2931228,40.7365054 23.3053778,40.6347461 C23.3316273,40.4140344 23.357617,40.1937225 23.385046,39.9736106 C23.7034986,37.3312675 23.8242303,34.5421831 23.0035586,31.9764094 C22.5630948,30.5935626 21.7602159,29.3296881 20.6897841,28.3502399 C19.8019392,27.5393842 18.5353459,26.7180728 17.2769292,26.7767293 C17.0452219,26.7864854 16.8118752,26.8264694 16.5812675,26.9029988 C15.2337665,27.3572771 15.1555978,28.8112955 15.1487205,30.0077969 C15.1377049,31.2932827 15.2941224,32.5773691 15.612515,33.8232707 C15.7085766,34.207517 15.8292283,34.5831667 15.9569172,34.9592163 C17.4295282,39.2267093 20.8352659,42.702519 25.1141943,44.2177129 C26.7171331,44.7856857 28.4130948,45.0723711 30.1119552,45.0723711 C35.1153539,45.0723711 39.8744502,42.5007997 42.6245502,38.3230708 C43.3134746,37.2758896 43.865054,36.1417433 44.2712915,34.9592163 L44.2658936,34.9592163 C44.3948421,34.5831667 44.5153938,34.207517 44.6143543,33.8232707 L44.6143543,33.8232707 Z" id="path22" fill="#FFFFFF" sketch:type="MSShapeGroup" transform="translate(30.000000, 30.000000) scale(1, -1) translate(-30.000000, -30.000000) "></path>
        </g>
    </g>
</svg>