<?xml version="1.0" encoding="UTF-8" standalone="no"?>
<svg width="60px" height="60px" viewBox="0 0 60 60" version="1.1" xmlns="http://www.w3.org/2000/svg" xmlns:xlink="http://www.w3.org/1999/xlink" xmlns:sketch="http://www.bohemiancoding.com/sketch/ns">
    <!-- Generator: Sketch 3.3.1 (12005) - http://www.bohemiancoding.com/sketch -->
    <title>homedepot</title>
    <desc>Created with Sketch.</desc>
    <defs></defs>
    <g id="Social-icons-grid" stroke="none" stroke-width="1" fill="none" fill-rule="evenodd" sketch:type="MSPage">
        <g id="homedepot" sketch:type="MSLayerGroup">
            <rect id="circle" fill="#F17028" sketch:type="MSShapeGroup" x="0" y="0" width="60" height="60" rx="80"></rect>
            <g id="Group" transform="translate(8.000000, 8.789030)" sketch:type="MSShapeGroup">
                <path id="path273720" fill="#221E1F" transform="translate(1.474835, 13.793397) scale(1, -1) translate(-1.474835, -13.793397) " d="M0,13.7383966 L2.94967089,13.7383966"></path>
                <path d="M10.9179158,25.0632911 L9.4783804,25.0632911 C9.48251361,25.0709671 9.48605635,25.0780526 9.49018955,25.0857285 C9.78837059,25.6572914 9.70157334,25.7210608 9.23983558,26.1827986 L2.69225237,32.7292008 C2.22933369,33.19271 2.16792611,33.2800977 1.59400142,32.9813262 C1.58868731,32.9783739 1.58337319,32.9754216 1.57805907,32.9730598 L1.57805907,34.4131856 L4.58525911,37.4197952 C4.63485754,37.4688032 5.07120563,37.8567338 5.43256562,37.4953738 C5.60675059,37.3194174 5.60911242,37.095634 5.49633503,36.8836598 C5.19638262,36.3085542 5.28377033,36.2471466 5.74727947,35.7836375 L12.2936818,29.2384161 C12.75601,28.7743165 12.818008,28.6875193 13.3925232,28.9868812 C13.6044974,29.0990681 13.8294617,29.0990681 14.0036467,28.9237023 C14.3655971,28.5611614 13.9788475,28.1254037 13.9298395,28.0758053 L10.9179158,25.0632911 L10.9179158,25.0632911 Z M10.9657428,33.8823643 L9.8674919,32.7847039 L9.14536238,33.5086047 L10.2412515,34.6062652 L7.40351275,37.4422326 C6.94295591,37.9039704 6.87977695,37.9907676 6.30585226,37.693177 C6.09505894,37.5803997 5.86832326,37.5815806 5.69472875,37.7569464 C5.33277831,38.1183064 5.71952797,38.5528832 5.76971686,38.604253 L9.29770041,42.1316461 C9.34729884,42.1818349 9.78246602,42.5674037 10.1450069,42.2072246 C10.3203728,42.0312683 10.3215537,41.8068944 10.2093668,41.5955106 C9.90941438,41.021586 9.99739255,40.9595879 10.4591303,40.4978502 L17.0055326,33.950267 C17.4672704,33.4867578 17.5298589,33.3993701 18.104374,33.7005034 C18.3169387,33.8115094 18.5401316,33.8103285 18.716088,33.6361436 C19.0768575,33.2736027 18.6918792,32.8372546 18.6428712,32.7870657 L15.1137068,29.2596726 C15.0635179,29.2100742 14.6265793,28.8245054 14.2646289,29.1846845 C14.0910344,29.3612313 14.0904439,29.5850147 14.2014499,29.7975794 C14.5019928,30.3709136 14.4140146,30.4335021 13.9522769,30.8958303 L10.9657428,33.8823643 Z" id="path274876" fill="#FFFFFF" transform="translate(10.223450, 33.711348) scale(1, -1) translate(-10.223450, -33.711348) "></path>
                <path d="M36.9364238,9.25180878 C37.3231734,9.91253072 37.0716385,10.6364316 36.7085072,11.2239368 C36.5614832,11.4973186 36.4351253,11.7736528 36.6955171,12.0352254 C37.0822668,12.4196133 37.4719687,11.909458 37.5711656,11.8090802 L40.2689659,9.11127989 C40.3681627,9.01208303 40.8806799,8.62297154 40.4957016,8.2374028 C40.232948,7.97464921 39.9583852,8.10218803 39.6826416,8.25098332 C39.0951364,8.61293376 38.3718259,8.86210683 37.711104,8.47830945 L36.9364238,9.25180878 L36.9364238,9.25180878 Z M43.9150409,8.00712437 L43.9150409,5.88561058 L42.1076505,4.080582 L41.3837496,4.80389244 C42.2694359,5.93934221 42.3544618,7.3995436 41.691378,8.73456801 C41.5915907,9.0097212 41.4664137,9.2848744 41.6907875,9.50806733 C42.0905273,9.9072166 42.4264976,9.49448681 42.4755056,9.44429792 L43.9150409,8.00712437 L43.9150409,8.00712437 Z M34.5651464,15.2260578 L36.5225131,15.2260578 L38.078959,13.6690213 C38.1409571,13.6070233 38.3676927,13.3554884 37.9927522,12.9835002 C37.7795971,12.770345 37.592422,12.8329335 37.343249,12.9569296 C36.0082246,13.6471744 34.7588165,13.6211943 33.4875615,12.6994901 L32.7624797,13.423391 L34.5651464,15.2260578 L34.5651464,15.2260578 Z M28.9115159,9.57183674 L32.2009546,12.8624564 L41.5478968,3.51964738 L38.2566867,0.227256368 C38.2064978,0.177657938 37.7689688,-0.208501267 37.4076088,0.152858723 C37.2328334,0.3282246 37.2328334,0.553779364 37.3444299,0.764572691 C37.6432014,1.33849738 37.557585,1.40108588 37.0946664,1.86459501 L30.5459023,8.4109973 C30.083574,8.87155415 30.0221665,8.96012277 29.4470608,8.66076082 C29.2356771,8.5485739 29.0107128,8.5485739 28.8365278,8.72393977 C28.4745773,9.08470931 28.8619175,9.52282877 28.9115159,9.57183674 L28.9115159,9.57183674 Z" id="path274880" fill="#FFFFFF" transform="translate(36.299293, 7.613029) scale(1, -1) translate(-36.299293, -7.613029) "></path>
                <path d="M25.3487104,37.0956081 L23.8052545,35.5527426 L22.9845186,35.5527426 C23.0063656,35.6017506 23.0329361,35.6519395 23.0583258,35.7050807 C23.1504372,35.8792656 22.9467293,36.0569933 22.8416279,36.1615043 L19.1607159,39.8430068 C19.055024,39.9475178 18.8802485,40.1512256 18.7048827,40.0597047 C18.5153458,39.9687742 18.360646,39.8559969 18.1840992,40.0313627 C18.0022382,40.2138141 18.1563477,40.4116174 18.297467,40.5509653 L20.0954101,42.3489084" id="path274884" fill="#FFFFFF" transform="translate(21.724988, 38.950826) scale(1, -1) translate(-21.724988, -38.950826) "></path>
                <path d="M35.7383966,19.5973752 L36.7498503,20.6082385 L37.1578565,20.2014133 C37.0515741,19.5755283 37.4170673,19.0145937 37.7258766,18.5788361 C37.85932,18.4034702 38.0063439,18.1855914 37.8097215,17.9895595 C37.5995187,17.7787661 37.4034868,17.9322851 37.3745544,17.9612175 L35.7383966,19.5973752 L35.7383966,19.5973752 Z M41.7510253,22.337098 C41.7787768,22.3081656 41.9334767,22.1121337 41.7220929,21.9019309 C41.5254706,21.7053085 41.3075918,21.8523324 41.1334068,21.9869567 C40.6970587,22.2945851 40.1349432,22.6594878 39.5102391,22.5537959 L39.102233,22.9612116 L40.1136867,23.9732558 L41.7510253,22.337098 L41.7510253,22.337098 Z M37.0651546,20.9247237 L38.7869287,22.6459073 L43.2537397,18.1785059 C43.5129505,17.9187046 43.5489684,17.8691061 43.8701773,18.0373865 L43.8701773,17.2213743 L42.1861925,15.5379799 C42.1578506,15.509638 41.9122202,15.2911687 41.7085124,15.4960575 C41.6104964,15.5940734 41.609906,15.7198408 41.6730849,15.8391133 C41.8419558,16.1620935 41.7923574,16.197521 41.533737,16.4573223 L37.0651546,20.9247237 Z" id="path274888" fill="#FFFFFF" transform="translate(39.804287, 19.691269) scale(1, -1) translate(-39.804287, -19.691269) "></path>
                <path d="M41.7705246,40.3549665 C41.9470714,40.3549665 42.1041331,40.3673661 42.1041331,40.5781595 C42.1041331,40.7476208 41.9500237,40.7795055 41.8047711,40.7795055 L41.521942,40.7795055 L41.521942,40.3549665 L41.7705246,40.3549665 L41.7705246,40.3549665 Z M41.521942,39.583829 L41.3146914,39.583829 L41.3146914,40.9560522 L41.8372463,40.9560522 C42.160817,40.9560522 42.320831,40.8367798 42.320831,40.5657598 C42.320831,40.32072 42.1667216,40.2126663 41.965966,40.187867 L42.3562584,39.583829 L42.1230277,39.583829 L41.7610773,40.1784197 L41.521942,40.1784197 L41.521942,39.583829 L41.521942,39.583829 Z M41.7734769,39.2785625 C42.3119741,39.2785625 42.7371035,39.7001492 42.7371035,40.2734834 C42.7371035,40.8367798 42.3119741,41.2607283 41.7734769,41.2607283 C41.2290751,41.2607283 40.8045361,40.8367798 40.8051266,40.2734834 C40.8051266,39.7001492 41.2290751,39.2785625 41.7734769,39.2785625 L41.7734769,39.2785625 Z M40.5654008,40.2734834 C40.5654008,40.9560522 41.11925,41.459122 41.7734769,41.459122 C42.4212088,41.459122 42.9756484,40.9560522 42.9756484,40.2734834 C42.9756484,39.583829 42.4212088,39.0801688 41.7734769,39.0801688 C41.11925,39.0801688 40.5654008,39.583829 40.5654008,40.2734834 L40.5654008,40.2734834 Z" id="path274892" fill="#FFFFFF" transform="translate(41.770525, 40.269645) scale(1, -1) translate(-41.770525, -40.269645) "></path>
                <path d="M23.1263303,21.2600222 C23.4994995,22.0577303 23.1747479,22.4840406 22.8612149,22.7958022 L16.3909817,29.2683973 C16.0780392,29.5795684 15.6529098,29.90432 14.8563826,29.5305604 L14.1313008,30.2544613 C17.0103716,32.6605756 20.3818839,31.758947 22.86771,29.273121 C25.353536,26.7867044 26.2557551,23.4169635 23.8502312,20.5361213 L23.1263303,21.2600222 L23.1263303,21.2600222 Z M14.2942671,28.9696258 C13.919917,28.1719177 14.2452591,27.7473788 14.5582016,27.4356172 L21.0296158,20.964203 C21.3419678,20.6512606 21.7670972,20.3265089 22.5642148,20.7002685 L23.2892966,19.9751867 C20.4090449,17.5696629 17.039304,18.4712915 14.552297,20.957708 C12.0670614,23.444715 11.1642519,26.8150464 13.5697757,29.6947076 L14.2942671,28.9696258 Z" id="path274896" fill="#FFFFFF" transform="translate(18.710090, 25.115077) scale(1, -1) translate(-18.710090, -25.115077) "></path>
                <path d="M36.9754013,13.4207895 C36.799445,13.5937936 36.5756616,13.5961554 36.3630969,13.4827876 C35.7891722,13.1840161 35.7283551,13.2714038 35.2648459,13.7343225 L28.7172627,20.2801343 C28.254344,20.7424625 28.1663659,20.8044606 28.4674992,21.3795662 C28.5779147,21.59095 28.5779147,21.8165047 28.4037298,21.9912801 C28.0417793,22.3532306 27.6054312,21.9664809 27.5564233,21.9168825 L24.2646227,18.6262629 L26.9529757,13.643392 L26.9269956,13.6197737 L21.759902,16.1197708 L18.5944594,12.9549186 C18.4456641,12.8055328 18.0695426,12.4317732 18.4562923,12.0438427 C18.7556543,11.7432998 19.1187856,12.0550613 19.2799805,12.1932284 C19.5049448,12.3916221 19.7057004,12.2918348 20.0038814,12.2162562 C20.2660445,12.1542582 20.5158081,12.0284908 20.766162,11.9021329 L31.102711,6.77637131 L31.4634805,7.13714084 L26.407393,16.4823117 L32.2092284,10.6804763 C32.6715566,10.2175576 32.7595348,10.1543787 32.4595823,9.58163488 C32.3462145,9.36847973 32.3479859,9.14469634 32.5245327,8.96992092 C32.8853022,8.60797047 33.3216503,8.99353922 33.3718392,9.04431856 L36.9015941,12.5723021 C36.9523735,12.622491 37.3367613,13.0594296 36.9754013,13.4207895" id="path274900" fill="#FFFFFF" transform="translate(27.707778, 14.460386) scale(1, -1) translate(-27.707778, -14.460386) "></path>
                <path d="M27.211163,22.1289937 L25.0624881,24.2776686 L22.3038707,25.6410349 L22.278481,25.6156453 L26.4878525,21.4050928 C27.850038,19.6443486 26.5663834,19.3331775 27.1036997,18.7952707 C27.4904494,18.4097019 27.9758054,18.9458374 28.1127916,19.0840044 L29.5340228,20.5034642 C29.6710089,20.6404504 30.2059634,21.125216 29.8186233,21.5125561 C29.2813069,22.0498724 28.9719072,20.7662178 27.211163,22.1289937" id="path274904" fill="#FFFFFF" transform="translate(26.117702, 22.149631) scale(1, -1) translate(-26.117702, -22.149631) "></path>
                <path d="M20.4219409,39.5070554 C21.601675,40.7157219 23.4273696,40.8840023 25.3245095,39.1545523 C27.0521882,37.5827544 26.8419853,35.4193181 25.6758318,34.2531646 L25.2690065,34.6605802 C25.6415852,35.1459363 25.261921,35.5675229 24.9938533,35.8332288 L22.0025957,38.8262579 C21.7351184,39.0925542 21.3141222,39.4716279 20.8299471,39.0996397" id="path274908" fill="#FFFFFF" transform="translate(23.503973, 37.343424) scale(1, -1) translate(-23.503973, -37.343424) "></path>
                <path d="M27.4797707,34.0759704 C27.6976495,34.4473681 27.5577111,34.8541934 27.3534128,35.1848495 C27.2683869,35.3395494 27.1981225,35.4954302 27.3463273,35.6430446 C27.5642061,35.8597425 27.7820849,35.5715992 27.8387688,35.5155057 L29.3562446,33.9974395 C29.4117476,33.942527 29.6993004,33.7246482 29.4808311,33.5061789 C29.3349881,33.3585645 29.1796978,33.4288289 29.024998,33.5138548 C28.6949322,33.7163818 28.2886975,33.8575011 27.9155283,33.6396223 L27.4797707,34.0759704 L27.4797707,34.0759704 Z M29.9803582,31.5747924 C30.4792948,32.2136674 30.5288932,33.0355843 30.1563145,33.7884176 C30.1008115,33.942527 30.0287757,34.0966364 30.1557241,34.2229943 C30.3806884,34.4479586 30.5702252,34.2164993 30.5985672,34.1875668 L32.003856,32.782278 L30.3889548,31.1667863 L29.9803582,31.5747924 L29.9803582,31.5747924 Z M25.1344735,36.421858 L26.7003668,37.9871608 L28.1263216,36.5623869 C28.1611586,36.5269594 28.2886975,36.3864306 28.0773137,36.1750468 C27.9574508,36.0557744 27.8535303,36.0906114 27.7124109,36.1614663 C26.9595776,36.5476255 26.2587046,36.5334545 25.5412987,36.0144423 L25.1344735,36.421858 L25.1344735,36.421858 Z M22.9639517,34.2513362 L24.8179883,36.1053728 L30.0718791,30.8508915 L28.2178426,28.9974454 C28.1900911,28.9696939 27.9438703,28.7518151 27.739572,28.9549325 C27.6421465,29.0535389 27.641556,29.1798968 27.7041445,29.2991692 C27.8736058,29.621559 27.8240074,29.6569864 27.5647966,29.9173782 L23.884475,33.5982903 C23.6246737,33.8569106 23.5886558,33.9065091 23.266266,33.7394096 C23.1464031,33.6744593 23.0200452,33.6744593 22.9214388,33.7730657 C22.717731,33.976183 22.9362002,34.2235847 22.9639517,34.2513362 L22.9639517,34.2513362 Z" id="path274912" fill="#FFFFFF" transform="translate(27.419650, 33.428180) scale(1, -1) translate(-27.419650, -33.428180) "></path>
                <path d="M28.2464921,29.6589476 C27.9866908,29.9187489 27.9512634,29.9677568 27.6276927,29.8000669 C27.5084203,29.7362975 27.3826528,29.7374784 27.2840464,29.8360848 C27.080929,30.0392022 27.2988078,30.2860134 27.3265593,30.3137649 L29.1805959,32.167211 L33.6485878,27.6992191 C33.9072082,27.4405988 33.9432261,27.3898194 34.2662063,27.5592807 C34.3860692,27.6224597 34.5124271,27.6230501 34.6110335,27.5250342 C34.8153318,27.3213263 34.597453,27.0751056 34.569111,27.0473541 L32.5810406,25.0592837 C32.5532891,25.0303512 32.3619809,24.8679754 32.1582731,25.0710928 C32.0602571,25.1702897 32.0431338,25.2801148 32.1063128,25.3999776 C32.2751836,25.7223674 32.186615,25.7194151 31.9274042,25.9798069 L28.2464921,29.6589476 L28.2464921,29.6589476 Z M29.4970811,32.4836963 C30.1648885,33.1520941 30.6283977,33.4756648 31.1485907,33.6150128 C31.9781835,33.8263966 32.64481,33.5660048 33.235858,32.9767283 C33.8251346,32.3874517 34.0849359,31.7190538 33.8741425,30.8900515 C33.7336137,30.3692679 33.4106334,29.9057588 32.742826,29.2385418 L32.3354103,29.6447766 C32.6725615,30.1383991 32.4062652,30.4472083 32.0620285,30.7920355 L31.0015668,31.8524972 C30.6856721,32.1678015 30.3331689,32.3933563 29.9044968,32.0762806 L29.4970811,32.4836963 Z" id="path274916" fill="#FFFFFF" transform="translate(30.947929, 29.329103) scale(1, -1) translate(-30.947929, -29.329103) "></path>
                <path d="M38.8437197,22.3129063 C39.0545131,22.7622444 38.8720617,23.0001988 38.6961054,23.1767456 L35.0582967,26.8145542 C34.8817499,26.991101 34.6437955,27.1735524 34.1938669,26.9633495 L33.7870417,27.3695843 C35.4102094,28.7264556 37.3061684,28.2198431 38.7031909,26.8216397 C40.1013942,25.4240268 40.6080067,23.5286582 39.2523163,21.9049001 L38.8437197,22.3129063 L38.8437197,22.3129063 Z M33.8785626,26.6456834 C33.6677693,26.1963452 33.8496302,25.9583909 34.0249961,25.783025 L37.6645761,22.1446259 C37.839942,21.9686695 38.0784868,21.7856277 38.527825,21.9970115 L38.9358311,21.5895958 C37.3132539,20.2333149 35.4167044,20.7381561 34.019682,22.1369499 C32.6208882,23.5345628 32.1148661,25.4311123 33.4705565,27.05428 L33.8785626,26.6456834 Z" id="path274920" fill="#FFFFFF" transform="translate(36.361349, 24.479523) scale(1, -1) translate(-36.361349, -24.479523) "></path>
                <path d="M5.38396624,17.1177592 L6.33460282,18.0683958 L6.71780973,17.6857793 C6.61861287,17.0982741 6.96166868,16.5698147 7.25217377,16.1606276 C7.37794122,15.9952995 7.51669873,15.7910012 7.33188553,15.606188 C7.13349181,15.4077943 6.94867862,15.5530468 6.92210803,15.5802079 L5.38396624,17.1177592 L5.38396624,17.1177592 Z M11.035235,19.6927444 C11.0618056,19.6661738 11.2070581,19.481951 11.0092548,19.2835573 C10.8238512,19.0987441 10.6189624,19.2375016 10.4542248,19.3626786 C10.0450377,19.6531837 9.51657828,19.99683 8.92907307,19.8976331 L8.54645661,20.2802496 L9.49709318,21.2302957 L11.035235,19.6927444 L11.035235,19.6927444 Z M6.63160294,18.3653959 L8.24945649,19.9832495 L12.4481998,15.7845062 C12.6926492,15.5400568 12.7257148,15.4940011 13.0292099,15.6522437 C13.1413969,15.7118799 13.2600788,15.7118799 13.3527806,15.6191781 C13.5440889,15.4278699 13.3392001,15.197001 13.31322,15.1704304 L11.444422,13.3016324 C11.4184419,13.2756523 11.187573,13.0707635 10.9956743,13.2626622 C10.9029725,13.3547736 10.9029725,13.4734555 10.9626087,13.5856425 C11.1208513,13.8897281 11.0747956,13.9227937 10.8303462,14.1666526 L6.63160294,18.3653959 Z" id="path274924" fill="#FFFFFF" transform="translate(9.408788, 17.205865) scale(1, -1) translate(-9.408788, -17.205865) "></path>
                <path d="M15.2022527,13.3205616 L14.6212425,12.7395515 L14.2380356,13.1227584 L14.8190458,13.7037686 L13.3204646,15.2023497 C13.0766057,15.4462086 13.0435401,15.4928548 12.7394544,15.3340217 C12.6272675,15.2743855 12.5085856,15.2743855 12.4158837,15.3670873 C12.2245755,15.5583956 12.4294643,15.7898549 12.4560348,15.8164255 L14.3242424,17.6840426 C14.350813,17.7106131 14.5816818,17.9155019 14.7729901,17.7241937 C14.8651014,17.6314918 14.8651014,17.5128099 14.8060557,17.400623 C14.6478131,17.0971278 14.6938688,17.0634717 14.9383182,16.8196128 L18.3978087,13.3601223 C18.6422581,13.1156729 18.6747332,13.0702077 18.9788188,13.2278598 C19.0910058,13.287496 19.2096877,13.287496 19.3017991,13.1953847 C19.4936978,13.003486 19.288809,12.7726171 19.2622384,12.7460465 L17.3940309,10.877839 C17.3680508,10.8512684 17.1365914,10.6469701 16.9452832,10.8382783 C16.8531718,10.9303897 16.8531718,11.0496621 16.9122176,11.161849 C17.0704602,11.4653442 17.0244045,11.4984098 16.7799551,11.7428592 L15.2022527,13.3205616 L15.2022527,13.3205616 Z M15.9019448,10.8642584 C16.1463942,10.6203995 16.1794598,10.5743438 16.482955,10.7325864 C16.5951419,10.7916322 16.7138239,10.7916322 16.8065257,10.6995208 C16.9978339,10.5082126 16.7929452,10.2767532 16.766965,10.2507731 L14.8987575,8.38256558 C14.8721869,8.35599499 14.6407276,8.15110624 14.4494194,8.34241447 C14.357308,8.4351163 14.357308,8.55379825 14.4163537,8.66657564 C14.5751868,8.96948033 14.5285407,9.00254595 14.2846817,9.24699536 L10.8251912,12.7064858 C10.5807418,12.9509352 10.5476762,12.9969909 10.2441811,12.8387483 C10.1314037,12.7791121 10.0127217,12.7791121 9.92061034,12.8718139 C9.72930211,13.0631222 9.93360041,13.2939911 9.96017099,13.3205616 L11.8283785,15.1893596 C11.8549491,15.2153398 12.0864084,15.4202285 12.2771262,15.2283298 C12.369828,15.1362185 12.369828,15.016946 12.3101918,14.9047591 C12.1519492,14.601264 12.1980049,14.5681983 12.4424543,14.3243394 L15.9019448,10.8642584 Z" id="path274928" fill="#FFFFFF" transform="translate(14.611336, 13.033304) scale(1, -1) translate(-14.611336, -13.033304) "></path>
                <path d="M19.2180998,9.16426282 C19.4223981,9.51381366 19.2907261,9.89702057 19.0994178,10.2070108 C19.0197061,10.3522633 18.9541653,10.4975158 19.0923323,10.6362734 C19.2972211,10.8405717 19.5021098,10.5701421 19.5546606,10.5175914 L20.9806154,9.09104609 C21.0337566,9.03849537 21.3041861,8.83360662 21.0998878,8.62930832 C20.9611303,8.49055081 20.8158778,8.55668205 20.6706252,8.63580336 C20.3600446,8.82711159 19.9768377,8.95937407 19.6272868,8.75448531 L19.2180998,9.16426282 L19.2180998,9.16426282 Z M21.5681206,6.81365152 C22.0369439,7.41414679 22.0829996,8.1864652 21.7334487,8.89324283 C21.6803076,9.03849537 21.6141763,9.18374792 21.7334487,9.30242987 C21.9442421,9.51381366 22.1225602,9.29593484 22.1491308,9.26936425 L23.4693938,7.94910129 L21.9513275,6.4304446 L21.5681206,6.81365152 L21.5681206,6.81365152 Z M17.0133315,11.3690311 L18.485342,12.8410417 L19.8256806,11.5007031 C19.8581557,11.468228 19.9768377,11.3359655 19.7790344,11.1381622 C19.6668475,11.0259753 19.5676506,11.0590409 19.4359786,11.1245817 C18.729201,11.4877131 18.0690695,11.474723 17.3959479,10.9864147 L17.0133315,11.3690311 L17.0133315,11.3690311 Z M14.9727104,9.32900046 L16.7157409,11.072031 L21.6543274,6.13344448 L19.9112969,4.3910044 C19.8847263,4.36443381 19.6538574,4.15954506 19.4619587,4.35085329 C19.3698474,4.44355512 19.3698474,4.56223707 19.4294836,4.674424 C19.5877262,4.97850961 19.5416705,5.01157523 19.2972211,5.25543418 L15.8377306,8.71492466 C15.5932812,8.95937407 15.5602156,9.00602021 15.2567204,8.84718714 C15.1445335,8.78755093 15.0258515,8.78755093 14.9331497,8.8796623 C14.7418415,9.07156099 14.9467302,9.30242987 14.9727104,9.32900046 L14.9727104,9.32900046 Z" id="path274932" fill="#FFFFFF" transform="translate(19.160857, 8.555542) scale(1, -1) translate(-19.160857, -8.555542) "></path>
            </g>
        </g>
    </g>
</svg>