<?xml version="1.0" encoding="UTF-8" standalone="no"?>
<svg width="60px" height="60px" viewBox="0 0 60 60" version="1.1" xmlns="http://www.w3.org/2000/svg" xmlns:xlink="http://www.w3.org/1999/xlink" xmlns:sketch="http://www.bohemiancoding.com/sketch/ns">
    <!-- Generator: Sketch 3.3.1 (12005) - http://www.bohemiancoding.com/sketch -->
    <title>hotmail-outlook</title>
    <desc>Created with Sketch.</desc>
    <defs></defs>
    <g id="Social-icons-grid" stroke="none" stroke-width="1" fill="none" fill-rule="evenodd" sketch:type="MSPage">
        <g id="hotmail-outlook" sketch:type="MSLayerGroup">
            <rect id="circle" fill="#1074C3" sketch:type="MSShapeGroup" x="0" y="0" width="60" height="60" rx="80"></rect>
            <g id="Group" transform="translate(15.000000, 15.000000)" fill="#FFFFFF" sketch:type="MSShapeGroup">
                <path d="M18.8571429,6.28571429 L18.8571429,12.1155066 L20.894436,13.3983297 C20.9481669,13.4140011 21.0645834,13.4151211 21.1183143,13.3983297 L29.8865094,7.48682171 C29.8865094,6.78720171 29.2339037,6.28571429 28.8656249,6.28571429 L18.8571429,6.28571429 L18.8571429,6.28571429 Z M18.8582623,14.4473434 L20.717572,15.7245694 C20.9795097,15.9171049 21.2951783,15.7245694 21.2951783,15.7245694 C20.9806291,15.9171049 29.8887489,10 29.8887489,10 L29.8887489,20.714818 C29.8887489,21.8812243 29.1421146,22.3703983 28.3025709,22.3703983 L18.8571429,22.3703983 L18.8571429,14.4473434 L18.8582623,14.4473434 Z M0.207937485,3.41696431 L0.207937485,26.2245717 L17.5585099,29.8625949 L17.5585099,0.0587889959 L0.207937485,3.41696431 L0.207937485,3.41696431 Z M9.02874464,11.6948665 C8.3951689,11.6948665 7.89032321,11.9926247 7.51756575,12.5870217 C7.14480829,13.1814187 6.95786987,13.9683511 6.95786987,14.9478189 C6.95786987,15.9418388 7.14480829,16.7276519 7.51756575,17.305258 C7.89032321,17.8839836 8.37949742,18.1716672 8.98396897,18.1716672 C9.60747019,18.1716672 10.1022414,17.8906999 10.4671631,17.3287652 C10.8320848,16.7668306 11.015665,15.9866145 11.015665,14.9892364 C11.015665,13.9493215 10.8388011,13.1400012 10.4839539,12.5612757 C10.1291068,11.9836695 9.64441012,11.6948665 9.02874464,11.6948665 Z M11.8182689,18.6765129 C11.0850673,19.6414286 10.1291068,20.1250059 8.94926783,20.1250059 C7.79965248,20.1250059 6.86384096,19.6571001 6.13959448,18.722408 C5.4164674,17.7865965 5.05378446,16.5686982 5.05378446,15.0664745 C5.05378446,13.4802963 5.42094497,12.1974734 6.15638536,11.2180056 C6.89182575,10.2385378 7.86569659,9.74824417 9.07799788,9.74824417 C10.2231357,9.74824417 11.1499921,10.2161499 11.8563283,11.1542002 C12.5637839,12.0922505 12.9175117,13.3280591 12.9175117,14.8627452 C12.9186311,16.4399682 12.5514705,17.7115972 11.8182689,18.6765129 L11.8182689,18.6765129 Z" id="path3"></path>
            </g>
        </g>
    </g>
</svg>