<?xml version="1.0" encoding="UTF-8" standalone="no"?>
<svg width="60px" height="60px" viewBox="0 0 60 60" version="1.1" xmlns="http://www.w3.org/2000/svg" xmlns:xlink="http://www.w3.org/1999/xlink" xmlns:sketch="http://www.bohemiancoding.com/sketch/ns">
    <!-- Generator: Sketch 3.3.2 (12043) - http://www.bohemiancoding.com/sketch -->
    <title>imdb</title>
    <desc>Created with Sketch.</desc>
    <defs>
        <radialGradient cx="50%" cy="50%" fx="50%" fy="50%" r="60.5848524%" id="radialGradient-1">
            <stop stop-color="#FAF3A9" offset="0%"></stop>
            <stop stop-color="#DBA628" offset="100%"></stop>
        </radialGradient>
    </defs>
    <g id="Social-icons-grid" stroke="none" stroke-width="1" fill="none" fill-rule="evenodd" sketch:type="MSPage">
        <g id="imdb" sketch:type="MSLayerGroup">
            <rect id="Path" fill="url(#radialGradient-1)" sketch:type="MSShapeGroup" x="0" y="0" width="60" height="60" rx="80"></rect>
            <path d="M13.8867594,38.3333333 L10,38.3333333 L10,21.6668099 L13.8867594,21.6668099 L13.8867594,38.3333333 L13.8867594,38.3333333 Z M28.3013406,38.3333333 L24.9837411,38.3333333 L24.9837411,28.9775029 L23.3786665,38.3333333 L20.9780772,38.3333333 L19.3314133,28.9775029 L19.3314133,38.3333333 L15.82973,38.3333333 L15.82973,21.6669532 L20.8321737,21.6669532 L22.1326236,29.5290425 L23.0332707,21.6669532 L28.3016133,21.6669532 L28.3016133,38.3333333 L28.3013406,38.3333333 Z M30.3532615,38.3333333 L30.3532615,21.6668099 L34.7021395,21.6668099 C37.2914489,21.6668099 37.9207428,21.9361331 38.660487,22.4746363 C39.3999586,23.0132828 39.7697625,23.8403057 39.7697625,24.9558482 L39.7697625,35.0440086 C39.7697625,36.0821923 39.4242303,36.8904485 38.7323479,37.4674878 C38.04142,38.0446704 37.2092248,38.3333333 34.7240932,38.3333333 L30.3532615,38.3333333 L30.3532615,38.3333333 Z M35.5980141,34.8367156 L35.5980141,25.0628612 C35.5980141,24.2508803 34.7591373,24.3260903 34.095072,24.3260903 L34.095072,35.5200517 C34.7591373,35.5200517 35.5980141,35.6250591 35.5980141,34.8367156 L35.5980141,34.8367156 Z M44.7427528,37.4641929 C44.4704451,37.3401323 44.2264999,38.3331901 44.2264999,38.3331901 L41.0162145,38.3331901 L41.0162145,21.6666667 L44.992425,21.6666667 L44.992425,25.4821745 C45.3930459,25.0091398 46.5100938,24.2735149 47.594143,24.325947 C48.6780558,24.3785223 50.0948194,25.2194411 49.995005,26.6176298 L49.995005,36.3108305 C49.995005,36.9925907 49.7097433,37.5309507 49.1401743,37.9260536 C48.6844646,38.1344926 48.294616,38.1996745 47.3433799,38.1996745 C46.3924165,38.1998178 45.0150605,37.58854 44.7427528,37.4641929 L44.7427528,37.4641929 Z M46.084792,35.4537237 L46.0873828,27.0585749 C46.0873828,26.6480003 45.9067079,26.4427129 45.5450855,26.4427129 C45.1765088,26.4427129 44.992425,26.6402644 44.992425,27.0355106 L44.9898342,35.4537237 C44.9898342,35.8645849 45.1740543,36.1503826 45.5426311,36.1503826 C45.9041171,36.1505259 46.084792,35.8645849 46.084792,35.4537237 L46.084792,35.4537237 Z" id="Shape" fill="#231F1E" sketch:type="MSShapeGroup"></path>
        </g>
    </g>
</svg>