<?xml version="1.0" encoding="UTF-8" standalone="no"?>
<svg width="60px" height="60px" viewBox="0 0 60 60" version="1.1" xmlns="http://www.w3.org/2000/svg" xmlns:xlink="http://www.w3.org/1999/xlink" xmlns:sketch="http://www.bohemiancoding.com/sketch/ns">
    <!-- Generator: Sketch 3.3.1 (12005) - http://www.bohemiancoding.com/sketch -->
    <title>instagram</title>
    <desc>Created with Sketch.</desc>
    <defs></defs>
    <g id="Social-icons-grid" stroke="none" stroke-width="1" fill="none" fill-rule="evenodd" sketch:type="MSPage">
        <g id="instagram" sketch:type="MSLayerGroup">
            <rect id="circle" fill="#2E5E86" sketch:type="MSShapeGroup" x="0" y="0" width="60" height="60" rx="80"></rect>
            <path d="M16.5,40.0371094 L16.5,19.9628906 C16.5,19.0136671 16.8398404,18.1992221 17.5195312,17.5195312 C18.1992221,16.8398404 19.0136671,16.5 19.9628906,16.5 L40.0371094,16.5 C40.9863329,16.5 41.8007779,16.8398404 42.4804688,17.5195312 C43.1601596,18.1992221 43.5,19.0136671 43.5,19.9628906 L43.5,40.0371094 C43.5,40.9863329 43.1601596,41.8007779 42.4804688,42.4804688 C41.8007779,43.1601596 40.9863329,43.5 40.0371094,43.5 L19.9628906,43.5 C19.0136671,43.5 18.1992221,43.1601596 17.5195312,42.4804688 C16.8398404,41.8007779 16.5,40.9863329 16.5,40.0371094 Z M19.5058594,39.3164062 C19.5058594,39.6210953 19.6083974,39.8759755 19.8134766,40.0810547 C20.0185557,40.2861338 20.273436,40.3886719 20.578125,40.3886719 L39.3691406,40.3886719 C39.6621108,40.3886719 39.9140614,40.2861338 40.125,40.0810547 C40.3359386,39.8759755 40.4414062,39.6210953 40.4414062,39.3164062 L40.4414062,27.9257813 L38.0683594,27.9257813 C38.3027355,28.6640662 38.4199219,29.4316366 38.4199219,30.2285156 C38.4199219,31.7050855 38.0449256,33.0673766 37.2949219,34.3154297 C36.5449181,35.5634828 35.5253971,36.5507776 34.2363281,37.2773438 C32.9472592,38.0039099 31.5410232,38.3671875 30.0175781,38.3671875 C27.7089728,38.3671875 25.7343832,37.5732501 24.09375,35.9853516 C22.4531168,34.397453 21.6328125,32.4785269 21.6328125,30.2285156 C21.6328125,29.4316366 21.7499988,28.6640662 21.984375,27.9257813 L19.5058594,27.9257813 L19.5058594,39.3164062 Z M24.6035156,29.9472656 C24.6035156,31.4003979 25.1337838,32.6396433 26.1943359,33.6650391 C27.2548881,34.6904348 28.5292894,35.203125 30.0175781,35.203125 C31.5175856,35.203125 32.7978463,34.6904348 33.8583984,33.6650391 C34.9189506,32.6396433 35.4492188,31.4003979 35.4492188,29.9472656 C35.4492188,28.4941334 34.9189506,27.2548879 33.8583984,26.2294922 C32.7978463,25.2040964 31.5175856,24.6914063 30.0175781,24.6914063 C28.5292894,24.6914063 27.2548881,25.2040964 26.1943359,26.2294922 C25.1337838,27.2548879 24.6035156,28.4941334 24.6035156,29.9472656 Z M34.9570313,23.6191406 C34.9570313,23.9589861 35.0742176,24.2460926 35.3085938,24.4804688 C35.5429699,24.7148449 35.8300764,24.8320312 36.1699219,24.8320312 L39.2285156,24.8320312 C39.5683611,24.8320312 39.8554676,24.7148449 40.0898438,24.4804688 C40.3242199,24.2460926 40.4414062,23.9589861 40.4414062,23.6191406 L40.4414062,20.71875 C40.4414062,20.3906234 40.3242199,20.1064465 40.0898438,19.8662109 C39.8554676,19.6259754 39.5683611,19.5058594 39.2285156,19.5058594 L36.1699219,19.5058594 C35.8300764,19.5058594 35.5429699,19.6259754 35.3085938,19.8662109 C35.0742176,20.1064465 34.9570313,20.3906234 34.9570313,20.71875 L34.9570313,23.6191406 Z" fill="#FFFFFF" sketch:type="MSShapeGroup"></path>
        </g>
    </g>
</svg>