<?xml version="1.0" encoding="UTF-8" standalone="no"?>
<svg width="60px" height="60px" viewBox="0 0 60 60" version="1.1" xmlns="http://www.w3.org/2000/svg" xmlns:xlink="http://www.w3.org/1999/xlink" xmlns:sketch="http://www.bohemiancoding.com/sketch/ns">
    <!-- Generator: Sketch 3.3.2 (12043) - http://www.bohemiancoding.com/sketch -->
    <title>java</title>
    <desc>Created with Sketch.</desc>
    <defs></defs>
    <g id="Social-icons-grid" stroke="none" stroke-width="1" fill="none" fill-rule="evenodd" sketch:type="MSPage">
        <g id="java" sketch:type="MSLayerGroup">
            <rect id="Rectangle-2-Copy-3" fill="#ED0000" sketch:type="MSShapeGroup" x="0" y="0" width="60" height="60" rx="80"></rect>
            <g transform="translate(14.000000, 7.000000)" id="Shape" fill="#FFFFFF" sketch:type="MSShapeGroup">
                <path d="M9.99676727,31.6674301 C9.99676727,31.6674301 8.39852,32.5761532 11.1341855,32.8836532 C14.4483673,33.2533145 16.1422073,33.2003011 19.7944582,32.5244624 C19.7944582,32.5244624 20.7546691,33.113121 22.0956727,33.6229758 C13.9082909,37.05375 3.56601455,33.4242581 9.99676727,31.6674301"></path>
                <path d="M8.99631273,27.1904946 C8.99631273,27.1904946 7.20372364,28.487836 9.94141818,28.7646962 C13.4817309,29.121793 16.2775927,29.151 21.1155091,28.2401828 C21.1155091,28.2401828 21.7846582,28.903457 22.8368545,29.2661747 C12.9378218,32.0962769 1.91208,29.4893602 8.99631273,27.1904946"></path>
                <path d="M17.4304545,19.5961263 C19.4478218,21.8669973 16.9004109,23.9104946 16.9004109,23.9104946 C16.9004109,23.9104946 22.0228509,21.3250699 19.6703455,18.0875027 C17.4731782,15.0682715 15.7882436,13.5681344 24.9097964,8.39585215 C24.9097964,8.39585215 10.5919673,11.8920941 17.4304545,19.5961263"></path>
                <path d="M28.2589236,34.9788414 C28.2589236,34.9788414 29.4416582,35.9316505 26.95636,36.6687688 C22.2304945,38.0685 7.28680364,38.4911747 3.13550909,36.7245376 C1.64322545,36.0898091 4.44168,35.2089704 5.32196727,35.0241398 C6.24001818,34.8295 6.76465091,34.8657608 6.76465091,34.8657608 C5.10508,33.7227204 -3.96213818,37.1101801 2.15895273,38.080293 C18.8520582,40.7271075 32.5888909,36.8884274 28.2589236,34.9788414"></path>
                <path d="M10.7653418,22.5518737 C10.7653418,22.5518737 3.16402909,24.317078 8.07352727,24.9580887 C10.1464691,25.2294382 14.2788255,25.1680484 18.1280109,24.8527231 C21.2737782,24.5932769 24.4325091,24.0416505 24.4325091,24.0416505 C24.4325091,24.0416505 23.3232727,24.5060968 22.5207673,25.0418522 C14.8017673,27.0267151 -0.109909091,26.1033333 4.18297091,24.0730618 C7.81346545,22.3572339 10.7653418,22.5518737 10.7653418,22.5518737"></path>
                <path d="M24.4011709,30.0039543 C32.2478909,26.0173656 28.6198764,22.1862903 26.0875709,22.7024274 C25.4668945,22.8287339 25.1901491,22.9381774 25.1901491,22.9381774 C25.1901491,22.9381774 25.4205636,22.5852688 25.8606509,22.4325108 C30.8703636,20.7105108 34.7231564,27.5113306 24.2434655,30.2048763 C24.2434655,30.2049866 24.3648727,30.0988495 24.4011709,30.0039543"></path>
                <path d="M19.6703455,0.0439758065 C19.6703455,0.0439758065 24.0159818,4.29419892 15.5486982,10.8298414 C8.75879636,16.0725511 14.0003891,19.0618038 15.54588,22.4771478 C11.5825018,18.9809059 8.67391273,15.9031505 10.6252218,13.0386613 C13.4892836,8.83384677 21.4237055,6.79519892 19.6703455,0.0439758065"></path>
                <path d="M11.5363964,40.8066828 C19.0682691,41.2780726 30.6343127,40.5451425 30.90824,37.0606935 C30.90824,37.0606935 30.3816909,38.381621 24.6835527,39.4306478 C18.2549418,40.6134758 10.3261564,40.4753763 5.62351273,39.7173172 C5.62362545,39.717207 6.58620364,40.4963172 11.5363964,40.8066828"></path>
            </g>
        </g>
    </g>
</svg>