<?xml version="1.0" encoding="UTF-8" standalone="no"?>
<svg width="60px" height="60px" viewBox="0 0 60 60" version="1.1" xmlns="http://www.w3.org/2000/svg" xmlns:xlink="http://www.w3.org/1999/xlink" xmlns:sketch="http://www.bohemiancoding.com/sketch/ns">
    <!-- Generator: Sketch 3.3.2 (12043) - http://www.bohemiancoding.com/sketch -->
    <title>jsfiddle</title>
    <desc>Created with Sketch.</desc>
    <defs></defs>
    <g id="Social-icons-grid" stroke="none" stroke-width="1" fill="none" fill-rule="evenodd" sketch:type="MSPage">
        <g id="jsfiddle" sketch:type="MSLayerGroup">
            <rect id="Rectangle-3" fill="#4679BD" sketch:type="MSShapeGroup" x="0" y="0" width="60" height="60" rx="80"></rect>
            <path d="M51,34.7764286 C51,39.3128571 47.2880859,43 42.7353516,43 C42.573832,43 42.4277344,42.9792857 42.2841797,42.9792857 L17.3261719,42.9792857 C12.7324219,42.71 9,39.1678571 9,34.5692857 C9,31.4828571 10.6611328,28.7886743 13.1425781,27.3206114 C12.9798281,26.78204 12.8951719,26.2227543 12.8951719,25.6207143 C12.8951719,22.4514286 15.4599609,19.8828571 18.6578672,19.8828571 C19.9703672,19.8828571 21.2008359,20.3385714 22.1852109,21.0842857 C24.1962891,16.9 28.4619141,14 33.4453125,14 C40.3564453,14 45.9345703,19.5721429 45.9345703,26.4285714 C45.9345703,26.6784686 45.9140625,26.9282829 45.9140625,27.1742857 C48.8876953,28.4171429 51,31.3585714 51,34.7764286 L51,34.7764286 Z M24.58725,38.1528571 C26.5983281,38.1528571 28.0517578,37.5107143 29.509125,36.1047114 C28.9130859,35.3589971 28.2568359,34.6314286 27.6429141,33.8882829 C26.8034063,34.7142857 25.8792422,35.2347114 24.6897891,35.2347114 C23.2324219,35.2347114 21.9827578,34.26114 21.9827578,32.7282829 C21.9827578,31.2187086 23.2350469,30.2244229 24.6500859,30.2244229 C29.1631172,30.2244229 30.1256719,38.1787086 36.6881719,38.1787086 C39.8899336,38.1787086 42.5944219,36.14614 42.5944219,32.7515657 C42.5944219,29.3116686 39.8668828,27.30114 36.6291914,27.30114 C34.6168828,27.30114 33.1223555,27.8824657 31.6868086,29.3117514 C32.3430586,30.0354257 32.95575,30.8018543 33.5940352,31.55022 C34.4143477,30.7397943 35.3371992,30.2245057 36.5061445,30.2245057 C37.8596602,30.2245057 39.2106328,31.1980771 39.2106328,32.6480771 C39.2106328,34.2430771 38.0596523,35.2555086 36.5266523,35.2555086 C32.1584883,35.2555086 30.989543,27.3012229 24.589793,27.3012229 C21.411082,27.3012229 18.6028242,29.26908 18.6028242,32.6869371 C18.5963438,36.185 21.3238828,38.1528571 24.58725,38.1528571 L24.58725,38.1528571 Z" id="Shape" fill="#FFFFFF" sketch:type="MSShapeGroup"></path>
        </g>
    </g>
</svg>