<?xml version="1.0" encoding="UTF-8" standalone="no"?>
<svg width="60px" height="60px" viewBox="0 0 60 60" version="1.1" xmlns="http://www.w3.org/2000/svg" xmlns:xlink="http://www.w3.org/1999/xlink" xmlns:sketch="http://www.bohemiancoding.com/sketch/ns">
    <!-- Generator: Sketch 3.3.2 (12043) - http://www.bohemiancoding.com/sketch -->
    <title>kickstarter</title>
    <desc>Created with Sketch.</desc>
    <defs></defs>
    <g id="Social-icons-grid" stroke="none" stroke-width="1" fill="none" fill-rule="evenodd" sketch:type="MSPage">
        <g id="kickstarter" sketch:type="MSLayerGroup">
            <rect id="Rectangle-9" fill="#0E2105" sketch:type="MSShapeGroup" x="0" y="0" width="60" height="60" rx="80"></rect>
            <path d="M27.4952104,24.6930844 L33.6074499,15.8362922 C34.7630595,14.1676529 36.254687,13.3333333 38.0837934,13.3333333 C39.5757862,13.3333333 40.8665334,13.8626368 41.9582265,14.921609 C43.0488239,15.9805812 43.5941226,17.2481334 43.5941226,18.7242654 C43.5941226,19.815383 43.3059507,20.7782843 42.7281459,21.6126039 L37.2170862,29.6270401 L43.9553419,38.1711451 C44.629204,39.0215374 44.9659524,40.0165841 44.9659524,41.1555546 C44.9659524,42.6641973 44.4370893,43.9591461 43.3779023,45.0422274 C42.3190805,46.125674 41.0349076,46.6666667 39.5275749,46.6666667 C37.8748779,46.6666667 36.6159063,46.1296921 35.7491991,45.0542819 L27.4952104,34.7535031 L27.4952104,40.4337439 C27.4952104,42.0545303 27.2147084,43.3136808 26.6529741,44.2122912 C25.6262931,45.8484198 24.1343004,46.6666667 22.1773611,46.6666667 C20.3964659,46.6666667 19.0162357,46.065036 18.0381312,44.8617747 C17.123578,43.7545844 16.6666667,42.2861234 16.6666667,40.457853 L16.6666667,19.3982232 C16.6666667,17.6652932 17.131248,16.2377446 18.0622369,15.1144815 C19.0407065,13.9272929 20.3880655,13.3333333 22.1046789,13.3333333 C23.7413055,13.3333333 25.1047348,13.9272929 26.1956975,15.1144815 C26.8052779,15.7720013 27.1902376,16.4379228 27.3505766,17.1118807 C27.4469991,17.5294057 27.4952104,18.3071056 27.4952104,19.4464414 L27.4952104,24.6930844" id="Fill-4" fill="#14E06F" sketch:type="MSShapeGroup"></path>
        </g>
    </g>
</svg>