<?xml version="1.0" encoding="UTF-8" standalone="no"?>
<svg width="60px" height="60px" viewBox="0 0 60 60" version="1.1" xmlns="http://www.w3.org/2000/svg" xmlns:xlink="http://www.w3.org/1999/xlink" xmlns:sketch="http://www.bohemiancoding.com/sketch/ns">
    <!-- Generator: Sketch 3.3.1 (12005) - http://www.bohemiancoding.com/sketch -->
    <title>linkedin</title>
    <desc>Created with Sketch.</desc>
    <defs></defs>
    <g id="Social-icons-grid" stroke="none" stroke-width="1" fill="none" fill-rule="evenodd" sketch:type="MSPage">
        <g id="linkedin" sketch:type="MSLayerGroup">
            <rect id="circle" fill="#0D77B7" sketch:type="MSShapeGroup" x="0" y="0" width="60" height="60" rx="80"></rect>
            <path d="M15.7091398,17.6828507 C15.7091398,16.7787976 16.0285721,16.0305216 16.6674462,15.4380003 C17.3063203,14.845479 18.1405657,14.5492228 19.1702075,14.5492228 C20.1998493,14.5492228 21.0247909,14.845479 21.645057,15.4380003 C22.2653231,16.0305216 22.5816541,16.7787976 22.5940594,17.6828507 C22.6064648,18.5746869 22.2932351,19.3199087 21.6543609,19.9185385 C21.0154868,20.5171683 20.1750388,20.8164787 19.1329917,20.8164787 L19.0957759,20.8164787 C18.0785395,20.8164787 17.2598005,20.5171683 16.6395344,19.9185385 C16.0192682,19.3199087 15.7091398,18.5746869 15.7091398,17.6828507 Z M16.0626897,41.4507772 L16.0626897,23.2903954 L22.2032937,23.2903954 L22.2032937,41.4507772 L16.0626897,41.4507772 Z M25.5899299,41.4507772 C25.6147405,36.5762205 25.6271456,32.6241016 25.6271456,29.5943019 C25.6271456,26.5645023 25.6209431,24.7564231 25.6085378,24.1700103 L25.5899299,23.2903954 L31.711926,23.2903954 L31.711926,25.92924 L31.6747102,25.92924 C31.9228166,25.5382981 32.1771219,25.1962291 32.4376337,24.9030227 C32.6981455,24.6098163 33.0485906,24.2921807 33.4889795,23.9501066 C33.9293685,23.6080324 34.4689919,23.3423181 35.107866,23.1529556 C35.7467402,22.9635931 36.4569342,22.8689133 37.2384695,22.8689133 C39.3597797,22.8689133 41.065486,23.5622139 42.3556395,24.948836 C43.6457931,26.335458 44.2908602,28.3664928 44.2908602,31.0420014 L44.2908602,41.4507772 L38.1688641,41.4507772 L38.1688641,31.7383631 C38.1688641,30.4555851 37.9176601,29.4507573 37.4152445,28.7238497 C36.9128289,27.9969421 36.1282041,27.6334938 35.0613463,27.6334938 C34.279811,27.6334938 33.62544,27.8442328 33.0982138,28.265717 C32.5709876,28.6872012 32.1771245,29.2094673 31.9166128,29.832531 C31.7801542,30.199039 31.711926,30.6938174 31.711926,31.316881 L31.711926,41.4507772 L25.5899299,41.4507772 Z" id="linkedin-copy" fill="#FFFFFF" sketch:type="MSShapeGroup"></path>
        </g>
    </g>
</svg>