<?xml version="1.0" encoding="iso-8859-1"?>
<!-- Generator: Adobe Illustrator 16.0.0, SVG Export Plug-In . SVG Version: 6.00 Build 0)  -->
<!DOCTYPE svg PUBLIC "-//W3C//DTD SVG 1.1//EN" "http://www.w3.org/Graphics/SVG/1.1/DTD/svg11.dtd" [
	<!ENTITY ns_flows "http://ns.adobe.com/Flows/1.0/">
	<!ENTITY ns_extend "http://ns.adobe.com/Extensibility/1.0/">
	<!ENTITY ns_ai "http://ns.adobe.com/AdobeIllustrator/10.0/">
	<!ENTITY ns_graphs "http://ns.adobe.com/Graphs/1.0/">
	<!ENTITY ns_vars "http://ns.adobe.com/Variables/1.0/">
	<!ENTITY ns_imrep "http://ns.adobe.com/ImageReplacement/1.0/">
	<!ENTITY ns_sfw "http://ns.adobe.com/SaveForWeb/1.0/">
	<!ENTITY ns_custom "http://ns.adobe.com/GenericCustomNamespace/1.0/">
	<!ENTITY ns_adobe_xpath "http://ns.adobe.com/XPath/1.0/">
]>
<svg version="1.1" id="Layer_1" xmlns:x="&ns_extend;" xmlns:i="&ns_ai;" xmlns:graph="&ns_graphs;"
	 xmlns="http://www.w3.org/2000/svg" xmlns:xlink="http://www.w3.org/1999/xlink" xmlns:a="http://ns.adobe.com/AdobeSVGViewerExtensions/3.0/"
	 x="0px" y="0px" width="60px" height="60px" viewBox="0 0 60 60" enable-background="new 0 0 60 60" xml:space="preserve">
<metadata>
	<sfw  xmlns="&ns_sfw;">
		<slices></slices>
		<sliceSourceBounds  width="59.896" height="59.855" bottomLeftOrigin="true" x="0" y="-59.855"></sliceSourceBounds>
	</sfw>
</metadata>
<path fill="#FFFFFF" d="M58.971,54.47L43.948,39.486c3.198-4.144,5.124-9.321,5.124-14.95C49.072,11.008,38.066,0,24.538,0
	C11.008,0,0,11.008,0,24.536c0,13.53,11.008,24.536,24.538,24.536c5.628,0,10.805-1.923,14.949-5.124L54.51,58.931
	c0.616,0.616,1.423,0.925,2.23,0.925s1.614-0.309,2.23-0.925C60.204,57.698,60.204,55.702,58.971,54.47z M24.538,42.762
	c-10.049,0-18.227-8.175-18.227-18.226c0-10.048,8.178-18.226,18.227-18.226s18.224,8.178,18.224,18.226
	C42.762,34.587,34.587,42.762,24.538,42.762z"/>
</svg>
