<?xml version="1.0" encoding="utf-8"?>
<!-- Generator: Adobe Illustrator 16.0.0, SVG Export Plug-In . SVG Version: 6.00 Build 0)  -->
<!DOCTYPE svg PUBLIC "-//W3C//DTD SVG 1.1//EN" "http://www.w3.org/Graphics/SVG/1.1/DTD/svg11.dtd">
<svg version="1.1" id="Layer_1" xmlns:sketch="http://www.bohemiancoding.com/sketch/ns"
	 xmlns="http://www.w3.org/2000/svg" xmlns:xlink="http://www.w3.org/1999/xlink" x="0px" y="0px" width="17.812px"
	 height="17.812px" viewBox="0 0 17.812 17.812" enable-background="new 0 0 17.812 17.812" xml:space="preserve">
<title>Oval 1</title>
<desc>Created with Sketch.</desc>
<path fill="#400090" d="M17.555,16.336l-5.548-5.549c0.873-1.132,1.4-2.546,1.4-4.083C13.408,3.007,10.4,0,6.704,0
	C3.008,0,0,3.007,0,6.703c0,3.697,3.007,6.704,6.704,6.704c1.537,0,2.952-0.525,4.083-1.4l5.548,5.549
	c0.17,0.167,0.389,0.252,0.61,0.252c0.22,0,0.44-0.085,0.609-0.252C17.892,17.219,17.892,16.673,17.555,16.336z M6.704,11.681
	c-2.746,0-4.98-2.232-4.98-4.978s2.234-4.98,4.98-4.98c2.745,0,4.978,2.234,4.978,4.98S9.449,11.681,6.704,11.681z"/>
</svg>
