<?xml version="1.0" encoding="UTF-8" standalone="no"?>
<svg width="60px" height="60px" viewBox="0 0 60 60" version="1.1" xmlns="http://www.w3.org/2000/svg" xmlns:xlink="http://www.w3.org/1999/xlink" xmlns:sketch="http://www.bohemiancoding.com/sketch/ns">
    <!-- Generator: Sketch 3.3.1 (12005) - http://www.bohemiancoding.com/sketch -->
    <title>mapquest</title>
    <desc>Created with Sketch.</desc>
    <defs></defs>
    <g id="Social-icons-grid" stroke="none" stroke-width="1" fill="none" fill-rule="evenodd" sketch:type="MSPage">
        <g id="mapquest" sketch:type="MSLayerGroup">
            <rect id="circle" fill="#8CC63F" sketch:type="MSShapeGroup" x="0" y="0" width="60" height="60" rx="80"></rect>
            <path d="M41.9740185,33.2404343 C41.9679777,32.4651719 41.1998658,31.8809365 40.2956035,31.8786125 C39.3880885,31.8809365 38.620906,32.4651719 38.6144006,33.2404343 L38.6144006,34.2234558 C38.619512,35.0052251 39.3880885,35.5857423 40.2956035,35.5871367 C41.1998658,35.5857423 41.9679777,35.0052251 41.9740185,34.2234558 L41.9740185,33.2404343 L41.9740185,33.2404343 Z M47.6714286,28.7250424 C47.6714286,28.7250424 47.0896524,29.3232214 46.5283221,29.8377391 C47.0896524,30.8839714 47.3466191,32.1858358 47.3466191,33.733107 C47.3243146,38.0816409 45.4251778,40.4650613 40.2937448,40.4859767 C35.1627765,40.4650613 33.2631751,38.0816409 33.2404059,33.733107 C33.2631751,29.3873618 35.1632412,26.9755895 40.2937448,26.9542093 C41.8285744,26.9477023 43.0771627,27.1810247 44.0748252,27.6137401 C44.6092043,27.0211384 45.2978562,26.3499881 45.2978562,26.3499881 C45.8169009,25.8317521 46.7722777,25.9386528 47.4265436,26.597254 C48.0840622,27.2526017 48.1904733,28.2072712 47.6714286,28.7250424 L47.6714286,28.7250424 Z M34.9903812,17.2360076 C34.6688244,17.4893158 34.4601842,17.8881018 34.4601842,18.3445212 L34.4569315,24.9872367 C34.4569315,29.1126735 32.5670883,31.6034595 27.7051682,31.4551929 C25.4979504,31.387799 23.4547637,29.9018795 23.4547637,29.9018795 C23.2056965,29.7498946 23.0026325,29.9018795 23.0026325,29.9018795 C23.0026325,29.9018795 20.9613045,31.387799 18.7540866,31.4551929 C13.8903078,31.6034595 12.0027881,29.1126735 12.0027881,24.9872367 L12,17.8244262 C12,17.1239943 12.2007407,16.5337166 13.035766,16.5337166 L17.9659937,16.5337166 C18.1537234,16.5337166 18.3056729,16.6866311 18.3056729,16.8744044 C18.3056729,17.0849523 18.1263074,17.1704729 18.0422008,17.2360076 C17.7215734,17.4893158 17.5129332,17.8946088 17.5129332,18.351493 L17.5115392,24.8835896 C17.5226914,25.5803031 18.2675694,26.0966799 19.058915,26.100863 C19.8474727,26.0966799 20.5937446,25.5803031 20.6062909,24.8835896 L20.596068,17.8244262 C20.596068,17.1239943 20.7982027,16.5337166 21.6341574,16.5337166 L26.3125299,16.5337166 C26.5007243,16.5337166 26.6526738,16.6866311 26.6526738,16.8744044 C26.6526738,17.0849523 26.4742377,17.1704729 26.3892017,17.2360076 C26.0681096,17.4893158 25.8594694,17.8946088 25.8594694,18.351493 L25.8552873,24.8933501 C25.8669043,25.5900636 26.6122469,26.0966799 27.4012692,26.100863 C28.1916855,26.0966799 28.9342401,25.5891341 28.9481804,24.8933501 L28.9481804,17.8244262 C28.9481804,17.1239943 29.1484564,16.5337166 29.9848758,16.5337166 L34.9132447,16.5337166 C35.1023684,16.5337166 35.2538533,16.6866311 35.2538533,16.8744044 C35.2538533,17.0849523 35.0749525,17.1704729 34.9903812,17.2360076 L34.9903812,17.2360076 Z" id="path3142" fill="#FFFFFF" sketch:type="MSShapeGroup" transform="translate(30.000000, 28.509847) scale(1, -1) translate(-30.000000, -28.509847) "></path>
        </g>
    </g>
</svg>