<?xml version="1.0" encoding="UTF-8" standalone="no"?>
<svg width="60px" height="60px" viewBox="0 0 60 60" version="1.1" xmlns="http://www.w3.org/2000/svg" xmlns:xlink="http://www.w3.org/1999/xlink" xmlns:sketch="http://www.bohemiancoding.com/sketch/ns">
    <!-- Generator: Sketch 3.3.2 (12043) - http://www.bohemiancoding.com/sketch -->
    <title>mashable</title>
    <desc>Created with Sketch.</desc>
    <defs></defs>
    <g id="Social-icons-grid" stroke="none" stroke-width="1" fill="none" fill-rule="evenodd" sketch:type="MSPage">
        <g id="mashable" sketch:type="MSLayerGroup">
            <rect id="Rectangle-9" fill="#3C7AB0" sketch:type="MSShapeGroup" x="0" y="0" width="60" height="60" rx="80"></rect>
            <path d="M24.0873609,14.1685078 C24.9824409,17.2536128 25.8939499,20.3331944 26.7926808,23.417072 C27.9414986,27.2717656 28.915073,31.1804654 29.695758,35.127215 C29.7754694,35.4598442 29.7693846,35.8342054 29.9963491,36.1097599 C30.8981224,32.3023218 31.8765647,28.5120674 33.0107789,24.7678411 C34.1236961,21.2335026 35.2633866,17.7083697 36.3702191,14.17219 C39.5033032,14.1666667 42.6376043,14.1783271 45.77008,14.1666667 C46.3627434,24.7187445 46.9073366,35.2757321 47.5,45.82781 C45.160379,45.8351745 42.821975,45.8302648 40.4829624,45.8302648 C40.1343011,37.4458 39.7229659,29.0601078 39.6821975,20.6682785 C39.5769298,20.9438329 39.492959,21.2267518 39.4248088,21.513353 C37.9267211,27.4368528 35.9674026,33.2234959 34.1778512,39.0610768 C33.5310327,41.1439983 32.8848227,43.2263061 32.2331363,45.3073864 C30.3529207,45.3092276 28.4745306,45.3049316 26.5949235,45.3092276 C25.5355529,41.5631601 24.5169506,37.806046 23.475226,34.0550689 C22.2266168,29.631469 21.2238352,25.1422024 20.3305807,20.6345246 C20.2380911,21.4710072 20.2338317,22.3136269 20.2034075,23.1544054 C19.9594054,30.718344 19.5705841,38.2767592 19.1671592,45.8333333 C16.9449757,45.8265826 14.7221836,45.8364019 12.5,45.82781 C13.1705494,35.2775732 13.8739569,24.7273364 14.5347705,14.1770997 C17.7195758,14.1623707 20.9031641,14.1783271 24.0873609,14.1685078 Z" id="Fill-3" fill="#FFFFFF" sketch:type="MSShapeGroup"></path>
        </g>
    </g>
</svg>