<?xml version="1.0" encoding="UTF-8" standalone="no"?>
<svg width="60px" height="60px" viewBox="0 0 60 60" version="1.1" xmlns="http://www.w3.org/2000/svg" xmlns:xlink="http://www.w3.org/1999/xlink" xmlns:sketch="http://www.bohemiancoding.com/sketch/ns">
    <!-- Generator: Sketch 3.3.2 (12043) - http://www.bohemiancoding.com/sketch -->
    <title>medium</title>
    <desc>Created with Sketch.</desc>
    <defs></defs>
    <g id="Social-icons-grid" stroke="none" stroke-width="1" fill="none" fill-rule="evenodd" sketch:type="MSPage">
        <g id="medium" sketch:type="MSLayerGroup">
            <rect id="Rectangle-3" fill="#1A1919" sketch:type="MSShapeGroup" x="0" y="0" width="60" height="60" rx="80"></rect>
            <path d="M48,21.1263158 L46.61575,21.1263158 C46.1018333,21.1263158 45.375,21.8755368 45.375,22.3550737 L45.375,39.7389474 C45.375,40.2190737 46.1018333,40.8736842 46.61575,40.8736842 L48,40.8736842 L48,45 L35.4583333,45 L35.4583333,40.8736842 L38.0833333,40.8736842 L38.0833333,22.6 L37.9547083,22.6 L31.82475,45 L27.0790417,45 L21.028125,22.6 L20.875,22.6 L20.875,40.8736842 L23.5,40.8736842 L23.5,45 L13,45 L13,40.8736842 L14.3445833,40.8736842 C14.8981667,40.8736842 15.625,40.2190737 15.625,39.7389474 L15.625,22.3550737 C15.625,21.8755368 14.8981667,21.1263158 14.3445833,21.1263158 L13,21.1263158 L13,17 L26.1296667,17 L30.4405,33.2105263 L30.5592083,33.2105263 L34.9097083,17 L48,17 L48,21.1263158" id="Fill-1" fill="#FFFFFF" sketch:type="MSShapeGroup"></path>
        </g>
    </g>
</svg>