<?xml version="1.0" encoding="UTF-8" standalone="no"?>
<svg width="60px" height="60px" viewBox="0 0 60 60" version="1.1" xmlns="http://www.w3.org/2000/svg" xmlns:xlink="http://www.w3.org/1999/xlink" xmlns:sketch="http://www.bohemiancoding.com/sketch/ns">
    <!-- Generator: Sketch 3.3.1 (12005) - http://www.bohemiancoding.com/sketch -->
    <title>msn</title>
    <desc>Created with Sketch.</desc>
    <defs></defs>
    <g id="Social-icons-grid" stroke="none" stroke-width="1" fill="none" fill-rule="evenodd" sketch:type="MSPage">
        <g id="msn" sketch:type="MSLayerGroup">
            <rect id="circle" fill="#127AD4" sketch:type="MSShapeGroup" x="0" y="0" width="60" height="60" rx="80"></rect>
            <path d="M22.1309746,45 C20.378512,45 18.8848404,43.9000641 18.8848404,41.4068386 C18.8848404,37.5579564 22.1970377,34.6350627 23.6998183,33.8084231 C23.6998183,33.8084231 25.8023866,35.019645 27.983672,35.7990713 C23.6496496,33.056966 20.880237,28.0608651 20.880237,22.5156341 C20.880237,17.3332871 23.6156721,15 26.0853842,15 C28.0721397,15 32.7823245,17.185543 32.7823245,25.571964 C32.7823245,34.596067 28.0735191,45 22.1309746,45 L22.1309746,45 Z M29.704799,42.1404977 C29.704799,43.4483501 30.1616682,43.9604312 30.8601498,43.9604312 C32.6081539,43.9604312 35.3930445,39.8804604 35.2872869,35.5969252 C37.9378223,32.8008142 41.1151596,28.4207111 41.1151596,24.9124933 C41.1151596,24.0632516 40.874344,23.3481692 39.8677912,23.3481692 C38.3289245,23.3481692 36.129976,26.0004364 34.7351735,28.6341547 C33.3900399,31.3626889 32.13175,34.4747835 30.4614001,38.7460201 C30.0711022,39.817361 29.704799,41.114917 29.704799,42.1404977 L29.704799,42.1404977 Z" id="path3011" fill="#FFFFFF" sketch:type="MSShapeGroup"></path>
        </g>
    </g>
</svg>