<?xml version="1.0" encoding="UTF-8" standalone="no"?>
<svg width="60px" height="60px" viewBox="0 0 60 60" version="1.1" xmlns="http://www.w3.org/2000/svg" xmlns:xlink="http://www.w3.org/1999/xlink" xmlns:sketch="http://www.bohemiancoding.com/sketch/ns">
    <!-- Generator: Sketch 3.3.1 (12005) - http://www.bohemiancoding.com/sketch -->
    <title>netflix</title>
    <desc>Created with Sketch.</desc>
    <defs></defs>
    <g id="Social-icons-grid" stroke="none" stroke-width="1" fill="none" fill-rule="evenodd" sketch:type="MSPage">
        <g id="netflix" sketch:type="MSLayerGroup">
            <rect id="circle" fill="#B81D24" sketch:type="MSShapeGroup" x="0" y="0" width="60" height="60" rx="80"></rect>
            <g id="logo" transform="translate(5.000000, 23.125000)" fill="#FFFFFF" sketch:type="MSShapeGroup">
                <path d="M42.0892699,12.6868763 C42.7744179,12.7530968 43.458523,12.8245316 44.1415854,12.8985734 L45.6495367,9.17510166 L47.0829247,13.2416689 C47.8186506,13.3339605 48.5533337,13.4304235 49.2864525,13.5315793 L46.7737217,6.4000958 L49.2874953,0.193092854 L47.1585309,0.193092854 L47.1366311,0.223335308 L45.7788492,3.57659774 L44.5868794,0.193092854 L42.4850289,0.193092854 L44.6551857,6.35108217 L42.0892699,12.6868763 L42.0892699,12.6868763 Z M40.4992468,12.541141 L40.4992468,0.19335565 L38.3979177,0.19335565 L38.3979177,12.368029 C39.0992297,12.4217355 39.8000204,12.4801347 40.4992468,12.541141 L40.4992468,12.541141 Z M24.7159687,11.8504117 C25.2832754,11.8504117 25.8495393,11.8545831 26.4152818,11.8592967 L26.4152818,7.32292864 L28.9394838,7.32292864 L28.9394838,5.39106154 L26.4152818,5.39106154 L26.4152818,2.12696221 L29.3222073,2.12696221 L29.3222073,0.193009426 L24.3056099,0.193009426 L24.3056099,11.8519968 C24.4422224,11.8519968 24.5788348,11.8503283 24.7159687,11.8503283 L24.7159687,11.8504117 Z M18.19215,11.9684657 C18.8918978,11.9434375 19.5926885,11.9225806 20.294522,11.9053737 L20.294522,2.12715409 L22.2581958,2.12715409 L22.2581958,0.19320131 L16.2279548,0.19320131 L16.2279548,2.12715409 L18.19215,2.12715409 L18.19215,11.9684657 Z M2.12298272,13.2707141 L2.12298272,5.91397652 L4.61068526,12.9735038 C5.37561078,12.8874692 6.14210056,12.8066489 6.9101546,12.7305213 L6.9101546,0.193459935 L4.89433863,0.193459935 L4.89433863,7.81351547 L2.20953871,0.193459935 L2.12298272,0.193459935 L0.107166742,0.193459935 L0.107166742,13.5350749 L0.119680861,13.5350749 C0.78605769,13.4427833 1.45399878,13.3551844 2.12298272,13.2707141 L2.12298272,13.2707141 Z M14.202286,2.12699558 L14.202286,0.193042797 L9.18516718,0.193042797 L9.18516718,10.5849757 L9.18516718,12.5194499 L9.18516718,12.5211184 C10.8500664,12.377206 12.5207013,12.2567577 14.1981146,12.1587304 L14.1981146,12.1570618 L14.1981146,11.5996621 L14.1981146,10.2231091 C13.2282704,10.2794226 12.2605119,10.3446003 11.2948391,10.4165565 L11.2948391,7.32348344 L13.8190411,7.32348344 L13.8190411,5.39057349 L11.2948391,5.39057349 L11.2948391,2.12699558 L14.202286,2.12699558 L14.202286,2.12699558 Z M33.4866474,10.1307632 L33.4866474,0.19298857 L31.3764541,0.19298857 L31.3764541,10.0395144 L31.3764541,11.9734672 L31.3764541,11.9755529 C33.0549103,12.0370806 34.7271095,12.1231152 36.393573,12.2310495 L36.393573,12.2285467 L36.393573,11.6038836 L36.393573,10.2945939 C35.4263359,10.2320233 34.4575345,10.1777954 33.4866474,10.1308675 L33.4866474,10.1307632 Z" id="path3015"></path>
            </g>
        </g>
    </g>
</svg>