<?xml version="1.0" encoding="UTF-8" standalone="no"?>
<svg width="60px" height="60px" viewBox="0 0 60 60" version="1.1" xmlns="http://www.w3.org/2000/svg" xmlns:xlink="http://www.w3.org/1999/xlink" xmlns:sketch="http://www.bohemiancoding.com/sketch/ns">
    <!-- Generator: Sketch 3.3.1 (12005) - http://www.bohemiancoding.com/sketch -->
    <title>oracle</title>
    <desc>Created with Sketch.</desc>
    <defs></defs>
    <g id="Social-icons-grid" stroke="none" stroke-width="1" fill="none" fill-rule="evenodd" sketch:type="MSPage">
        <g id="oracle" sketch:type="MSLayerGroup">
            <rect id="circle" fill="#D72F32" sketch:type="MSShapeGroup" x="0" y="0" width="60" height="60" rx="80"></rect>
            <g id="oracle_clr_rgb" transform="translate(3.000000, 26.000000)" fill="#FFFFFF" sketch:type="MSShapeGroup">
                <path d="M23.3779338,5.05392875 L26.8801476,5.05392875 L25.0306356,2.02623231 L21.6343966,7.49829185 L20.0859875,7.5 L24.2206856,0.927891654 C24.395628,0.66056613 24.6984131,0.5 25.0281124,0.5 C25.3536063,0.5 25.652186,0.656295754 25.8279695,0.915934602 L29.9761247,7.5 L28.4277156,7.49829185 L27.7010315,6.27525622 L24.1525589,6.27525622 L23.3779338,5.05392875 L23.3779338,5.05392875 Z M39.4457272,6.27696437 L39.4457272,0.568326013 L38.1328176,0.568326013 L38.1328176,6.83467545 C38.1328176,7.00805271 38.2017853,7.17374329 38.3237404,7.29758419 C38.452424,7.42654954 38.6223201,7.49829185 38.8048322,7.49829185 L44.7898834,7.49829185 L45.5611442,6.27696437 L39.4457272,6.27696437 L39.4457272,6.27696437 Z M17.7335158,5.25463641 C19.0068952,5.25463641 20.0405697,4.20497804 20.0405697,2.91190825 C20.0405697,1.61798438 19.0068952,0.568326013 17.7335158,0.568326013 L11.9898516,0.568326013 L11.9898516,7.49829185 L13.3010791,7.49829185 L13.3010791,1.78965349 L17.6426803,1.78965349 C18.2541379,1.78965349 18.7470047,2.29184968 18.7470047,2.91190825 C18.7470047,3.53111274 18.2541379,4.03416301 17.6426803,4.03416301 L13.9444973,4.03245486 L17.8605173,7.49829185 L19.7672221,7.49829185 L17.1321511,5.25378233 L17.7335158,5.25463641 L17.7335158,5.25463641 Z M3.91221931,7.49829185 C2.02822344,7.49829185 0.5,5.94814544 0.5,4.03416301 C0.5,2.12018058 2.02822344,0.568326013 3.91221931,0.568326013 L7.87954455,0.568326013 C9.7643815,0.568326013 11.2917639,2.12018058 11.2917639,4.03416301 C11.2917639,5.94814544 9.7643815,7.5 7.87954455,7.5 L3.91221931,7.49829185 L3.91221931,7.49829185 Z M7.79123225,6.27781845 C9.01162422,6.27781845 9.99988098,5.27342606 9.99988098,4.03416301 C9.99988098,2.79489995 9.01162422,1.79050756 7.79123225,1.79050756 L4.00053162,1.78965349 C2.78013965,1.78965349 1.79104182,2.79489995 1.79104182,4.03416301 C1.79104182,5.27342606 2.78013965,6.27781845 4.00053162,6.27781845 L7.79123225,6.27781845 L7.79123225,6.27781845 Z M32.7146473,7.49829185 C30.8306514,7.49829185 29.3015869,5.94814544 29.3015869,4.03416301 C29.3015869,2.12018058 30.8306514,0.568326013 32.7146473,0.568326013 L37.4288423,0.568326013 L36.6558994,1.79050756 L32.8029596,1.78965349 C31.5817266,1.78965349 30.5926287,2.79489995 30.5926287,4.03416301 C30.5926287,5.27342606 31.5817266,6.27781845 32.8029596,6.27781845 L37.5348171,6.27781845 L36.7643974,7.49829185 L32.7146473,7.49829185 L32.7146473,7.49829185 Z M48.7689836,6.27781845 C47.758859,6.27781845 46.9043323,5.58772572 46.6436007,4.64738897 L52.2535349,4.64738897 L53.0264778,3.42520742 L46.6419186,3.42435334 C46.9034912,2.48145437 47.7563358,1.78965349 48.7689836,1.78965349 L52.6194001,1.79050756 L53.3931842,0.568326013 L48.6789891,0.568326013 C46.7949933,0.568326013 45.2659287,2.12018058 45.2659287,4.03416301 C45.2659287,5.94814544 46.7949933,7.49829185 48.6789891,7.49829185 L52.7287392,7.49829185 L53.5,6.27781845 L48.7689836,6.27781845 L48.7689836,6.27781845 Z" id="Fill-1"></path>
            </g>
        </g>
    </g>
</svg>