<?xml version="1.0" encoding="UTF-8" standalone="no"?>
<svg width="60px" height="60px" viewBox="0 0 60 60" version="1.1" xmlns="http://www.w3.org/2000/svg" xmlns:xlink="http://www.w3.org/1999/xlink" xmlns:sketch="http://www.bohemiancoding.com/sketch/ns">
    <!-- Generator: Sketch 3.3.1 (12005) - http://www.bohemiancoding.com/sketch -->
    <title>pandora</title>
    <desc>Created with Sketch.</desc>
    <defs></defs>
    <g id="Social-icons-grid" stroke="none" stroke-width="1" fill="none" fill-rule="evenodd" sketch:type="MSPage">
        <g id="pandora" sketch:type="MSLayerGroup">
            <rect id="circle" fill="#085682" sketch:type="MSShapeGroup" x="0" y="0" width="60" height="60" rx="80"></rect>
            <path d="M26.0569447,39.685916 C25.761019,39.3955034 25.5252548,38.9144154 25.4978935,38.5041809 C25.4218423,37.3648615 25.4858463,36.2170218 25.4612694,35.0731731 C25.4491294,34.5079592 25.6831487,34.3138125 26.2336796,34.3234094 C27.5631547,34.3466127 28.893261,34.3266764 30.2231074,34.3293865 C32.0035991,34.3330063 33.739856,34.0881093 35.3681712,33.3332779 C38.4641789,31.8982927 40.0216033,29.4206252 39.9997737,26.0470688 C39.9781111,22.6824039 38.4872152,20.0952354 35.2775298,18.8670937 C33.8420991,18.3180107 32.2200395,18.0968554 30.6708569,18.0377519 C27.4591111,17.9152199 24.2393833,17.9995128 21.0229969,18.0024272 C20.7214467,18.0027984 20.4198965,18.0296215 20.1017514,18.0448428 C19.8741548,19.0085039 20.005764,19.7723939 20.7274239,20.4558147 C21.0251687,20.7377071 21.2666316,21.242908 21.2691746,21.6482419 C21.3040724,27.2458629 21.303794,32.8438367 21.270177,38.4412721 C21.2677268,38.8477012 21.0396847,39.3579883 20.7438518,39.6366136 C20.0226374,40.3154866 19.8695513,41.0710419 20.1006933,42.0285402 L26.6691407,42.0285402 C26.8924493,41.0831819 26.7328291,40.349382 26.0569447,39.685916 L26.0569447,39.685916 Z M32.0987698,22.0198475 C34.4945946,22.2890429 35.7212884,23.916894 35.7142346,26.2000621 C35.7075335,28.3670281 34.3257488,30.0978462 32.0211037,30.3848061 C30.0381307,30.6318934 28.0127234,30.550125 26.0056561,30.5722517 C25.8326337,30.5742379 25.5056898,30.2657082 25.5037964,30.098403 C25.4720729,27.3823541 25.4813171,24.6659338 25.4813171,21.9696355 C27.7916609,21.9696355 29.9693375,21.7803893 32.0987698,22.0198475 L32.0987698,22.0198475 Z" id="Shape" fill="#FFFFFF" sketch:type="MSShapeGroup"></path>
        </g>
    </g>
</svg>