<?xml version="1.0" encoding="UTF-8" standalone="no"?>
<svg width="14px" height="13px" viewBox="0 0 14 13" version="1.1" xmlns="http://www.w3.org/2000/svg" xmlns:xlink="http://www.w3.org/1999/xlink" xmlns:sketch="http://www.bohemiancoding.com/sketch/ns">
    <!-- Generator: Sketch 3.3.2 (12043) - http://www.bohemiancoding.com/sketch -->
    <title>Rectangle</title>
    <desc>Created with Sketch.</desc>
    <defs></defs>
    <g id="Page-2" stroke="none" stroke-width="1" fill="none" fill-rule="evenodd" sketch:type="MSPage">
        <g id="bookmarks-copy-13" sketch:type="MSLayerGroup" transform="translate(-1359.000000, -840.000000)" fill="#FFFFFF">
            <g id="bookmarks-copy-6" sketch:type="MSShapeGroup">
                <g id="notifications--copy">
                    <g id="photo-3.1">
                        <g id="Background-+-Content-Background" transform="translate(386.000000, 260.000000)">
                            <g id="ok">
                                <path d="M985.782083,580 C986.45472,580 987,580.54096 987,581.21875 L987,581.21875 C987,581.891847 986.451183,582.4375 985.782083,582.4375 L974.217917,582.4375 C973.54528,582.4375 973,581.89654 973,581.21875 L973,581.21875 C973,580.545653 973.548817,580 974.217917,580 L985.782083,580 Z M974.775983,584.352679 C975.73411,584.352679 976.510825,585.125479 976.510825,586.09375 L976.510825,586.09375 C976.510825,587.055317 975.731659,587.834821 974.775983,587.834821 L974.734842,587.834821 C973.776715,587.834821 973,587.062021 973,586.09375 L973,586.09375 C973,585.132183 973.779166,584.352679 974.734842,584.352679 L974.775983,584.352679 Z M974.775983,589.517857 C975.73411,589.517857 976.510825,590.290658 976.510825,591.258929 L976.510825,591.258929 C976.510825,592.220496 975.731659,593 974.775983,593 L974.734842,593 C973.776715,593 973,592.2272 973,591.258929 L973,591.258929 C973,590.297361 973.779166,589.517857 974.734842,589.517857 L974.775983,589.517857 Z M979.983707,584.352679 C980.941834,584.352679 981.718549,585.125479 981.718549,586.09375 L981.718549,586.09375 C981.718549,587.055317 980.939383,587.834821 979.983707,587.834821 L979.942565,587.834821 C978.984439,587.834821 978.207724,587.062021 978.207724,586.09375 L978.207724,586.09375 C978.207724,585.132183 978.98689,584.352679 979.942565,584.352679 L979.983707,584.352679 Z M979.983707,589.517857 C980.941834,589.517857 981.718549,590.290658 981.718549,591.258929 L981.718549,591.258929 C981.718549,592.220496 980.939383,593 979.983707,593 L979.942565,593 C978.984439,593 978.207724,592.2272 978.207724,591.258929 L978.207724,591.258929 C978.207724,590.297361 978.98689,589.517857 979.942565,589.517857 L979.983707,589.517857 Z M985.191431,584.352679 C986.149557,584.352679 986.926273,585.125479 986.926273,586.09375 L986.926273,586.09375 C986.926273,587.055317 986.147107,587.834821 985.191431,587.834821 L985.150289,587.834821 C984.192163,587.834821 983.415448,587.062021 983.415448,586.09375 L983.415448,586.09375 C983.415448,585.132183 984.194613,584.352679 985.150289,584.352679 L985.191431,584.352679 Z M985.191431,589.517857 C986.149557,589.517857 986.926273,590.290658 986.926273,591.258929 L986.926273,591.258929 C986.926273,592.220496 986.147107,593 985.191431,593 L985.150289,593 C984.192163,593 983.415448,592.2272 983.415448,591.258929 L983.415448,591.258929 C983.415448,590.297361 984.194613,589.517857 985.150289,589.517857 L985.191431,589.517857 Z" id="Rectangle"></path>
                            </g>
                        </g>
                    </g>
                </g>
            </g>
        </g>
    </g>
</svg>