<?xml version="1.0" encoding="UTF-8" standalone="no"?>
<svg width="60px" height="60px" viewBox="0 0 60 60" version="1.1" xmlns="http://www.w3.org/2000/svg" xmlns:xlink="http://www.w3.org/1999/xlink" xmlns:sketch="http://www.bohemiancoding.com/sketch/ns">
    <!-- Generator: Sketch 3.3.1 (12005) - http://www.bohemiancoding.com/sketch -->
    <title>paypal</title>
    <desc>Created with Sketch.</desc>
    <defs></defs>
    <g id="Social-icons-grid" stroke="none" stroke-width="1" fill="none" fill-rule="evenodd" sketch:type="MSPage">
        <g id="paypal" sketch:type="MSLayerGroup">
            <rect id="circle" fill="#F3F3F3" sketch:type="MSShapeGroup" x="0" y="0" width="60" height="60" rx="80"></rect>
            <g id="Group-+-Group-+-Group" transform="translate(30.000000, 30.000000) scale(1, -1) translate(-30.000000, -30.000000) translate(15.000000, 12.500000)" sketch:type="MSShapeGroup">
                <g id="Group" transform="translate(0.000000, 3.636364)" fill="#003087">
                    <path d="M11.3277177,21.711459 C11.397572,22.1551279 11.6826529,22.5185589 12.0659073,22.7026343 C12.240543,22.7857042 12.4350021,22.8319591 12.6389011,22.8319591 L20.9534459,22.8319591 C21.9380133,22.8319591 22.8565024,22.7677687 23.6956975,22.63278 C23.9364115,22.594077 24.1695737,22.5497101 24.3961281,22.4987354 C24.6226824,22.4487046 24.842629,22.392066 25.0559676,22.3297636 C25.162637,22.2986123 25.2674184,22.2665171 25.3703118,22.232534 C25.7828295,22.0947134 26.1670279,21.9342374 26.5200752,21.7463861 C26.9363688,24.4017919 26.5172432,26.2076189 25.081455,27.8435302 C23.5002944,29.6446373 20.6447656,30.4168101 16.9906326,30.4168101 L6.38411292,30.4168101 C5.63742752,30.4168101 5.00213135,29.8730796 4.88507827,29.135834 L0.469156309,1.12993984 C0.381366497,0.576769628 0.808987841,0.0774060711 1.36782192,0.0774060711 L7.91618674,0.0774060711 L9.56059376,10.5074022 L11.3277177,21.711459 L11.3277177,21.711459 Z" id="Shape"></path>
                </g>
                <g id="Group" transform="translate(6.363636, 0.000000)" fill="#009CDE">
                    <path d="M19.823506,25.4873649 L19.823506,25.4873649 C19.7914108,25.2844099 19.7564837,25.0786231 19.7149487,24.8662284 C18.3169196,17.6853993 13.5309588,15.2017972 7.41871113,15.2017972 L4.30642069,15.2017972 C3.5597353,15.2017972 2.92915901,14.6580667 2.8130499,13.9208211 L1.21961761,3.81838485 L0.767452876,0.952472266 C0.690990781,0.469156309 1.06480547,0.0311512238 1.55378528,0.0311512238 L7.07321574,0.0311512238 C7.72644747,0.0311512238 8.28244961,0.506915368 8.38439907,1.1516513 L8.43820573,1.43295629 L9.47846781,8.02568801 L9.54549014,8.39006293 C9.6474396,9.03479886 10.2034417,9.51056301 10.8566735,9.51056301 L11.6826529,9.51056301 C17.0293356,9.51056301 21.2158713,11.6826529 22.4392648,17.9648163 C22.9499561,20.5900149 22.6856427,22.7819283 21.3348124,24.3215539 C20.9251266,24.7878783 20.4163233,25.1730207 19.823506,25.4873649" id="Shape"></path>
                </g>
                <g id="Group" transform="translate(9.090909, 14.090909)" fill="#012169">
                    <path d="M16.0476001,12.2716942 C15.8342614,12.3339967 15.6143149,12.3906352 15.3877606,12.440666 C15.1612062,12.4906967 14.9271,12.5350636 14.68733,12.5737667 C13.8471909,12.7096993 12.9296458,12.7738897 11.9441344,12.7738897 L3.63053353,12.7738897 C3.42569064,12.7738897 3.23123148,12.7276348 3.05753981,12.6436209 C2.67334138,12.4595455 2.38920446,12.0970586 2.3193502,11.6524456 L0.552226239,0.448388827 L0.501251509,0.121772966 C0.617360616,0.859018594 1.2479369,1.40274905 1.9946223,1.40274905 L5.10691274,1.40274905 C11.2191604,1.40274905 16.0051212,3.88540718 17.4031503,11.0671802 C17.4446853,11.2795749 17.4796124,11.4853618 17.5117076,11.6883167 C17.1577165,11.8752241 16.774462,12.0366441 16.3619443,12.1735207 C16.2590508,12.2075038 16.1542695,12.240543 16.0476001,12.2716942" id="Shape"></path>
                </g>
            </g>
        </g>
    </g>
</svg>