<?xml version="1.0" encoding="UTF-8" standalone="no"?>
<svg width="60px" height="60px" viewBox="0 0 60 60" version="1.1" xmlns="http://www.w3.org/2000/svg" xmlns:xlink="http://www.w3.org/1999/xlink" xmlns:sketch="http://www.bohemiancoding.com/sketch/ns">
    <!-- Generator: Sketch 3.3.1 (12005) - http://www.bohemiancoding.com/sketch -->
    <title>pinterest</title>
    <desc>Created with Sketch.</desc>
    <defs></defs>
    <g id="Social-icons-grid" stroke="none" stroke-width="1" fill="none" fill-rule="evenodd" sketch:type="MSPage">
        <path d="M30,0 C13.431284,0 3.55271368e-15,13.4314039 3.55271368e-15,30 C3.55271368e-15,46.5685961 13.4314039,60 30,60 C46.5684762,60 60,46.5685961 60,30 C60,13.4314039 46.5684762,0 30,0 L30,0 Z M33.9355213,39.8750799 C31.5911417,39.8750799 29.3863527,38.6076111 28.6320355,37.168772 C28.6320355,37.168772 27.3708027,42.1708906 27.104693,43.1367525 C26.1647346,46.5480892 23.3990646,49.962424 23.1846418,50.2419651 C23.0348577,50.4364807 22.7038695,50.3751999 22.6690918,50.1177247 C22.6091302,49.6831228 21.9044611,45.3782379 22.7339703,41.8667653 C23.1503438,40.1035337 25.5267429,30.0357371 25.5267429,30.0357371 C25.5267429,30.0357371 24.8339463,28.6493044 24.8339463,26.600056 C24.8339463,23.3821554 26.6994723,20.9802127 29.0214263,20.9802127 C30.9957227,20.9802127 31.9498321,22.4625839 31.9498321,24.2398465 C31.9498321,26.2252958 30.6856012,29.1936361 30.032739,31.9440758 C29.4879277,34.2480413 31.1880796,36.126639 33.4595459,36.126639 C37.5724336,36.126639 40.3430205,30.8427007 40.3430205,24.5823473 C40.3430205,19.8245123 37.1396306,16.2618324 31.3092021,16.2618324 C24.7243364,16.2618324 20.6192437,21.1735289 20.6192437,26.6606172 C20.6192437,28.5519268 21.1779661,29.8869124 22.0523265,30.9186121 C22.4537096,31.3933882 22.5100736,31.5840662 22.3646067,32.1289974 C22.2588343,32.5289415 22.0213863,33.4903662 21.9208906,33.8713623 C21.7769827,34.42181 21.331228,34.6180045 20.8341461,34.4146146 C17.8018868,33.176527 16.3881116,29.8542933 16.3881116,26.1198833 C16.3881116,19.9524704 21.5896626,12.5564439 31.9051007,12.5564439 C40.1956348,12.5564439 45.6507035,18.5541653 45.6507035,24.9947634 C45.6508235,33.5119524 40.9152942,39.8750799 33.9355213,39.8750799 L33.9355213,39.8750799 Z" id="pinterest" fill="#CB2128" sketch:type="MSShapeGroup"></path>
    </g>
</svg>