<?xml version="1.0" encoding="UTF-8" standalone="no"?>
<svg width="60px" height="60px" viewBox="0 0 60 60" version="1.1" xmlns="http://www.w3.org/2000/svg" xmlns:xlink="http://www.w3.org/1999/xlink" xmlns:sketch="http://www.bohemiancoding.com/sketch/ns">
    <!-- Generator: Sketch 3.3.1 (12005) - http://www.bohemiancoding.com/sketch -->
    <title>rdio</title>
    <desc>Created with Sketch.</desc>
    <defs></defs>
    <g id="Social-icons-grid" stroke="none" stroke-width="1" fill="none" fill-rule="evenodd" sketch:type="MSPage">
        <g id="rdio" sketch:type="MSLayerGroup">
            <rect id="circle" fill="#4094CD" sketch:type="MSShapeGroup" x="0" y="0" width="60" height="60" rx="80"></rect>
            <path d="M32.5089286,17.5191394 C31.3305443,17.1812156 30.0841341,17 28.7946429,17 C21.4867321,17 15.5625,22.8202983 15.5625,30 C15.5625,37.1797017 21.4867321,43 28.7946429,43 C36.1025536,43 42.0267857,37.1797017 42.0267857,30 C42.0267857,29.4023636 41.9857376,28.8141462 41.9062601,28.2379208 L41.9062601,28.2379208 C45.0850262,27.3589369 47.2835305,24.6961013 46.2053571,23.0357143 C43.540336,23.0357143 41.8313983,23.0357143 36.7084971,19.5803274 C36.1880871,19.1982001 35.6380931,18.8528206 35.0625,18.5481039 L35.0625,30 L35.0544059,30 C34.8739229,32.6029249 31.6983605,35.3392857 27.8660714,35.3392857 C24.3839286,35.3392857 22.2946429,33.25 22.2946429,30.6964286 C22.2946429,27.9107143 25.6607143,24.4285714 29.7232143,24.4285714 C30.7869948,24.4285714 31.7264205,24.6640752 32.5089286,25.0910654 L32.5089286,17.5191394 Z" fill="#FFFFFF" sketch:type="MSShapeGroup"></path>
        </g>
    </g>
</svg>