<?xml version="1.0" encoding="utf-8"?>
<!-- Generator: Adobe Illustrator 16.0.0, SVG Export Plug-In . SVG Version: 6.00 Build 0)  -->
<!DOCTYPE svg PUBLIC "-//W3C//DTD SVG 1.1//EN" "http://www.w3.org/Graphics/SVG/1.1/DTD/svg11.dtd">
<svg version="1.1" id="Layer_1" xmlns="http://www.w3.org/2000/svg" xmlns:xlink="http://www.w3.org/1999/xlink" x="0px" y="0px"
	 width="60px" height="60px" viewBox="0 0 60 60" enable-background="new 0 0 60 60" xml:space="preserve">
<g>
	<path fill="#FFFFFF" d="M19.09,10.91c0.502,0,0.91-0.409,0.91-0.91s-0.408-0.91-0.91-0.91h-0.575
		c-0.059-0.56-0.171-1.104-0.334-1.626l0.526-0.227c0.462-0.199,0.674-0.733,0.476-1.195c-0.199-0.46-0.733-0.674-1.195-0.475
		l-0.534,0.23c-0.235-0.414-0.499-0.807-0.796-1.173l0.41-0.411c0.355-0.355,0.355-0.932,0-1.285c-0.354-0.355-0.93-0.355-1.285,0
		l-0.41,0.411c-0.43-0.346-0.892-0.652-1.382-0.911l0.214-0.539c0.185-0.466-0.042-0.996-0.508-1.18
		c-0.467-0.185-0.995,0.042-1.182,0.509l-0.213,0.539c-0.452-0.125-0.915-0.222-1.392-0.273V0.909C10.91,0.408,10.501,0,10,0
		S9.09,0.408,9.09,0.91v0.576C8.531,1.545,7.986,1.658,7.465,1.82L7.239,1.292C7.04,0.83,6.506,0.618,6.044,0.816
		C5.582,1.015,5.369,1.55,5.569,2.01l0.23,0.535C5.386,2.779,4.993,3.044,4.626,3.34L4.214,2.927c-0.354-0.354-0.932-0.354-1.285,0
		c-0.355,0.355-0.355,0.931,0,1.286l0.412,0.412C2.995,5.055,2.688,5.519,2.429,6.01l-0.54-0.217
		c-0.466-0.185-0.995,0.042-1.18,0.509C0.522,6.77,0.75,7.299,1.218,7.483L1.759,7.7C1.633,8.15,1.536,8.614,1.486,9.09H0.909
		C0.408,9.09,0,9.499,0,10s0.408,0.91,0.909,0.91h0.578c0.059,0.559,0.171,1.102,0.334,1.624l-0.529,0.229
		c-0.461,0.199-0.674,0.732-0.476,1.193c0.149,0.344,0.484,0.55,0.835,0.55c0.121,0,0.243-0.024,0.36-0.075L2.546,14.2
		c0.234,0.413,0.499,0.806,0.794,1.172l-0.412,0.412c-0.355,0.355-0.355,0.931,0,1.287c0.177,0.177,0.41,0.266,0.643,0.266
		c0.233,0,0.466-0.089,0.643-0.266l0.413-0.413c0.43,0.346,0.891,0.652,1.382,0.913l-0.215,0.54
		c-0.185,0.466,0.042,0.996,0.509,1.18c0.111,0.043,0.225,0.065,0.336,0.065c0.361,0,0.703-0.217,0.845-0.574l0.216-0.542
		c0.451,0.126,0.912,0.223,1.391,0.273v0.576C9.09,19.592,9.499,20,10,20s0.91-0.408,0.91-0.909v-0.576
		c0.559-0.059,1.102-0.171,1.625-0.334l0.228,0.527c0.148,0.343,0.482,0.549,0.835,0.549c0.12,0,0.241-0.024,0.358-0.075
		c0.462-0.199,0.674-0.733,0.475-1.194l-0.23-0.535c0.414-0.234,0.806-0.499,1.172-0.794l0.412,0.411
		c0.179,0.177,0.41,0.266,0.644,0.266c0.232,0,0.465-0.089,0.643-0.266c0.355-0.355,0.355-0.93,0-1.285l-0.411-0.412
		c0.347-0.428,0.652-0.891,0.911-1.382l0.539,0.214c0.11,0.043,0.224,0.065,0.335,0.065c0.363,0,0.704-0.217,0.847-0.574
		c0.185-0.468-0.043-0.995-0.509-1.18l-0.541-0.216c0.126-0.452,0.224-0.915,0.274-1.392L19.09,10.91L19.09,10.91z M10.001,16.746
		c-3.72,0-6.746-3.026-6.746-6.746s3.026-6.746,6.746-6.746c3.72,0,6.745,3.026,6.745,6.746S13.721,16.746,10.001,16.746z"/>
	<circle fill="#FFFFFF" cx="10" cy="10" r="2.258"/>
</g>
</svg>
