<?xml version="1.0" encoding="UTF-8" standalone="no"?>
<svg width="60px" height="60px" viewBox="0 0 60 60" version="1.1" xmlns="http://www.w3.org/2000/svg" xmlns:xlink="http://www.w3.org/1999/xlink" xmlns:sketch="http://www.bohemiancoding.com/sketch/ns">
    <!-- Generator: Sketch 3.3.2 (12043) - http://www.bohemiancoding.com/sketch -->
    <title>shoppingyahoo</title>
    <desc>Created with Sketch.</desc>
    <defs></defs>
    <g id="Social-icons-grid" stroke="none" stroke-width="1" fill="none" fill-rule="evenodd" sketch:type="MSPage">
        <g id="shoppingyahoo" sketch:type="MSLayerGroup">
            <rect id="Rectangle-2-Copy-7" fill="#510098" sketch:type="MSShapeGroup" x="0" y="0" width="60" height="60" rx="80"></rect>
            <path d="M36.2192,21.4102857 L36.2192,17.9222857 L32.2432667,14 L27.1633333,14 L23.1444667,17.9222857 L23.1444667,21.4102857 L18.5,21.4102857 L18.5,43.6624762 C21.3428,44.488381 25.2788667,44.9988571 29.6427333,44.9988571 C33.9805333,44.9988571 37.8982,44.4899048 40.7333333,43.6746667 L40.8468,43.6746667 C40.8544667,43.6594286 40.8544667,43.6472381 40.8590667,43.6365714 L40.8652,43.6365714 L40.8652,21.4133333 L36.2192,21.4133333 L36.2192,21.4102857 L36.2192,21.4102857 Z M25.4153333,16.5615238 L33.9498667,16.5615238 L33.9498667,21.4102857 L25.4184,21.4102857 L25.4184,16.5615238 L25.4153333,16.5615238 L25.4153333,16.5615238 Z M23.146,23.2617143 L25.4184,23.2617143 L25.4184,28.1059048 L33.9498667,28.1059048 L33.9498667,23.2617143 L36.2207333,23.2617143 L36.2207333,26.7481905 L32.2463333,30.6689524 L27.1648667,30.6689524 L23.146,26.7481905 L23.146,23.2617143 L23.146,23.2617143 Z" id="Imported-Layers-Copy-13" fill="#FFFFFF" sketch:type="MSShapeGroup"></path>
        </g>
    </g>
</svg>