<?xml version="1.0" encoding="UTF-8" standalone="no"?>
<svg width="60px" height="60px" viewBox="0 0 60 60" version="1.1" xmlns="http://www.w3.org/2000/svg" xmlns:xlink="http://www.w3.org/1999/xlink" xmlns:sketch="http://www.bohemiancoding.com/sketch/ns">
    <!-- Generator: Sketch 3.3.2 (12043) - http://www.bohemiancoding.com/sketch -->
    <title>slideshare</title>
    <desc>Created with Sketch.</desc>
    <defs></defs>
    <g id="Social-icons-grid" stroke="none" stroke-width="1" fill="none" fill-rule="evenodd" sketch:type="MSPage">
        <g id="slideshare" sketch:type="MSLayerGroup">
            <rect id="Path" fill="#0175B1" sketch:type="MSShapeGroup" x="0" y="0" width="60" height="60" rx="80"></rect>
            <path d="M30.4932529,34.9321104 C30.5767318,33.7969507 31.2075133,33.061684 32.9053174,33.14746 C35.2143811,33.2205365 39.4708035,33.6908294 44.4154465,30.9952255 L44.4154465,30.9952255 L44.4154465,17.2190739 C44.4154465,14.8511019 43.6512297,13.9130512 41.4875901,13.9130512 L18.7247627,13.9130512 C16.4411726,13.9130512 15.8055727,14.702309 15.8055727,17.2190739 L15.8055727,31.1138941 L15.8055727,31.1138941 C20.6559743,33.6768705 24.8197644,33.2194452 27.0945122,33.14746 C28.0598609,33.0986889 28.6803604,33.3153533 29.0514298,33.720038 C29.1119016,33.7718256 29.1748767,33.8284898 29.2404251,33.8902324 C29.6680894,34.290374 30.08566,34.6392034 30.4932529,34.9321104 Z M29.5114817,38.0673942 C29.5060095,41.0209784 29.4982498,45.1858905 29.4982498,45.0540682 C29.7099851,52.1585801 15.8329506,49.9574786 19.8661638,36.100472 C16.0539431,34.5221551 13.567875,32.5155373 12.260237,30.8996745 C11.588199,29.8964649 12.3065234,28.8467699 13.4020321,29.61795 C13.5498593,29.724388 13.6972635,29.8277547 13.8442142,29.9281362 L13.8442142,15.5940729 C13.8442142,13.6061287 15.3263615,12 17.1500427,12 L42.8684983,12 C44.6919826,12 46.1747208,13.6061287 46.1747208,15.5940729 L46.1747208,29.9150886 C46.3153419,29.8188035 46.4563764,29.7197823 46.5977975,29.61795 C47.6938971,28.8467699 48.4116306,29.8964649 47.7397895,30.8996745 C46.4323485,32.5155373 43.9458865,34.5221551 40.1336658,36.100472 C44.1763333,49.9574786 30.2898445,52.1585801 30.5017768,45.0540682 C30.5017768,45.1630634 30.4965283,42.3345765 30.4916501,39.6821436 C31.2932047,39.7540668 34.6557305,39.8832652 36.1935047,37.2075357 C35.6439603,37.6794075 34.9349056,38.0785603 34.0285979,38.2920381 C31.8036913,38.8047504 31.1283832,38.4514752 29.5114817,38.0673942 Z M29.5256277,27.2775911 C29.5256277,29.5811988 27.5461486,31.4477646 25.1059729,31.4477646 C22.6657971,31.4477646 20.6861211,29.5811988 20.6861211,27.2775911 C20.6861211,24.9743808 22.6657971,23.1076163 25.1059729,23.1076163 C27.5461486,23.1076163 29.5256277,24.9743808 29.5256277,27.2775911 Z M30.9713368,27.2775911 C30.9713368,29.5811988 32.9514067,31.4477646 35.3915824,31.4477646 C37.8315612,31.4477646 39.8116312,29.5811988 39.8116312,27.2775911 C39.8116312,24.9743808 37.8315612,23.1076163 35.3915824,23.1076163 C32.9514067,23.1076163 30.9713368,24.9743808 30.9713368,27.2775911 Z" id="Fill-11" fill="#FFFFFF" sketch:type="MSShapeGroup"></path>
        </g>
    </g>
</svg>