<?xml version="1.0" encoding="UTF-8" standalone="no"?>
<svg width="60px" height="60px" viewBox="0 0 60 60" version="1.1" xmlns="http://www.w3.org/2000/svg" xmlns:xlink="http://www.w3.org/1999/xlink" xmlns:sketch="http://www.bohemiancoding.com/sketch/ns">
    <!-- Generator: Sketch 3.3.2 (12043) - http://www.bohemiancoding.com/sketch -->
    <title>soundcloud</title>
    <desc>Created with Sketch.</desc>
    <defs>
        <linearGradient x1="50%" y1="0%" x2="50%" y2="100%" id="linearGradient-1">
            <stop stop-color="#FE9B00" offset="0%"></stop>
            <stop stop-color="#FF5D00" offset="49.6771365%"></stop>
            <stop stop-color="#FF1E00" offset="100%"></stop>
        </linearGradient>
    </defs>
    <g id="Social-icons-grid" stroke="none" stroke-width="1" fill="none" fill-rule="evenodd" sketch:type="MSPage">
        <g id="soundcloud" sketch:type="MSLayerGroup">
            <rect id="Rectangle-1" fill="url(#linearGradient-1)" sketch:type="MSShapeGroup" x="0" y="0" width="60" height="60" rx="80"></rect>
            <path d="M44.6412169,27.5384765 C43.8859232,22.3284948 39.5666231,18.3333333 34.3442581,18.3333333 C33.0126452,18.3333333 31.7145806,18.6058903 30.5682581,19.066769 C30.1228387,19.2459698 30.004129,19.430536 30,19.7884011 L30,39.2644182 C30.0046452,39.6399888 30.2849032,39.9527854 30.6374194,39.9898059 C30.6499978,39.9911586 42.1228029,39.997437 45.8478338,39.999407 C46.3716613,40.1795307 46.9261541,40.2761905 47.5,40.2761905 C50.721661,40.2761905 53.3333333,37.2295948 53.3333333,33.4714286 C53.3333333,29.7132623 50.721661,26.6666667 47.5,26.6666667 C46.4613035,26.6666667 45.4860143,26.9833553 44.6412169,27.5384765 Z M7.45366218,31.4910196 C7.30866966,31.4910196 7.1935725,31.5728272 7.17488789,31.6895393 L6.66666667,34.5064479 L7.17488789,37.2748174 C7.1935725,37.3915295 7.30866966,37.4727918 7.45366218,37.4727918 C7.5941704,37.4727918 7.70852018,37.3920749 7.7309417,37.2759081 L7.7309417,37.2753627 C7.7309417,37.2753627 7.7309417,37.2753627 7.7309417,37.2759081 L8.33333333,34.5064479 L7.7309417,31.688994 C7.70926756,31.5728272 7.59342302,31.4910196 7.45366218,31.4910196 Z M11.0316587,29.9519458 C11.0121012,29.8308705 10.9149248,29.7474268 10.7951351,29.7474268 C10.6747341,29.7474268 10.5751131,29.8335974 10.5586114,29.9519458 C10.5586114,29.9530365 10,34.5064479 10,34.5064479 L10.5586114,38.960054 C10.5745019,39.0794932 10.674123,39.1656638 10.7951351,39.1656638 C10.9143137,39.1656638 11.01149,39.0816747 11.0310475,38.9611448 L11.6666667,34.5064479 L11.0316587,29.9519458 Z M17.5144294,25.7508525 C17.3031379,25.7508525 17.1284704,25.9182854 17.1183284,26.1309852 L16.7081413,34.5102656 L17.1183284,39.9253838 C17.1290338,40.1369928 17.3031379,40.3038803 17.5144294,40.3038803 C17.7245939,40.3038803 17.898698,40.1364474 17.9110938,39.924293 L17.9110938,39.9259292 L18.374808,34.5102656 L17.9110938,26.1309852 C17.898698,25.9182854 17.7245939,25.7508525 17.5144294,25.7508525 Z M14.1341306,28.6632033 C13.9652949,28.6632033 13.8275296,28.7886416 13.8140462,28.9560745 L13.3333333,34.5080841 L13.8140462,39.8795715 C13.8269434,40.0459137 13.9652949,40.171352 14.1341306,40.171352 C14.3012076,40.171352 14.4389729,40.0459137 14.4536288,39.8795715 L15,34.5080841 L14.4536288,28.9549837 C14.4389729,28.7886416 14.3012076,28.6632033 14.1341306,28.6632033 Z M20.8113535,40.303335 C21.0637143,40.303335 21.2688592,40.0988159 21.2791707,39.8370316 L21.6666667,34.5129925 L21.2797134,23.3571619 C21.2694019,23.0953776 21.064257,22.8908585 20.8118962,22.8908585 C20.5573646,22.8908585 20.351677,23.0959229 20.3435363,23.3577073 C20.3435363,23.3582527 20,34.5124472 20,34.5124472 L20.3435363,39.8386677 C20.351677,40.0982706 20.5573646,40.303335 20.8113535,40.303335 Z M27.4866283,40.3284226 C27.8095671,40.3284226 28.0759915,40.0410052 28.0820466,39.6875964 L28.0820466,39.6914141 L28.0820466,39.6875964 L28.3333333,34.5162648 L28.0820466,21.6321122 C28.0764961,21.2792487 27.8095671,20.9912859 27.4866283,20.9912859 C27.163185,20.9912859 26.8962559,21.2787033 26.89121,21.6326576 L26.6666667,34.5119018 C26.6666667,34.5200825 26.89121,39.6908687 26.89121,39.6908687 C26.8962559,40.0410052 27.1636896,40.3284226 27.4866283,40.3284226 Z M24.1496812,40.3082434 C24.440786,40.3082434 24.6754468,40.0644567 24.6832863,39.7535878 L24.6832863,39.7574055 L25,34.5140833 L24.6827637,23.2775358 C24.6749242,22.9666669 24.4402634,22.7234256 24.1491586,22.7234256 C23.8559632,22.7234256 23.6213024,22.9666669 23.6150308,23.2775358 L23.3333333,34.5146287 L23.6155535,39.7568601 C23.621825,40.0644567 23.8564858,40.3082434 24.1496812,40.3082434 Z" id="Shape" fill="#FFFFFF" sketch:type="MSShapeGroup"></path>
        </g>
    </g>
</svg>