<?xml version="1.0" encoding="UTF-8" standalone="no"?>
<svg width="60px" height="60px" viewBox="0 0 60 60" version="1.1" xmlns="http://www.w3.org/2000/svg" xmlns:xlink="http://www.w3.org/1999/xlink" xmlns:sketch="http://www.bohemiancoding.com/sketch/ns">
    <!-- Generator: Sketch 3.3.2 (12043) - http://www.bohemiancoding.com/sketch -->
    <title>spotify</title>
    <desc>Created with Sketch.</desc>
    <defs>
        <radialGradient cx="50.8262172%" cy="19.7598471%" fx="50.8262172%" fy="19.7598471%" r="50%" id="radialGradient-1">
            <stop stop-color="#A9D03F" offset="0%"></stop>
            <stop stop-color="#A9D03F" offset="7.105015%"></stop>
            <stop stop-color="#A1CC3E" offset="24.677444%"></stop>
            <stop stop-color="#94C93D" offset="45.569649%"></stop>
            <stop stop-color="#8DC540" offset="59.65941%"></stop>
            <stop stop-color="#84BC41" offset="79.657596%"></stop>
            <stop stop-color="#79B641" offset="100%"></stop>
        </radialGradient>
    </defs>
    <g id="Social-icons-grid" stroke="none" stroke-width="1" fill="none" fill-rule="evenodd" sketch:type="MSPage">
        <g id="spotify" sketch:type="MSLayerGroup">
            <g id="Oval-16-+-spotify-2" sketch:type="MSShapeGroup">
                <circle id="Oval-16" fill="#FFFFFF" cx="29.9990055" cy="29.9990055" r="24.2716006"></circle>
                <path d="M30,1.0658141e-14 C13.4316255,1.0658141e-14 0,13.4303538 0,29.998736 C0,46.5671101 13.4316255,59.998736 30,59.998736 C46.5683745,59.998736 60,46.5671101 60,29.998736 C60,13.4303538 46.5683745,1.0658141e-14 30,1.0658141e-14 L30,1.0658141e-14 Z M25.5979912,15.6570749 C34.4069785,15.6570749 43.675279,17.4691155 50.4452228,21.4453937 C51.3577381,21.9622282 51.9910533,22.7414625 51.9910533,24.1699041 C51.9910533,25.8052708 50.6766041,26.9805051 49.1614619,26.9805051 C48.5506602,26.9805051 48.1882558,26.8318947 47.6156313,26.5183997 C42.1854903,23.2624011 33.7589011,21.4694463 25.6093856,21.4694463 C21.541371,21.4694463 17.4096725,21.8831465 13.6250844,22.9101958 C13.1891989,23.0198933 12.6383332,23.2381013 12.0868501,23.2381013 C10.4864933,23.2381013 9.25852465,21.9720162 9.25852465,20.3717947 C9.25852465,18.7414679 10.2689386,17.8262795 11.3588791,17.5042201 C15.6353433,16.2443538 20.4088651,15.6570749 25.5979912,15.6570749 L25.5979912,15.6570749 Z M24.9864956,25.9651398 C32.8389954,25.9651398 40.4354747,27.9208724 46.4078325,31.495187 C47.4090766,32.0693194 47.777684,32.7984024 47.777684,33.8664754 C47.777684,35.1654814 46.7435145,36.214971 45.4393147,36.214971 C44.788375,36.214971 44.3789084,35.9519392 43.9365294,35.694632 C39.056498,32.7986334 32.2929618,30.8748332 24.8864787,30.8748332 C21.0877681,30.8748332 17.808933,31.4067508 15.0949527,32.1294733 C14.5102246,32.2903997 14.182415,32.463707 13.6352127,32.463707 C12.3449717,32.463707 11.2917792,31.4123052 11.2917792,30.1114112 C11.2917792,28.8357164 11.9104992,27.9573342 13.1579169,27.605923 C16.5302679,26.6797394 19.9740409,25.9651398 24.9864956,25.9651398 L24.9864956,25.9651398 Z M25.3979575,35.761734 C31.9627074,35.761734 37.8134163,37.2677259 42.847738,40.2852802 C43.5970254,40.7227373 44.0365463,41.1697637 44.0365463,42.2792897 C44.0365463,43.3607806 43.157024,44.1555517 42.1704085,44.1555517 C41.6852492,44.1555517 41.3542562,43.9872478 40.9005739,43.7111749 C36.5526871,41.0806671 31.1314736,39.6978393 25.3777009,39.6978393 C22.1677021,39.6978393 18.936961,40.1095179 15.9153444,40.7385213 C15.4240065,40.8450385 14.805696,41.0347738 14.4366138,41.0347738 C13.2973506,41.0347738 12.5375591,40.1298231 12.5375591,39.1496475 C12.5375591,37.8890398 13.2648891,37.2613491 14.1694801,37.0885402 C17.874869,36.244104 21.5651007,35.761734 25.3979575,35.761734 L25.3979575,35.761734 Z" id="spotify-2" fill="url(#radialGradient-1)"></path>
            </g>
        </g>
    </g>
</svg>