<?xml version="1.0" encoding="UTF-8" standalone="no"?>
<svg width="60px" height="60px" viewBox="0 0 60 60" version="1.1" xmlns="http://www.w3.org/2000/svg" xmlns:xlink="http://www.w3.org/1999/xlink" xmlns:sketch="http://www.bohemiancoding.com/sketch/ns">
    <!-- Generator: Sketch 3.3.1 (12005) - http://www.bohemiancoding.com/sketch -->
    <title>target</title>
    <desc>Created with Sketch.</desc>
    <defs></defs>
    <g id="Social-icons-grid" stroke="none" stroke-width="1" fill="none" fill-rule="evenodd" sketch:type="MSPage">
        <g id="target" sketch:type="MSLayerGroup">
            <path d="M60,30.0000003 C60,46.5600004 46.5599984,60 30.0000025,60 C13.4399991,60 0,46.5600004 0,30.0000003 C0,13.4400011 13.4399991,0 30.0000025,0 C46.5599984,0 60,13.4400011 60,30.0000003 L60,30.0000003 Z" id="path2760" fill="#CC0000" sketch:type="MSShapeGroup"></path>
            <path d="M30,10.3333333 C18.9529412,10.3333333 10.0000031,19.1382149 10,30.0000005 C10,40.8621701 18.9529349,49.6666667 30,49.6666667 C41.0470595,49.6666667 49.9999937,40.8621701 50,30.0000005 C50,19.1382149 41.0470532,10.3333333 30,10.3333333 L30,10.3333333 Z M30,16.8888887 C37.3647059,16.8888887 43.3333271,22.7595817 43.3333333,30.0000005 C43.3333333,37.2404186 37.3646996,43.1111113 30,43.1111113 C22.6352941,43.1111113 16.6666698,37.2404186 16.6666667,30.0000005 C16.6666667,22.7595817 22.6352878,16.8888887 30,16.8888887 L30,16.8888887 Z M30,23.4444444 C26.3176408,23.4444444 23.3333333,26.3797908 23.3333333,30.0000005 C23.3333365,33.6205951 26.3176471,36.5555559 30,36.5555559 C33.6823467,36.5555559 36.6666667,33.6205951 36.6666667,30.0000005 C36.6666604,26.3797908 33.6823529,23.4444444 30,23.4444444 L30,23.4444444 Z M46.4705882,45.0392158 C45.8313788,45.0392158 45.2941176,45.5335818 45.2941176,46.1960785 C45.2941114,46.8659051 45.8313725,47.3529412 46.4705882,47.3529412 C47.1019671,47.3529412 47.6470588,46.865902 47.6470588,46.1960785 C47.6470525,45.5335849 47.1019608,45.0392158 46.4705882,45.0392158 L46.4705882,45.0392158 Z M46.4705882,45.2320262 C46.9960847,45.2320262 47.4117647,45.6477256 47.4117647,46.1960785 C47.411771,46.7529182 46.9960784,47.1601308 46.4705882,47.1601308 C45.9372612,47.1601308 45.5294118,46.7529151 45.5294118,46.1960785 C45.5294055,45.6477287 45.9372549,45.2320262 46.4705882,45.2320262 L46.4705882,45.2320262 Z M46.0196078,45.5308824 L46.0196078,46.8612746 L46.2254902,46.8612746 L46.2254902,46.2828432 L46.4607843,46.2828432 L46.8137255,46.8612746 L47.0392157,46.8612746 L46.6568627,46.2732027 C46.8490165,46.2469866 47.0098039,46.1455622 47.0098039,45.9068628 C47.0098071,45.6423269 46.8529412,45.5308824 46.5392157,45.5308824 L46.0196078,45.5308824 L46.0196078,45.5308824 Z M46.2254902,45.7044119 L46.5,45.7044119 C46.6411733,45.7044149 46.7941176,45.7321766 46.7941176,45.8972223 C46.7941176,46.101987 46.6431373,46.1093138 46.4705882,46.1093138 L46.2254902,46.1093138 L46.2254902,45.7044119 L46.2254902,45.7044119 Z" id="path2608" fill="#FFFFFF" sketch:type="MSShapeGroup"></path>
        </g>
    </g>
</svg>