<?xml version="1.0" encoding="UTF-8" standalone="no"?>
<svg width="60px" height="60px" viewBox="0 0 60 60" version="1.1" xmlns="http://www.w3.org/2000/svg" xmlns:xlink="http://www.w3.org/1999/xlink" xmlns:sketch="http://www.bohemiancoding.com/sketch/ns">
    <!-- Generator: Sketch 3.3.2 (12043) - http://www.bohemiancoding.com/sketch -->
    <title>ted</title>
    <desc>Created with Sketch.</desc>
    <defs></defs>
    <g id="Social-icons-grid" stroke="none" stroke-width="1" fill="none" fill-rule="evenodd" sketch:type="MSPage">
        <g id="ted" sketch:type="MSLayerGroup">
            <rect id="Path" fill="#DB352A" sketch:type="MSShapeGroup" x="0" y="0" width="60" height="60" rx="80"></rect>
            <path d="M11.4021604,25.9383899 L6.66666667,25.9383899 L6.66666667,21.6666667 L21.3389682,21.6666667 L21.3389682,25.9383899 L16.6050713,25.9383899 L16.6050713,38.3333333 L11.4021604,38.3333333 L11.4021604,25.9383899 Z M22.1567487,21.6666667 L36.3999589,21.6666667 L36.3999589,25.9383899 L27.3630132,25.9383899 L27.3630132,28.0152655 L36.3999589,28.0152655 L36.3999589,31.9847345 L27.3630132,31.9847345 L27.3630132,34.0617676 L36.4023543,34.0617676 L36.4023543,38.3333333 L22.1567487,38.3333333 L22.1567487,21.6666667 Z M42.3737011,34.0617676 L44.4097686,34.0617676 C47.6529446,34.0617676 48.1270689,31.469847 48.1270689,29.9042363 C48.1270689,28.8558756 47.7939523,25.9383899 44.0306608,25.9383899 L42.3737011,25.9383899 L42.3737011,34.0617676 Z M37.167756,21.6666667 L45.7112548,21.6666667 C51.3429376,21.6666667 53.3333333,25.7750561 53.3333333,29.975429 C53.3333333,35.0890225 50.5879159,38.3333333 44.6946583,38.3333333 L37.167756,38.3333333 L37.167756,21.6666667 L37.167756,21.6666667 Z" id="Fill-35" fill="#FFFFFF" sketch:type="MSShapeGroup"></path>
        </g>
    </g>
</svg>