<?xml version="1.0" encoding="UTF-8" standalone="no"?>
<svg width="60px" height="60px" viewBox="0 0 60 60" version="1.1" xmlns="http://www.w3.org/2000/svg" xmlns:xlink="http://www.w3.org/1999/xlink" xmlns:sketch="http://www.bohemiancoding.com/sketch/ns">
    <!-- Generator: Sketch 3.3.2 (12043) - http://www.bohemiancoding.com/sketch -->
    <title>theverge</title>
    <desc>Created with Sketch.</desc>
    <defs></defs>
    <g id="Social-icons-grid" stroke="none" stroke-width="1" fill="none" fill-rule="evenodd" sketch:type="MSPage">
        <g id="theverge" sketch:type="MSLayerGroup">
            <rect id="Rectangle-9" fill="#000000" sketch:type="MSShapeGroup" x="0" y="0" width="60" height="60" rx="80"></rect>
            <g id="path3080-path-+-path3064-path-+-path3060-path" transform="translate(10.000000, 14.500000)" sketch:type="MSShapeGroup">
                <path d="M16.5161909,32.8029892 C15.3558064,30.7678064 3.30153425,9.70097487 1.01492877,5.71197329 C0.451654795,4.72933816 0.0113936073,3.87966711 0.0365707763,3.82381539 C0.061747032,3.76796368 0.548979909,2.91404289 1.1193105,1.92621395 L2.15627397,0.130161316 L19.9602941,0.106904461 L37.7643132,0.0836476053 L38.8745479,2.01929553 L39.9847826,3.95494382 L34.5949854,13.3714995 C31.6305963,18.5506061 27.6374447,25.5328417 25.7213151,28.8875788 L22.2374429,34.9871025 L20,34.988042 L17.7625571,34.9889814 L16.5161909,32.8029957 L16.5161909,32.8029892 Z M19.4547927,16.4327929 C20.3228648,14.9130561 21.76641,12.3913162 22.6626712,10.8289263 C23.5589324,9.26653737 24.2922374,7.95058342 24.2922374,7.90458421 C24.2922374,7.85525539 21.6108055,7.82095079 17.754947,7.82095079 C13.6986265,7.82095079 11.2292091,7.85391987 11.2480977,7.90782355 C11.3626119,8.23462224 17.7743169,19.3109636 17.8195178,19.2600772 C17.8508466,19.2248074 18.5867205,17.9525297 19.4547927,16.4327929 L19.4547927,16.4327929 Z" id="path3080-path" fill="#DBE0E5"></path>
                <path d="M17.7318822,19.640297 C17.8597379,19.6243646 17.8785269,19.558537 17.8491982,19.5106772 C17.7880521,19.4108941 17.9289132,19.1444372 19.3789205,16.6170034 C21.4370913,13.0295108 22.4993078,11.1766301 22.7846457,10.6762139 C22.9435151,10.3975955 23.3124457,9.75516132 23.6044922,9.24858237 C23.8965388,8.74200342 24.2384676,8.14101658 24.3643342,7.91305605 C24.4902009,7.68509553 25.039168,6.71738329 25.5842621,5.76258421 C26.1293562,4.80778513 26.5753425,3.98919961 26.5753425,3.94350526 C26.5753425,3.89451632 21.1384731,3.86042447 13.3257233,3.86042447 C6.03843196,3.86042447 0.0898018265,3.82545763 0.106545205,3.78271987 C0.123287671,3.73998211 0.589041096,2.91261803 1.14155251,1.94413303 L2.14611872,0.183250697 L34.7895786,0.183250697 C34.7895786,0.183250697 20.2318296,27.342583 19.9086752,26.7742677 C18.7500953,24.7367289 17.7426146,19.5985383 17.7318822,19.640297 Z" id="path3064-path" fill="#5462BC"></path>
                <path d="M19.4342136,29.8998418 C18.2756336,27.862303 12.217072,17.265878 8.98516333,11.6244527 C7.84753228,9.63867155 6.91674324,7.99113866 6.91674324,7.96326853 C6.91674324,7.93539839 7.87847474,7.91259497 9.05392497,7.91259497 L11.1911067,7.91259497 L12.4197999,10.0540423 C14.6456811,13.9334534 16.9960784,18.0493512 18.5205131,20.7373069 C19.3462026,22.193201 20.042314,23.3834359 20.0674282,23.3822726 C20.0925423,23.3811121 21.1588665,21.5474897 22.4370364,19.3075616 C26.2247168,12.6698456 33.1972921,0.484955395 33.3453277,0.244831816 C33.435367,0.0987811447 33.6450501,0.0836476053 35.578619,0.0836476053 C37.2717524,0.0836476053 37.7033012,0.10793125 37.6678108,0.201208368 C37.643209,0.265866724 35.3097642,4.35879445 32.4823761,9.29660274 C26.8449003,19.1420097 25.9890601,20.638548 22.4875195,26.7738067 C21.1815834,29.0620146 20.0925423,30.9339509 20.0674282,30.9336635 C20.042314,30.9333872 19.7573679,30.4681571 19.4342136,29.8998418 L19.4342136,29.8998418 Z" id="path3060-path" fill="#F94A29"></path>
            </g>
        </g>
    </g>
</svg>