<?xml version="1.0" encoding="UTF-8" standalone="no"?>
<svg width="60px" height="60px" viewBox="0 0 60 60" version="1.1" xmlns="http://www.w3.org/2000/svg" xmlns:xlink="http://www.w3.org/1999/xlink" xmlns:sketch="http://www.bohemiancoding.com/sketch/ns">
    <!-- Generator: Sketch 3.3.2 (12043) - http://www.bohemiancoding.com/sketch -->
    <title>time</title>
    <desc>Created with Sketch.</desc>
    <defs></defs>
    <g id="Social-icons-grid" stroke="none" stroke-width="1" fill="none" fill-rule="evenodd" sketch:type="MSPage">
        <g id="time" sketch:type="MSLayerGroup">
            <rect id="Rectangle-9" fill="#D82331" sketch:type="MSShapeGroup" x="0" y="0" width="60" height="60" rx="80"></rect>
            <path d="M10.3229246,22.8352223 L8.86665028,22.8284567 L6.60967892,22.8284567 C6.45280003,22.8284567 5.24240059,22.8403642 5.24240059,22.8403642 L5.22102017,24.8224164 L5,24.8289113 L5.01336277,22.6014029 L5.00561236,21.6861516 C5.77477323,21.724039 8.55422878,21.7489364 11.4381812,21.7489364 C14.8010551,21.7489364 16.9674269,21.7142965 17.8178334,21.6888579 L17.8076777,22.702887 L17.8255838,24.9561047 L17.5962787,24.9536691 C17.5981495,24.7696446 17.558863,24.0219097 17.5612683,23.9488412 C17.5623373,23.9215081 17.5131623,22.9172214 17.5062137,22.8419879 L16.5408874,22.8284567 L13.6475811,22.8279154 L12.5390059,22.832516 L12.5406094,36.7325907 C12.5406094,36.7515344 12.5614554,37.6437827 12.5654642,37.8288897 C12.6766424,37.8451271 13.7488708,37.9200901 13.942631,37.9200901 L14.0185315,37.9190076 L14.0185315,38.2984228 C13.9608043,38.2984228 13.8891799,38.3043765 13.829582,38.3038353 C13.220507,38.2970697 12.2372746,38.2231893 11.5384019,38.2231893 C10.8507539,38.2231893 9.88088429,38.2916572 9.1633037,38.3027528 C9.14432857,38.303294 8.99733814,38.3000465 8.94201628,38.2970697 L8.94041275,37.8935689 C8.94736139,37.8935689 8.99172577,37.8924864 9.05880687,37.8903214 C9.36187442,37.8781433 10.1083186,37.8272659 10.3028805,37.8107579 L10.3328131,37.8061572 L10.3229246,22.8352223 L10.3229246,22.8352223 Z M23.3150085,38.3138484 C22.7505652,38.3138484 21.7911186,38.2188593 21.0722017,38.2188593 C20.3615698,38.2188593 19.396778,38.3138484 18.7021813,38.3138484 C18.6431179,38.3138484 18.5391556,38.3005878 18.4819629,38.3005878 L18.4819629,37.905747 C18.6190649,37.9030407 19.2329504,37.8462096 19.4031921,37.8334903 C19.6033663,37.818606 19.788307,37.8085929 19.8706217,37.7815304 C19.8706217,37.7815304 19.8722252,37.3055023 19.8746305,36.5680512 C19.8823809,34.017688 19.89708,26.8087985 19.8735615,23.5469641 C19.8711562,23.2027301 19.8690182,22.330508 19.8690182,22.2041265 C19.7388648,22.1911365 19.5571312,22.1735459 19.4267106,22.1559554 C19.2639521,22.1470248 18.5934084,22.0823456 18.4787559,22.0755799 L18.4744798,21.6810098 C19.1402128,21.6810098 20.1277213,21.7494777 20.9294874,21.7494777 C21.6954412,21.7494777 22.7347972,21.6810098 23.5215969,21.6810098 L23.5199934,22.0923587 C23.3951851,22.1010186 23.0915831,22.1205036 23.0814274,22.1213155 C22.8521223,22.1435066 22.2104422,22.2171164 22.0527615,22.2284827 L22.0527615,23.4974399 C22.052227,26.4182877 22.0492872,34.0596348 22.0482182,36.6324598 L22.0482182,37.4667944 C22.0482182,37.6632676 22.0492872,37.7815304 22.051158,37.7885667 C22.0548996,37.8037216 22.4573861,37.841609 22.5501237,37.8472921 C22.7275813,37.8681302 23.4577229,37.9008757 23.4799051,37.905747 L23.5290801,37.905747 L23.5285455,38.3005878 C23.4804396,38.3005878 23.3641835,38.3138484 23.3150085,38.3138484 L23.3150085,38.3138484 Z M28.3819025,27.2204181 C28.3819025,27.2204181 28.0187025,29.2544301 27.4943475,32.1241299 C27.216402,33.6742658 26.6412685,37.5514998 26.6022492,37.8072397 C26.9341804,37.8570346 27.5870852,37.9114301 27.76481,37.9052057 C27.8057,37.9052057 27.8757209,37.9068295 27.9267667,37.9068295 L27.9262322,38.2995053 C27.8522025,38.3095184 27.6787537,38.3106009 27.6715378,38.3106009 C27.0424188,38.2970697 26.5888865,38.2486279 25.9103251,38.2486279 C25.7315313,38.2486279 24.7875855,38.2984228 24.4551198,38.3100596 C24.3164143,38.3160134 24.1202489,38.3005878 24.0828331,38.3022115 L24.0833676,37.9135951 C24.1157055,37.9135951 24.1817176,37.8997932 24.2236767,37.8987107 C24.5246062,37.8849089 24.9874925,37.8378203 25.3798233,37.7858604 C25.4116267,37.5950703 25.751041,35.6839217 25.8587449,35.0068197 C26.2753959,32.7660507 27.5037015,25.280042 27.6573733,24.2703428 C27.79207,23.1802682 27.9486816,21.82417 27.9631134,21.6747854 C28.2886304,21.6801979 28.8504012,21.6672079 28.8504012,21.6672079 C28.8504012,21.6672079 29.9373286,25.0873575 30.1139844,25.5877418 C30.2906402,26.0886673 33.6123568,34.7424198 33.6123568,34.7424198 C33.6123568,34.7424198 35.1715245,31.0140292 36.560985,27.0131199 C36.8421376,26.2031414 37.2114845,25.1466242 37.4832832,24.2914515 C37.8812264,23.0398142 38.3184561,21.6666667 38.3184561,21.6666667 L39.1736732,21.6666667 C39.1736732,21.6666667 39.3853394,23.1954232 39.4607054,23.875502 C39.6790531,25.8564717 41.1072656,33.9053789 41.6091711,36.552355 C41.7339794,37.2148432 41.8291223,37.7880254 41.8291223,37.7880254 C41.9766472,37.7985798 42.554186,37.8564934 42.8965401,37.8854502 C42.9678973,37.8914039 43.1603211,37.9024995 43.2038838,37.9024995 L43.2060218,38.301129 C43.2060218,38.301129 43.0499447,38.3095184 42.9646902,38.3095184 C42.1987364,38.3043765 41.0051741,38.2348261 40.2688856,38.2348261 C39.6135755,38.2348261 38.9836547,38.2916572 38.3283446,38.3060003 C38.2171663,38.3084359 38.1043846,38.3027528 37.9910683,38.3027528 L37.9910683,37.907912 C37.9942754,37.9073707 38.0816679,37.9024995 38.1273686,37.9041232 C38.4472732,37.8892389 39.2958089,37.8048041 39.3799943,37.8007448 C39.3805288,37.6559608 39.3340264,37.154494 39.2650745,36.6419316 C39.2172358,36.2803776 39.1365247,35.662813 39.0502012,35.0536377 C38.8633898,33.8699271 38.000155,28.9645915 37.7435899,27.6028102 C37.7010963,27.3795451 37.6749053,27.2545167 37.6749053,27.2545167 C37.6749053,27.2545167 35.0002138,34.202795 34.4606253,35.5716126 C34.4082432,35.7061129 34.3708275,35.8005607 34.3579992,35.8322238 C33.8427309,37.1507052 33.4103118,38.3260265 33.4103118,38.3260265 L32.6491686,38.3216965 L28.4810543,27.4731811 L28.3819025,27.2204181 L28.3819025,27.2204181 Z M54.8449919,24.9322898 L54.6245062,24.9328311 L54.6221009,24.8159214 C54.5993842,24.5263534 54.5512783,23.7069031 54.4900768,23.0176231 C54.4847317,22.9561913 54.4748433,22.9082908 54.4748433,22.9082908 C54.3425519,22.9039609 53.8042996,22.8863703 53.7957474,22.8771691 C53.786928,22.8690503 53.3577159,22.8630966 53.3488965,22.858496 C53.3446204,22.8560604 51.9372538,22.847671 50.4860573,22.8465885 C49.495609,22.845506 48.5214633,22.8517304 47.9238803,22.8517304 C47.7768899,22.8511891 47.2501296,22.8722978 47.2501296,22.8722978 L47.2471898,29.4130159 L51.3944582,29.4270884 C51.4142351,29.4270884 52.4928776,29.3929897 52.5190687,29.3938016 C52.5845462,29.3943429 53.3251108,29.3507724 53.3534398,29.3404886 C53.3534398,29.3404886 53.3643973,29.2720207 53.3817689,29.2222258 C53.4419014,28.8263025 53.5183364,28.4504054 53.536777,28.1570487 C53.536777,28.1570487 53.5565539,28.0312084 53.5576229,27.9462324 L53.7933421,27.9410905 C53.7933421,27.9716711 53.8053686,28.0469046 53.8042996,28.1538012 C53.8021616,28.5481008 53.7738325,29.3664686 53.7749015,29.9033871 C53.7759705,30.6757488 53.7968165,31.3734182 53.8010925,31.7227941 C53.8042996,31.8229251 53.7978855,31.9820522 53.7978855,31.9820522 L53.5389151,31.9820522 C53.534639,31.9449767 53.5303629,31.9068186 53.5247505,31.8664956 C53.4790499,31.4207774 53.4419014,31.106312 53.3729495,30.6524751 C53.3708114,30.6292014 53.3577159,30.5474729 53.3523708,30.4947012 C53.2200794,30.4855 52.8707767,30.4738631 52.6850342,30.4684506 C52.6043231,30.4654738 51.5932962,30.4581669 50.4553229,30.4562725 C49.9892296,30.4557313 49.1516514,30.4779225 48.7967363,30.4773812 C48.3806197,30.4773812 47.6937735,30.5036318 47.2455863,30.5204105 L47.2501296,36.4516827 L47.2680357,37.2159257 L49.7861156,37.2600375 L53.3718805,37.25679 C53.388183,37.25679 54.1931561,37.224315 54.4441089,37.2291863 C54.49756,37.2302688 54.6047294,37.2207969 54.6047294,37.2207969 C54.6287823,37.0289243 54.6581804,36.6408491 54.6875785,36.2706351 C54.6899838,36.226794 54.7795143,35.2428041 54.7795143,34.9784042 L55,34.9756979 C55,35.2254841 54.9532303,38.3333333 54.9532303,38.3333333 C54.548873,38.3333333 53.3085409,38.3319802 51.7766333,38.3095184 C50.8473865,38.2949047 49.8123066,38.2959872 48.7911239,38.2805616 C47.9626324,38.2686541 47.1434947,38.2386148 46.3978523,38.2396973 C45.3357796,38.2407798 44.2950873,38.3116834 43.8912645,38.3122246 C43.7990614,38.3122246 43.6357684,38.305459 43.6002234,38.305459 L43.6002234,37.9146776 L43.6745204,37.9146776 C43.9233351,37.9135951 44.6561493,37.8694833 45.0383244,37.7974973 C45.0383244,37.7190162 45.0634464,36.7515344 45.0634464,36.7315082 C45.0634464,36.7315082 45.0618429,24.4497667 45.0618429,23.8987757 C45.0618429,23.3055673 45.0514199,22.3167062 45.0514199,22.2290239 C44.8352104,22.203044 44.7582408,22.1895128 44.7128074,22.1797703 C44.4835023,22.1470248 44.031039,22.1069724 43.789173,22.0896524 C43.7202211,22.0912762 43.6451223,22.0823456 43.6079738,22.0755799 C43.6079738,22.0755799 43.6069048,21.6915641 43.6044995,21.6861516 C43.6598214,21.6893991 43.7728704,21.6810098 43.9757172,21.6820923 C44.4033257,21.6839866 45.1901254,21.7475833 46.1514429,21.7489364 C46.75544,21.7494777 47.729853,21.7194384 48.4276567,21.7105078 C49.4234501,21.7105078 50.1792482,21.7007653 51.1432382,21.6948116 C52.7168376,21.6839866 54.0608647,21.6726204 54.5862887,21.6696435 C54.7402278,21.6691023 54.824146,21.668561 54.824146,21.668561 C54.824146,21.6991416 54.8233442,21.7343227 54.8233442,21.7738339 C54.8233442,21.8972385 54.8177319,22.1140086 54.8198699,22.3797616 C54.825215,23.2067894 54.8449919,24.5076803 54.8449919,24.9322898 L54.8449919,24.9322898 Z" id="Fill-2" fill="#FFFFFF" sketch:type="MSShapeGroup"></path>
        </g>
    </g>
</svg>