<?xml version="1.0" encoding="UTF-8" standalone="no"?>
<svg width="60px" height="60px" viewBox="0 0 60 60" version="1.1" xmlns="http://www.w3.org/2000/svg" xmlns:xlink="http://www.w3.org/1999/xlink" xmlns:sketch="http://www.bohemiancoding.com/sketch/ns">
    <!-- Generator: Sketch 3.3.1 (12005) - http://www.bohemiancoding.com/sketch -->
    <title>tumblr</title>
    <desc>Created with Sketch.</desc>
    <defs></defs>
    <g id="Social-icons-grid" stroke="none" stroke-width="1" fill="none" fill-rule="evenodd" sketch:type="MSPage">
        <g id="tumblr" sketch:type="MSLayerGroup">
            <rect id="circle" fill="#34465C" sketch:type="MSShapeGroup" x="0" y="0" width="60" height="60" rx="80"></rect>
            <path d="M20,26.4661458 L20,22.5104167 C21.1726627,22.1458315 22.1713439,21.6354199 22.9960737,20.9791667 C23.8208035,20.3107605 24.4844433,19.5086852 24.987013,18.5729167 C25.4895827,17.6249953 25.8375104,16.4340349 26.0308064,15 L30.2639686,15 L30.2639686,22.0729167 L37.2999094,22.0729167 L37.2999094,26.4661458 L30.2639686,26.4661458 L30.2639686,33.6484375 C30.2639686,35.3012235 30.3541721,36.346352 30.5345817,36.7838542 C30.7021049,37.2335092 31.0371464,37.5980889 31.5397161,37.8776042 C32.1840362,38.2543422 32.9378795,38.4427083 33.8012685,38.4427083 C35.3089776,38.4427083 36.803778,37.9809074 38.2857143,37.0572917 L38.2857143,41.46875 C36.9713012,42.0520863 35.8244285,42.4470476 34.8450619,42.6536458 C33.8528089,42.8845498 32.7381518,43 31.5010571,43 C30.1479848,43 28.9495673,42.8359391 27.9057686,42.5078125 C26.9006292,42.2039915 26.0114808,41.7482669 25.2382966,41.140625 C24.4908852,40.5208302 23.9818799,39.8828158 23.7112655,39.2265625 C23.4277646,38.5703092 23.2860163,37.5920204 23.2860163,36.2916667 L23.2860163,26.4661458 L20,26.4661458 Z" fill="#FFFFFF" sketch:type="MSShapeGroup"></path>
        </g>
    </g>
</svg>