<?xml version="1.0" encoding="UTF-8" standalone="no"?>
<svg width="60px" height="60px" viewBox="0 0 60 60" version="1.1" xmlns="http://www.w3.org/2000/svg" xmlns:xlink="http://www.w3.org/1999/xlink" xmlns:sketch="http://www.bohemiancoding.com/sketch/ns">
    <!-- Generator: Sketch 3.3.1 (12005) - http://www.bohemiancoding.com/sketch -->
    <title>twitter</title>
    <desc>Created with Sketch.</desc>
    <defs></defs>
    <g id="Social-icons-grid" stroke="none" stroke-width="1" fill="none" fill-rule="evenodd" sketch:type="MSPage">
        <g id="twitter" sketch:type="MSLayerGroup">
            <rect id="circle" fill="#61AADB" sketch:type="MSShapeGroup" x="0" y="0" width="60" height="60" rx="80"></rect>
            <path d="M15.2990075,38.8945312 C15.722495,38.9424482 16.194374,38.9664063 16.7146587,38.9664063 C19.4370783,38.9664063 21.8630203,38.139852 23.9925574,36.4867187 C22.7220949,36.4627603 21.5847455,36.076436 20.5804752,35.3277344 C19.5762048,34.5790327 18.8865356,33.6237037 18.5114466,32.4617187 C18.9107348,32.5216149 19.2797684,32.5515625 19.6185584,32.5515625 C20.138843,32.5515625 20.6530702,32.4856777 21.1612551,32.3539062 C19.8060952,32.078384 18.6838701,31.4105522 17.7945464,30.3503906 C16.9052226,29.2902291 16.4605674,28.059382 16.4605674,26.6578125 L16.4605674,26.5859375 C17.2833431,27.0411481 18.1666038,27.2867186 19.110376,27.3226562 C18.3117995,26.7955703 17.6765778,26.1067751 17.2046917,25.25625 C16.7328057,24.4057249 16.4968662,23.4833383 16.4968662,22.4890625 C16.4968662,21.4348906 16.7630543,20.4585982 17.2954386,19.5601563 C18.7594954,21.345061 20.5411411,22.7735623 22.6404291,23.8457031 C24.7397171,24.9178439 26.987192,25.5138015 29.3829213,25.6335938 C29.2861242,25.1783831 29.2377263,24.7351584 29.2377263,24.3039062 C29.2377263,22.6986899 29.8094259,21.3300838 30.9528421,20.1980469 C32.0962583,19.06601 33.4786218,18.5 35.0999739,18.5 C36.7939239,18.5 38.2216603,19.1109314 39.3832261,20.3328125 C40.7020871,20.0812487 41.9422819,19.6140659 43.1038476,18.93125 C42.6561608,20.3088611 41.7970991,21.3749962 40.5266366,22.1296875 C41.6519034,22.0098952 42.7771533,21.7104191 43.90242,21.23125 C43.091744,22.4052142 42.1116876,23.4054646 40.9622215,24.2320313 C40.9743212,24.3997404 40.9803709,24.6513004 40.9803709,24.9867188 C40.9803709,26.5440182 40.7504811,28.0982995 40.2906947,29.6496094 C39.8309083,31.2009192 39.1321644,32.6893158 38.1944421,34.1148437 C37.2567198,35.5403717 36.1405445,36.8011664 34.8458827,37.8972656 C33.5512209,38.9933649 31.9903904,39.8678353 30.1633444,40.5207031 C28.3362983,41.173571 26.3822353,41.5 24.3010967,41.5 C21.0220936,41.5 18.0214272,40.6315191 15.2990075,38.8945312 L15.2990075,38.8945312 Z" id="twitter-copy-2" fill="#FFFFFF" sketch:type="MSShapeGroup"></path>
        </g>
    </g>
</svg>