<?xml version="1.0" encoding="UTF-8" standalone="no"?>
<svg width="60px" height="60px" viewBox="0 0 60 60" version="1.1" xmlns="http://www.w3.org/2000/svg" xmlns:xlink="http://www.w3.org/1999/xlink" xmlns:sketch="http://www.bohemiancoding.com/sketch/ns">
    <!-- Generator: Sketch 3.3.2 (12043) - http://www.bohemiancoding.com/sketch -->
    <title>twitch</title>
    <desc>Created with Sketch.</desc>
    <defs></defs>
    <g id="Social-icons-grid" stroke="none" stroke-width="1" fill="none" fill-rule="evenodd" sketch:type="MSPage">
        <g id="twitch" sketch:type="MSLayerGroup">
            <rect id="Rectangle-9" fill="#5A3E85" sketch:type="MSShapeGroup" x="0" y="0" width="60" height="60" rx="60"></rect>
            <path d="M37.2713888,43.6935 L30.7267708,43.6935 L26.3641383,48 L21.997825,48 L21.997825,43.6935 L14,43.6935 L14,20.739195 L16.1823201,15 L46,15 L46,35.088585 L37.2713888,43.6935 Z M43.091411,33.65061 L43.091411,17.867865 L19.0895707,17.867865 L19.0895707,38.673045 L25.6388732,38.673045 L25.6388732,42.973605 L30,38.673045 L37.9991635,38.673045 L43.091411,33.65061 Z M27.0904406,32.218047 L30.0000335,32.218047 L30.0000335,23.610162 L27.0904406,23.610162 L27.0904406,32.218047 Z M35.0904406,32.218047 L37.9991969,32.218047 L37.9991969,23.610162 L35.0904406,23.610162 L35.0904406,32.218047 Z" id="Fill-3" fill="#FFFFFF" sketch:type="MSShapeGroup"></path>
        </g>
    </g>
</svg>