<?xml version="1.0" encoding="UTF-8" standalone="no"?>
<svg width="60px" height="60px" viewBox="0 0 60 60" version="1.1" xmlns="http://www.w3.org/2000/svg" xmlns:xlink="http://www.w3.org/1999/xlink" xmlns:sketch="http://www.bohemiancoding.com/sketch/ns">
    <!-- Generator: Sketch 3.3.2 (12043) - http://www.bohemiancoding.com/sketch -->
    <title>vine</title>
    <desc>Created with Sketch.</desc>
    <defs></defs>
    <g id="Social-icons-grid" stroke="none" stroke-width="1" fill="none" fill-rule="evenodd" sketch:type="MSPage">
        <g id="vine" sketch:type="MSLayerGroup">
            <rect id="Path" fill="#00AA7F" sketch:type="MSShapeGroup" x="0" y="0" width="60" height="60" rx="80"></rect>
            <path d="M46,30.3997614 C45.0890783,30.6075872 44.2080265,30.6992175 43.4148273,30.6992175 C38.9533425,30.6992175 35.5184154,27.6150908 35.5184154,22.2525974 C35.5184154,19.6241223 36.5450829,18.2571675 37.996957,18.2571675 C39.3782196,18.2571675 40.2990248,19.4837964 40.2990248,21.9722716 C40.2990248,23.3872699 39.916207,24.9378115 39.6334315,25.8552017 C39.6334315,25.8552017 41.0083247,28.2291118 44.7677574,27.5005258 C45.5661179,25.7463975 46,23.4746611 46,21.4818375 C46,16.1192353 43.2379141,13 38.1740899,13 C32.9692622,13 29.9238516,16.9605386 29.9238516,22.1828149 C29.9238516,27.3562868 32.3671424,31.7970423 36.3962826,33.8204093 C34.7020451,37.1749705 32.5462519,40.1297495 30.2979939,42.3561598 C26.2188876,37.4752962 22.5312745,30.9639998 21.0180133,18.2571675 L15,18.2571675 C17.7804252,39.419859 26.0663535,46.1583291 28.2571779,47.4522405 C29.4965585,48.1883266 30.5635284,48.1533266 31.6967172,47.5221317 C33.4756227,46.5209373 38.8169513,41.2350742 41.7774743,35.0434513 C43.0201494,35.0400818 44.5132045,34.8988863 46,34.5663867 L46,30.3997614" id="Fill-1" fill="#FFFFFF" sketch:type="MSShapeGroup"></path>
        </g>
    </g>
</svg>