<?xml version="1.0" encoding="UTF-8" standalone="no"?>
<svg width="60px" height="60px" viewBox="0 0 60 60" version="1.1" xmlns="http://www.w3.org/2000/svg" xmlns:xlink="http://www.w3.org/1999/xlink" xmlns:sketch="http://www.bohemiancoding.com/sketch/ns">
    <!-- Generator: Sketch 3.3.1 (12005) - http://www.bohemiancoding.com/sketch -->
    <title>walmart</title>
    <desc>Created with Sketch.</desc>
    <defs></defs>
    <g id="Social-icons-grid" stroke="none" stroke-width="1" fill="none" fill-rule="evenodd" sketch:type="MSPage">
        <g id="walmart" sketch:type="MSLayerGroup">
            <rect id="circle" fill="#2177CC" sketch:type="MSShapeGroup" x="0" y="0" width="60" height="60" rx="80"></rect>
            <g id="Group" transform="translate(13.000000, 11.222727)" fill="#FDBB30" sketch:type="MSShapeGroup">
                <path d="M16.7430273,12.6211909 C17.6214273,12.6211909 18.3447,12.1644 18.4423091,11.5742455 L19.3098273,1.76539091 C19.3097455,0.795681818 18.1739455,0 16.7458091,0 C15.3190636,0 14.1843273,0.795763636 14.1843273,1.76539091 L15.0511909,11.5742455 C15.1465091,12.1643182 15.8697818,12.6211909 16.7458091,12.6211909 L16.7430273,12.6211909" id="path2974"></path>
                <path d="M11.4416182,15.6852 C11.8822909,14.9253545 11.8490727,14.0711727 11.3846727,13.6917818 L3.32214545,8.03618182 C2.48391818,7.55083636 1.22710909,8.13501818 0.513736364,9.37194545 C-0.202009091,10.6076455 -0.0751909091,11.9876727 0.760745455,12.4731818 L9.68825455,16.6298727 C10.2464182,16.8366273 11.0072455,16.4384182 11.4444,15.6793091 L11.4416182,15.6852" id="path2976"></path>
                <path d="M22.0492636,15.6800455 C22.4892,16.4391545 23.2462636,16.8373636 23.8047545,16.6303636 L32.7319364,12.4735091 C33.5734364,11.9880818 33.6930545,10.6078909 32.9838545,9.37268182 C32.2670455,8.13673636 31.0079455,7.55116364 30.1718455,8.03675455 L22.1089909,13.6922727 C21.6478636,14.0711727 21.6136636,14.9259273 22.0519636,15.6857727 L22.0486091,15.6800455" id="path2978"></path>
                <path d="M16.7430273,24.8742 C17.6214273,24.8742 18.3447,25.3270636 18.4423091,25.9177091 L19.3098273,35.7251727 C19.3098273,36.6979909 18.1740273,37.4919545 16.7458909,37.4919545 C15.3191455,37.4919545 14.1844091,36.6979909 14.1844091,35.7251727 L15.0512727,25.9177091 C15.1465909,25.3270636 15.8698636,24.8742 16.7458909,24.8742 L16.7430273,24.8742" id="path2980"></path>
                <path d="M22.0492636,21.8096182 C22.4892,21.0480545 23.2462636,20.6532818 23.8047545,20.8628182 L32.7319364,25.0164818 C33.5734364,25.5024818 33.6930545,26.8838182 32.9838545,28.1204182 C32.2670455,29.3524364 31.0079455,29.9394818 30.1718455,29.4548727 L22.1089909,23.8044273 C21.6478636,23.4226636 21.6136636,22.5675 22.0519636,21.8079818 L22.0486091,21.8079818" id="path2982"></path>
                <path d="M11.4416182,21.8085545 C11.8822909,22.5673364 11.8490727,23.4225818 11.3846727,23.805 L3.32222727,29.4549545 C2.48391818,29.9401364 1.22710909,29.3528455 0.513736364,28.1209091 C-0.202009091,26.8842273 -0.0751909091,25.5030545 0.760745455,25.0168909 L9.68825455,20.8629 C10.2464182,20.6536909 11.0072455,21.0485455 11.4444,21.8100273 L11.4417,21.8100273" id="path2984"></path>
                <path d="M34.9715455,28.8297 L35.0384727,28.8297 C35.1273273,28.8297 35.1844364,28.7928 35.1844364,28.7384727 C35.1844364,28.6761273 35.1307636,28.6427455 35.0483727,28.6427455 C35.0195727,28.6427455 34.9906091,28.6483909 34.9715455,28.6483909 L34.9715455,28.8312545 L34.9715455,28.8297 L34.9715455,28.8297 Z M34.9612364,29.2704545 L34.7250273,29.2704545 L34.7250273,28.5012 C34.7787,28.4908091 34.9034727,28.4721545 35.0634273,28.4721545 C35.2374545,28.4721545 35.3150182,28.4967818 35.3720455,28.5351545 C35.4202364,28.5690273 35.4551727,28.6263818 35.4551727,28.7037818 C35.4551727,28.7830636 35.3826818,28.8496636 35.2757455,28.8787909 L35.2757455,28.8886909 C35.3628818,28.9118455 35.4104182,28.9755818 35.4357,29.0862 C35.4592636,29.1972273 35.4740727,29.2428 35.4889636,29.2707818 L35.2216636,29.2707818 C35.1984273,29.2420636 35.1844364,29.1740727 35.1687273,29.106 C35.1536727,29.0281909 35.1167727,28.9890818 35.0378182,28.9890818 L34.9605818,28.9890818 L34.9605818,29.2707 L34.9612364,29.2707 L34.9612364,29.2704545 L34.9612364,29.2704545 Z M35.0586818,28.2505909 C34.7198727,28.2505909 34.4638636,28.5268909 34.4638636,28.8792818 C34.4638636,29.2220182 34.7202818,29.502 35.0682545,29.502 C35.4169636,29.5077273 35.6733,29.2223455 35.6733,28.8733909 C35.6733,28.5264 35.4169636,28.2505909 35.0643273,28.2505909 L35.0586818,28.2505909 L35.0586818,28.2505909 Z M35.0740636,28.0422 C35.5464,28.0422 35.9235818,28.4140636 35.9235818,28.8733909 C35.9235818,29.3378727 35.5465636,29.7103091 35.0676818,29.7103091 C34.5884727,29.7103091 34.2072,29.3369727 34.2072,28.8733909 C34.2072,28.4140636 34.5889636,28.0422 35.0676818,28.0422 L35.0728364,28.0422 L35.0740636,28.0422 Z" id="path3000"></path>
            </g>
        </g>
    </g>
</svg>