<?xml version="1.0" encoding="UTF-8" standalone="no"?>
<svg width="60px" height="60px" viewBox="0 0 60 60" version="1.1" xmlns="http://www.w3.org/2000/svg" xmlns:xlink="http://www.w3.org/1999/xlink" xmlns:sketch="http://www.bohemiancoding.com/sketch/ns">
    <!-- Generator: Sketch 3.3.1 (12005) - http://www.bohemiancoding.com/sketch -->
    <title>weatherchannel</title>
    <desc>Created with Sketch.</desc>
    <defs></defs>
    <g id="Social-icons-grid" stroke="none" stroke-width="1" fill="none" fill-rule="evenodd" sketch:type="MSPage">
        <g id="weatherchannel" sketch:type="MSLayerGroup">
            <path d="M60,30.0000003 C60,46.5600004 46.5599984,60 30.0000025,60 C13.4399991,60 0,46.5600004 0,30.0000003 C0,13.4400011 13.4399991,0 30.0000025,0 C46.5599984,0 60,13.4400011 60,30.0000003 L60,30.0000003 Z" id="path2760" fill="#244AA5" sketch:type="MSShapeGroup"></path>
            <g id="The_Weather_Channel_logo_2005-present" transform="translate(8.000000, 13.620438)" fill="#FFFFFF" sketch:type="MSShapeGroup">
                <path d="M6.65272051,31.8299999 C6.15372599,32.2400068 5.31167599,32.5133367 4.43843657,32.5133367 C3.06621467,32.5133367 1.81873036,31.7753331 1.13261139,30.5179849 C0.727181095,29.7799812 0.540056642,28.9053086 0.540056642,27.8392962 C0.540056642,26.5546207 0.914301533,25.5159477 1.6004165,24.7232732 C2.31772489,23.9032634 3.22214569,23.5205958 4.40725518,23.5205958 C5.4052362,23.5205958 6.15372599,23.7939338 6.83984095,24.3406057 L6.02897234,25.4339495 C5.52998985,25.0239426 5.06218474,24.8872776 4.53199679,24.8872776 C3.81470044,24.8872776 3.22214569,25.2152783 2.87909022,25.8439444 C2.62958693,26.3086181 2.50484533,26.991955 2.50484533,28.167305 C2.50484533,29.1786426 2.66078036,29.8893148 3.00383182,30.4086593 C3.31570591,30.8459936 3.87707124,31.146663 4.46962599,31.146663 C4.96862051,31.146663 5.4052362,30.9826586 5.8418519,30.6546619" id="path3753" transform="translate(3.689949, 28.016966) scale(1, -1) translate(-3.689949, -28.016966) "></path>
                <path d="M7.65070153,31.9393254 C7.71308036,31.6659955 7.77545117,31.0919842 7.77545117,30.4633141 L7.77545117,23.1105889 L9.45954715,23.1105889 L9.45954715,27.6752918 C9.83379204,28.0032885 10.363968,28.2766305 10.7694023,28.2766305 C11.2683968,28.2766305 11.4243278,28.030628 11.4243278,27.4019619 L11.4243278,23.1105889 L13.046057,23.1105889 L13.046057,27.5659542 C13.046057,28.1672929 13.0148636,28.3859681 12.890122,28.7413042 C12.7030015,29.3153035 12.048076,29.6706436 11.2372074,29.6706436 C10.5822818,29.6706436 9.86498146,29.3699743 9.42835774,28.9599674 C9.42835774,29.0419736 9.45955117,29.3153035 9.45955117,29.5066393 L9.45955117,30.7639874 C9.45955117,31.3926535 9.42835774,31.9939922 9.33480153,32.3493323" id="path3755" transform="translate(10.348379, 27.729961) scale(1, -1) translate(-10.348379, -27.729961) "></path>
                <path d="M17.5993625,28.9599794 L17.5681691,27.5932977 C17.3186738,27.3199677 17.0068037,27.1559634 16.6949296,27.1559634 C16.2895034,27.1559634 15.9776333,27.4839601 15.9776333,27.9759732 C15.9776333,28.7413082 16.3830676,28.9599794 17.5369877,28.9599794 L17.5993585,28.9599794 L17.5993625,28.9599794 Z M14.3247267,31.7753331 L15.0420271,30.5999951 C15.728142,31.0373294 16.3518782,31.3106714 16.8820541,31.3106714 C17.4746128,31.3106714 17.6305519,31.0646568 17.6305519,30.3539926 L17.6305519,30.10799 L17.256299,30.10799 C15.2291475,30.10799 14.1999771,29.4246451 14.1999771,27.9213064 C14.1999771,26.6639582 14.9484669,25.9259546 16.3830716,25.9259546 C16.9132435,25.9259546 17.3498712,26.0626196 17.6617333,26.2812907 C17.7864829,26.3632889 17.9112366,26.4999539 18.0359782,26.6092915 C18.2230986,26.2812907 18.5661621,26.0079528 18.940407,25.8439484 L19.8448238,26.855294 C19.3458293,27.2379615 19.2210877,27.4839601 19.2210877,28.167309 L19.2210877,28.2766426 L19.2834585,30.4359907 C19.2834585,31.1193276 19.252265,31.3106714 19.1587088,31.5840013 C18.9092176,32.2946776 18.1919172,32.6773411 17.100368,32.6773411 C16.5078132,32.6773411 15.9776373,32.5680075 15.3538972,32.2946776 C14.9172734,32.1306732 14.6677822,31.9940082 14.3247267,31.7753331 L14.3247267,31.7753331 Z" id="path3757" transform="translate(17.022400, 29.260645) scale(1, -1) translate(-17.022400, -29.260645) "></path>
                <path d="M20.5621322,31.9393374 C20.6868738,31.5019991 20.780434,30.9826586 20.780434,30.4359867 L20.780434,25.816617 L22.4333526,25.816617 L22.4333526,30.3266531 C22.8387749,30.6819893 23.2753986,30.9006604 23.6184541,30.9006604 C24.0238884,30.9006604 24.148638,30.6819893 24.148638,29.971313 L24.148638,25.816617 L25.8015486,25.816617 L25.8015486,30.4633181 C25.8015486,30.873321 25.7703552,31.146663 25.676795,31.3926655 C25.4896745,31.9393374 24.8659384,32.2946736 24.148638,32.2946736 C23.7743972,32.2946736 23.3377694,32.2126674 22.994718,32.0213316 C22.7452147,31.8846666 22.5269128,31.7206623 22.2774096,31.5566579 C22.2774096,31.8026604 22.1838493,32.0760024 22.0279183,32.3493323" id="path3759" transform="translate(23.181840, 29.082975) scale(1, -1) translate(-23.181840, -29.082975) "></path>
                <path d="M27.0490289,31.9393374 C27.2049599,31.5019991 27.2673428,30.9826586 27.2673428,30.4359867 L27.2673428,25.816617 L28.9514388,25.816617 L28.9514388,30.3266531 C29.3256836,30.6819893 29.7622993,30.9006604 30.1053508,30.9006604 C30.5419745,30.9006604 30.6667282,30.6819893 30.6667282,29.971313 L30.6667282,25.816617 L32.3196347,25.816617 L32.3196347,30.4633181 C32.3196347,30.873321 32.2572639,31.146663 32.1637037,31.3926655 C31.9765793,31.9393374 31.3528351,32.2946736 30.6355347,32.2946736 C30.2612939,32.2946736 29.8246701,32.2126674 29.5128041,32.0213316 C29.2321234,31.8846666 29.0138096,31.7206623 28.7643183,31.5566579 C28.7643183,31.8026604 28.6707541,32.0760024 28.5460045,32.3493323" id="path3761" transform="translate(29.684332, 29.082975) scale(1, -1) translate(-29.684332, -29.082975) "></path>
                <path d="M35.2824045,29.9166502 L35.2824045,29.9439896 C35.2824045,30.8186703 35.6566493,31.3106754 36.2803855,31.3106754 C36.623449,31.3106754 36.8729402,31.2013378 37.0288712,30.9553353 C37.1848143,30.7093327 37.2159957,30.4633342 37.2159957,29.9986604 L37.2159957,29.9166623 L35.2824045,29.9166623 L35.2824045,29.9166502 Z M38.2139847,27.7299626 C37.7149902,27.3199597 37.1848143,27.1012885 36.623449,27.1012885 C35.7502096,27.1012885 35.251215,27.6479564 35.251215,28.659302 L35.251215,28.6866415 L38.9624705,28.6866415 L38.9624705,29.0966364 C38.9624705,30.4086513 38.6817899,31.2833239 38.0892311,31.8573353 C37.6838008,32.2946696 36.9976899,32.5406681 36.2491961,32.5406681 C35.4071461,32.5406681 34.7834099,32.2673382 34.253234,31.6933309 C33.6918687,31.0646608 33.4735548,30.2993177 33.4735548,29.1513072 C33.4735548,27.1559553 34.6586563,25.8439484 36.4675059,25.8439484 C37.3719347,25.8439484 38.1516019,26.1446177 38.8689103,26.7459564 L38.2139847,27.7299626 Z" id="path3763" transform="translate(36.218013, 29.192308) scale(1, -1) translate(-36.218013, -29.192308) "></path>
                <path d="M41.7693012,32.5133367 L40.0540118,32.1306612 C40.1163946,31.5566619 40.147576,31.0373174 40.147576,30.2173155 L40.147576,25.4612688 C40.147576,24.5592688 40.1787694,24.3405977 40.303515,24.0125969 C40.4906355,23.4932564 41.0520048,23.1379203 41.7693012,23.1379203 C42.1435461,23.1379203 42.4865975,23.2199265 42.7672822,23.329252 L42.4865975,24.3132663 C42.3930373,24.2859269 42.3618559,24.2859269 42.2994771,24.2859269 C42.1747355,24.2859269 42.0187924,24.367925 41.9564216,24.4772586 C41.8628614,24.641263 41.8628614,24.8052674 41.8628614,25.8986112 L41.8628614,30.8459816 C41.8628614,31.7479896 41.831668,32.1579966 41.7693012,32.5133327" id="path3765" transform="translate(41.410647, 27.825629) scale(1, -1) translate(-41.410647, -27.825629) "></path>
                <path d="M0.228194599,20.7872404 L2.28653547,12.040498 L4.28250555,12.040498 L4.9998019,15.5938674 C5.24930518,16.8785429 5.4052362,18.0812203 5.4052362,18.0812203 C5.43642964,17.8625491 5.56116723,16.741878 5.81067051,15.566528 L6.59033766,12.040498 L8.49274752,12.040498 L10.5822818,20.7872404 L8.7422508,20.7872404 L8.05613584,17.507213 C7.86901139,16.6598718 7.58833073,14.8831911 7.58833073,14.6098612 C7.58833073,14.6098612 7.37001686,16.1131999 7.18289642,16.9058743 L6.40321723,20.7872404 L4.5008154,20.7872404 L3.72114022,17.2885499 C3.47163693,16.0858685 3.31570591,14.8558637 3.2845165,14.527855 C3.2845165,14.527855 3.15977489,15.7578637 2.81671139,17.370548 L2.06822161,20.7872404" id="path3767" transform="translate(5.405238, 16.413869) scale(1, -1) translate(-5.405238, -16.413869) "></path>
                <path d="M12.3287566,18.2178893 L12.3287566,18.2452287 C12.3287566,19.1472367 12.7030015,19.6392418 13.3267377,19.6392418 C13.6697931,19.6392418 13.888103,19.5025769 14.044038,19.2565743 C14.1999771,19.0105718 14.2623479,18.7645732 14.2623479,18.2998955 L14.2623479,18.2179013 L12.3287566,18.2179013 L12.3287566,18.2178893 Z M15.2603369,16.0585331 C14.7613424,15.6211988 14.2311665,15.4025236 13.6386118,15.4025236 C12.7965618,15.4025236 12.2975672,15.9765349 12.2975672,16.9605411 L12.2975672,17.0152079 L15.9776373,17.0152079 L15.9776373,17.3978754 C15.9776373,18.7372218 15.728142,19.584563 15.1355873,20.1859017 C14.730153,20.5959086 14.044038,20.8692385 13.2955482,20.8692385 C12.4534982,20.8692385 11.8297621,20.5685692 11.2995862,19.9945659 C10.7382128,19.3658878 10.4887176,18.6005568 10.4887176,17.4798736 C10.4887176,15.4571944 11.6738311,14.1725148 13.5138621,14.1725148 C14.4182909,14.1725148 15.1667767,14.4458488 15.9152665,15.0471874 L15.2603369,16.0585331 Z" id="path3769" transform="translate(13.233177, 17.520877) scale(1, -1) translate(-13.233177, -17.520877) "></path>
                <path d="M20.1566979,17.2885378 L20.1255045,15.9218561 C19.8760132,15.6485221 19.5641391,15.4845177 19.252265,15.4845177 C18.8468428,15.4845177 18.5349687,15.8125185 18.5349687,16.331859 C18.5349687,17.0698666 18.940403,17.2885378 20.094315,17.2885378 L20.1566939,17.2885378 L20.1566979,17.2885378 Z M16.8820541,20.1312228 L17.5993625,18.9285535 C18.2854774,19.3932152 18.9092176,19.6392177 19.4393935,19.6392177 C20.0319482,19.6392177 20.1878793,19.4205546 20.1878793,18.7098783 L20.1878793,18.4365404 C20.0319482,18.4638798 19.938388,18.4638798 19.8136344,18.4638798 C17.7864829,18.4638798 16.7573125,17.7532075 16.7573125,16.2498568 C16.7573125,14.9925207 17.5058023,14.2818444 18.940407,14.2818444 C19.4705829,14.2818444 19.9071946,14.391182 20.2190687,14.6098451 C20.3438223,14.6918513 20.4685639,14.8285163 20.5933136,14.9651812 C20.780434,14.6371845 21.1234975,14.3365112 21.4977424,14.1725108 L22.4021632,15.2111838 C21.9031687,15.5665199 21.7784231,15.8125225 21.7784231,16.5231988 L21.7784231,16.6325323 L21.8096165,18.7645531 C21.8408099,19.44789 21.8096165,19.6392218 21.7160563,19.9125637 C21.466565,20.623228 20.7180753,21.0332349 19.6577154,21.0332349 C19.0651607,21.0332349 18.5349847,20.8965699 17.9112486,20.6505674 C17.4746249,20.4592316 17.2251296,20.3225666 16.8820661,20.1312269 L16.8820541,20.1312228 Z" id="path3771" transform="translate(19.579738, 17.602873) scale(1, -1) translate(-19.579738, -17.602873) "></path>
                <path d="M26.518845,18.9012342 L25.0218694,18.9012342 C25.0218694,19.5572316 25.0530628,20.2679079 25.1154296,20.8419072 L23.4313336,20.4319123 C23.3689628,19.9399112 23.3689628,19.5299042 23.3689628,18.9012342 L22.7140333,18.9012342 L22.7140333,17.780555 L23.3689628,17.780555 L23.3689628,14.3091918 C23.3689628,13.7078531 23.3689628,13.5985155 23.4625231,13.3251856 C23.6808249,12.7511743 24.3357625,12.3958382 25.1778085,12.3958382 C25.6144242,12.3958382 26.0510399,12.4778444 26.5500344,12.6691801 L26.3317205,13.6805218 C26.0198585,13.5985155 25.8951088,13.5438488 25.7391738,13.5438488 C25.1466191,13.5438488 25.0218694,13.7625199 25.0218694,14.5825218 L25.0218694,17.780555 L26.0822293,17.780555" id="path3773" transform="translate(24.632034, 16.618873) scale(1, -1) translate(-24.632034, -16.618873) "></path>
                <path d="M27.2361493,20.2952272 C27.2985242,20.0492247 27.360903,19.447886 27.360903,18.8465473 L27.360903,11.4664867 L29.044999,11.4664867 L29.044999,16.0311936 C29.4192439,16.3865298 29.9494198,16.6325323 30.3548541,16.6325323 C30.8226592,16.6325323 31.0097796,16.3865298 31.0097796,15.7578517 L31.0097796,11.4664867 L32.6315048,11.4664867 L32.6315048,15.9218561 C32.6315048,16.5505261 32.6003114,16.7418579 32.4755658,17.1245334 C32.2884453,17.6712053 31.6335158,18.0265455 30.8226592,18.0265455 C30.1677296,18.0265455 29.4504253,17.7532035 29.0138096,17.3431966 C29.0138096,17.3978674 29.045003,17.6712053 29.045003,17.8625411 L29.045003,19.1472166 C29.045003,19.7485553 29.0138096,20.349894 28.9202534,20.7052342" id="path3775" transform="translate(29.933827, 16.085860) scale(1, -1) translate(-29.933827, -16.085860) "></path>
                <path d="M35.3135858,18.2178893 L35.3135858,18.2452287 C35.3135858,19.1472367 35.6878267,19.6392418 36.3427563,19.6392418 C36.6546264,19.6392418 36.9041296,19.5025769 37.0600607,19.2565743 C37.2159957,19.0105718 37.2471851,18.7645732 37.2471851,18.2998955 L37.2471851,18.2179013 L35.3135858,18.2179013 L35.3135858,18.2178893 Z M38.2763555,16.0585331 C37.7461796,15.6211988 37.2159957,15.4025236 36.6546264,15.4025236 C35.7813909,15.4025236 35.3135858,15.9765349 35.3135858,16.9605411 L35.3135858,17.0152079 L38.9936519,17.0152079 L38.9936519,17.3978754 C38.9936519,18.7372218 38.7441607,19.584563 38.1516019,20.1859017 C37.7461796,20.5959086 37.0288712,20.8692385 36.3115749,20.8692385 C35.4695249,20.8692385 34.8145993,20.5685692 34.2844154,19.9945659 C33.7230501,19.3658878 33.5047442,18.6005568 33.5047442,17.4798736 C33.5047442,15.4571944 34.6898497,14.1725148 36.4986953,14.1725148 C37.4031161,14.1725148 38.1827953,14.4458488 38.9000917,15.0471874 L38.2763555,16.0585331 Z" id="path3777" transform="translate(36.249198, 17.520877) scale(1, -1) translate(-36.249198, -17.520877) "></path>
                <path d="M39.8980807,20.2952272 C40.0540118,19.9398991 40.147576,19.2838896 40.147576,18.4365524 L40.147576,14.1725148 L41.8004906,14.1725148 L41.8004906,18.6825509 C42.1123526,19.0378911 42.4554161,19.2292228 42.829661,19.2292228 C43.0167855,19.2292228 43.1727165,19.1745561 43.3286555,19.0925579 L43.7652712,20.5685692 C43.51578,20.6779028 43.4222158,20.7052342 43.1727165,20.7052342 C42.985592,20.7052342 42.7361008,20.6778947 42.6113512,20.5958966 C42.2994771,20.4592316 41.8940508,20.1038955 41.6757409,19.8032261 C41.6445475,20.1585623 41.5509873,20.4319042 41.3950563,20.7052342" id="path3779" transform="translate(41.831676, 17.438874) scale(1, -1) translate(-41.831676, -17.438874) "></path>
                <path d="M0.290565401,9.25247577 L0.290565401,7.80379584 L2.41128511,7.80379584 L2.41128511,0.587731606 L4.18894533,0.587731606 L4.18894533,7.80379584 L6.2472862,7.80379584 L6.52796686,9.25247577" id="path3781" transform="translate(3.409266, 4.920104) scale(1, -1) translate(-3.409266, -4.920104) "></path>
                <path d="M7.27645664,8.84247686 C7.33882745,8.59647431 7.40120628,7.99513562 7.40120628,7.39379693 L7.40120628,0.0137283212 L9.08530628,0.0137283212 L9.08530628,4.60577066 C9.45954715,4.93377139 9.98972307,5.17977394 10.3951574,5.17977394 C10.8941519,5.17977394 11.0500869,4.93377139 11.0500869,4.30510131 L11.0500869,0.0137283212 L12.6718121,0.0137283212 L12.6718121,4.49643708 C12.6718121,5.09777577 12.6406187,5.31644693 12.5158811,5.67177504 C12.3287566,6.21844693 11.6738311,6.57378708 10.8629625,6.57378708 C10.2080369,6.57378708 9.49074058,6.30045314 9.05411285,5.89045022 C9.05411285,5.97244438 9.08530628,6.21844693 9.08530628,6.4371181 L9.08530628,7.69446628 C9.08530628,8.29580496 9.05411285,8.89714365 8.96055263,9.25247577" id="path3783" transform="translate(9.974134, 4.633102) scale(1, -1) translate(-9.974134, -4.633102) "></path>
                <path d="M15.6345818,6.79245022 L15.6345818,6.81978964 C15.6345818,7.69445825 15.9776373,8.18647139 16.6325628,8.18647139 C16.9444369,8.18647139 17.1939282,8.07713781 17.3498712,7.80379584 C17.5058023,7.5851327 17.5369917,7.33913015 17.5369917,6.84712102 L17.5369917,6.79246226 L15.6345818,6.79246226 L15.6345818,6.79245022 Z M18.5661621,4.60576263 C18.0359782,4.16842029 17.5058023,3.97708453 16.9444369,3.97708453 C16.0711975,3.97708453 15.6033924,4.52375642 15.6033924,5.50776263 L15.6033924,5.56242942 L19.2834585,5.56242942 L19.2834585,5.94510898 C19.2834585,7.28445131 19.0339672,8.13179255 18.4414125,8.73313124 C18.0359782,9.17046555 17.3186778,9.4164681 16.6013734,9.4164681 C15.7593234,9.4164681 15.1043979,9.14313015 14.574222,8.54178745 C14.044038,7.91312139 13.7945428,7.17511372 13.7945428,6.02710314 C13.7945428,4.00442394 14.9796563,2.71974839 16.8196833,2.71974839 C17.6929227,2.71974839 18.4726019,3.02040971 19.2210877,3.59441701 L18.5661621,4.60576263 Z" id="path3785" transform="translate(16.539001, 6.068108) scale(1, -1) translate(-16.539001, -6.068108) "></path>
            </g>
        </g>
    </g>
</svg>