<?xml version="1.0" encoding="UTF-8" standalone="no"?>
<svg width="60px" height="60px" viewBox="0 0 60 60" version="1.1" xmlns="http://www.w3.org/2000/svg" xmlns:xlink="http://www.w3.org/1999/xlink" xmlns:sketch="http://www.bohemiancoding.com/sketch/ns">
    <!-- Generator: Sketch 3.3.2 (12043) - http://www.bohemiancoding.com/sketch -->
    <title>weatheryahoo</title>
    <desc>Created with Sketch.</desc>
    <defs></defs>
    <g id="Social-icons-grid" stroke="none" stroke-width="1" fill="none" fill-rule="evenodd" sketch:type="MSPage">
        <g id="weatheryahoo" sketch:type="MSLayerGroup">
            <rect id="Rectangle-2-Copy-7" fill="#510098" sketch:type="MSShapeGroup" x="0" y="0" width="60" height="60" rx="80"></rect>
            <g id="Imported-Layers-Copy-6" transform="translate(16.000000, 13.000000)" fill="#FFFFFF" sketch:type="MSShapeGroup">
                <path d="M16.5137,21.297 C15.6643,21.297 14.86605,21.52175 14.1701,21.90615 C14.20575,21.6752 14.22435,21.44425 14.22435,21.20865 C14.22435,18.5318 12.05435,16.3556 9.3744,16.3556 C6.696,16.3556 4.52755,18.5318 4.52755,21.20865 C4.52755,21.2443 4.53065,21.27995 4.53065,21.3156 C2.0057,21.47835 0,23.58015 0,26.15005 C0,28.82845 2.1731,30.99845 4.84995,30.99845 C5.02975,30.99845 5.20645,30.9845 5.3785,30.96745 L15.99135,30.96745 C16.1665,30.9845 16.337,30.99845 16.51525,30.99845 C19.1983,30.99845 21.3652,28.8269 21.3652,26.15005 C21.36365,23.46855 19.19365,21.297 16.5137,21.297" id="Fill-1"></path>
                <path d="M17.019,6.324 C17.453,6.324 17.8095,5.9675 17.8095,5.53195 L17.8095,0.7905 C17.8095,0.35495 17.453,0 17.019,0 C16.585,0 16.23315,0.35495 16.23315,0.7905 L16.23315,5.53195 C16.23315,5.9644 16.585,6.324 17.019,6.324" id="Fill-2"></path>
                <path d="M11.36925,8.19175 C11.6746,8.4971 12.17525,8.4971 12.48525,8.1902 C12.7906,7.88485 12.7906,7.37955 12.48525,7.07265 L9.1326,3.72 C8.82415,3.41465 8.3235,3.4162 8.01505,3.72 C7.7097,4.0269 7.70505,4.5322 8.01505,4.83755 L11.36925,8.19175" id="Fill-3"></path>
                <path d="M5.07005,13.5067 L9.80995,13.50825 C10.24395,13.5067 10.60045,13.15175 10.60045,12.7162 C10.60045,12.28375 10.24395,11.92725 9.80995,11.92725 L5.07005,11.92725 C4.63295,11.92725 4.27955,12.28375 4.27955,12.7162 C4.27645,13.15175 4.63295,13.50825 5.07005,13.5067" id="Fill-4"></path>
                <path d="M22.6486,17.26855 C22.34325,16.96165 21.83175,16.96475 21.5295,17.2701 C21.2226,17.5739 21.2226,18.0761 21.5326,18.3861 L24.8837,21.7372 C25.19215,22.0472 25.69435,22.0472 25.99815,21.7372 C26.30505,21.4303 26.30815,20.925 25.99815,20.6212 L22.6486,17.26855" id="Fill-5"></path>
                <path d="M28.9478,11.9505 L24.2079,11.94895 C23.7708,11.94895 23.4174,12.307 23.4174,12.73945 C23.4143,13.17035 23.7708,13.52995 24.2079,13.52995 L28.9478,13.52995 C29.3818,13.52995 29.73675,13.1719 29.73675,12.73945 C29.73675,12.307 29.3818,11.94895 28.9478,11.9505" id="Fill-6"></path>
                <path d="M22.6641,8.20415 L26.01675,4.8515 C26.3221,4.5446 26.3221,4.04085 26.01675,3.7355 C25.70985,3.4286 25.2061,3.4255 24.8961,3.73395 L21.54655,7.0866 C21.2412,7.39505 21.2412,7.90345 21.5512,8.2057 C21.8519,8.5126 22.35565,8.5126 22.6641,8.20415" id="Fill-7"></path>
                <path d="M17.019,8.59785 C19.29595,8.59785 21.142,10.4439 21.142,12.7224 C21.142,14.99935 19.29595,16.84385 17.019,16.84385 C14.74205,16.84385 12.896,14.99935 12.896,12.7224 C12.896,10.4439 14.74205,8.59785 17.019,8.59785" id="Fill-8"></path>
            </g>
        </g>
    </g>
</svg>