<?xml version="1.0" encoding="UTF-8" standalone="no"?>
<svg width="60px" height="60px" viewBox="0 0 60 60" version="1.1" xmlns="http://www.w3.org/2000/svg" xmlns:xlink="http://www.w3.org/1999/xlink" xmlns:sketch="http://www.bohemiancoding.com/sketch/ns">
    <!-- Generator: Sketch 3.3.2 (12043) - http://www.bohemiancoding.com/sketch -->
    <title>internet</title>
    <desc>Created with Sketch.</desc>
    <defs></defs>
    <g id="Social-icons-grid" stroke="none" stroke-width="1" fill="none" fill-rule="evenodd" sketch:type="MSPage">
        <g id="internet" sketch:type="MSLayerGroup">
            <rect id="Rectangle-2" fill="#999999" sketch:type="MSShapeGroup" x="0" y="0" width="60" height="60" rx="80"></rect>
            <path d="M23.3215602,22.16454 C22.7272915,24.2290583 22.3865763,26.6471158 22.3475279,29.453125 L22.3475279,29.453125 L29.453125,29.453125 L29.453125,22.8849466 C27.4752453,22.8442051 25.4076142,22.5859112 23.3215602,22.16454 Z M23.6555516,21.1159203 C24.3480675,19.1417325 25.293887,17.5266264 26.4424789,16.2344604 C26.9332543,15.6823381 27.4414886,15.2136127 27.9559655,14.8207257 C28.118921,14.6962825 28.7460358,14.62738 29.453125,14.608054 L29.453125,14.608054 L29.453125,21.7909441 C27.5900121,21.7508935 25.6339926,21.5096044 23.6555516,21.1159203 Z M36.6168736,22.1769297 C37.2479559,24.2514215 37.6103791,26.6659885 37.6521775,29.453125 L37.6521775,29.453125 L30.546875,29.453125 L30.546875,22.8849466 C32.5052951,22.8446059 34.5517092,22.5909726 36.6168736,22.1769297 Z M36.2658049,21.1314913 C35.5793746,19.2711017 34.6584882,17.7126869 33.5477277,16.4283699 C33.0011434,15.7963816 32.4324957,15.2612551 31.8571685,14.8144439 C31.7246942,14.7115615 31.1857118,14.6439595 30.546875,14.6163985 L30.546875,14.6163985 L30.546875,21.7909441 C32.3852977,21.7514243 34.314181,21.5159643 36.2658049,21.1314913 Z M42.1591479,20.6913064 C44.0336362,23.1361042 45.1874097,26.162561 45.3029164,29.453125 L45.3029164,29.453125 L38.7459431,29.453125 C38.7005759,26.4166291 38.2779362,23.9541932 37.6407587,21.9590227 C37.8938813,21.9020789 38.1471133,21.8428659 38.4003281,21.7814805 C39.3991883,21.5393326 40.3268411,21.2798493 41.1600475,21.0201486 C41.4523513,20.9290409 41.7122331,20.8443146 41.936776,20.7681061 C42.0310234,20.7361191 42.1054717,20.7102822 42.1591479,20.6913064 Z M41.4125738,19.7906762 C39.2124837,17.3329685 36.230169,15.5901393 32.8570006,14.9535598 C34.3320207,15.9999354 36.0698271,17.8146594 37.2743477,20.9201543 C37.5636092,20.8559701 37.8531131,20.788708 38.1426406,20.7185195 C39.1176574,20.4821518 40.0228904,20.2289397 40.8345814,19.9759451 C41.0577773,19.9063776 41.2512093,19.8440662 41.4125738,19.7906762 Z M17.8408521,20.6913064 C15.9663638,23.1361042 14.8125903,26.162561 14.6970836,29.453125 L14.6970836,29.453125 L21.253774,29.453125 C21.2961616,26.4041259 21.6926896,23.93825 22.2955608,21.9446495 C22.0636484,21.8921328 21.8316529,21.8377184 21.5996719,21.7814805 C20.6008117,21.5393326 19.6731589,21.2798493 18.8399525,21.0201486 C18.5476487,20.9290409 18.2877669,20.8443146 18.063224,20.7681061 C17.9689766,20.7361191 17.8945283,20.7102822 17.8408521,20.6913064 Z M18.5874262,19.7906762 C20.7223068,17.4058136 23.5937298,15.6940804 26.8441031,15.0130687 L26.8441031,15.0130687 C25.4039771,16.0544034 23.772329,17.8435733 22.6444694,20.9020613 C22.3822274,20.8433604 22.1198032,20.7821422 21.8573594,20.7185195 C20.8823426,20.4821518 19.9771096,20.2289397 19.1654186,19.9759451 C18.9422227,19.9063776 18.7487907,19.8440662 18.5874262,19.7906762 Z M23.3215602,37.83546 C22.7272915,35.7709417 22.3865763,33.3528842 22.3475279,30.546875 L22.3475279,30.546875 L29.453125,30.546875 L29.453125,37.1150534 C27.4752453,37.1557949 25.4076142,37.4140888 23.3215602,37.83546 L23.3215602,37.83546 Z M23.6555516,38.8840797 C24.3480675,40.8582675 25.293887,42.4733736 26.4424789,43.7655396 C26.9081072,44.2893713 27.389451,44.7381337 27.8769314,45.1182818 C28.0499105,45.2531748 28.7079473,45.3209501 29.453125,45.3315616 L29.453125,38.2090559 C27.5900121,38.2491065 25.6339926,38.4903956 23.6555516,38.8840797 L23.6555516,38.8840797 Z M36.6168747,37.8230705 C37.2479569,35.7485787 37.6103797,33.3340116 37.6521776,30.546875 L37.6521776,30.546875 L30.546875,30.546875 L30.546875,37.1150534 C32.5052954,37.1553941 34.55171,37.4090274 36.6168747,37.8230705 L36.6168747,37.8230705 Z M36.2658061,38.8685089 C35.5793757,40.728899 34.6584889,42.287314 33.5477279,43.5716313 C33.0556671,44.1405764 32.5457253,44.6310204 32.0291264,45.049199 C31.8697344,45.1782243 31.256913,45.2675201 30.546875,45.308176 L30.546875,38.2090559 C32.3852981,38.2485757 34.3141818,38.4840358 36.2658061,38.8685089 L36.2658061,38.8685089 Z M42.1591479,39.3086936 C44.0336362,36.8638958 45.1874097,33.837439 45.3029164,30.546875 L45.3029164,30.546875 L38.7459432,30.546875 C38.7005766,33.5833711 38.2779372,36.045807 37.6407598,38.0409776 C37.893882,38.0979212 38.1471137,38.1571341 38.4003281,38.2185195 C39.3991883,38.4606674 40.3268411,38.7201507 41.1600475,38.9798514 C41.4523513,39.0709591 41.7122331,39.1556854 41.936776,39.2318939 C42.0310234,39.2638809 42.1054717,39.2897178 42.1591479,39.3086936 L42.1591479,39.3086936 Z M41.4125738,40.2093238 C39.212484,42.6670312 36.2301696,44.4098603 32.8570016,45.04644 L32.8570016,45.04644 C34.332022,44.0000644 36.0698285,42.1853405 37.2743489,39.0798459 C37.56361,39.1440301 37.8531134,39.2112921 38.1426406,39.2814805 C39.1176574,39.5178482 40.0228904,39.7710603 40.8345814,40.0240549 C41.0577773,40.0936224 41.2512093,40.1559338 41.4125738,40.2093238 L41.4125738,40.2093238 Z M17.8408521,39.3086936 C15.9663638,36.8638958 14.8125903,33.837439 14.6970836,30.546875 L14.6970836,30.546875 L21.253774,30.546875 C21.2961616,33.5958741 21.6926896,36.06175 22.2955608,38.0553505 C22.0636484,38.1078672 21.8316529,38.1622816 21.5996719,38.2185195 C20.6008117,38.4606674 19.6731589,38.7201507 18.8399525,38.9798514 C18.5476487,39.0709591 18.2877669,39.1556854 18.063224,39.2318939 C17.9689766,39.2638809 17.8945283,39.2897178 17.8408521,39.3086936 L17.8408521,39.3086936 Z M18.5874262,40.2093238 C20.7223068,42.5941864 23.5937298,44.3059196 26.8441031,44.9869313 C25.4039771,43.9455966 23.772329,42.1564267 22.6444694,39.0979387 C22.3822274,39.1566396 22.1198032,39.2178578 21.8573594,39.2814805 C20.8823426,39.5178482 19.9771096,39.7710603 19.1654186,40.0240549 C18.9422227,40.0936224 18.7487907,40.1559338 18.5874262,40.2093238 L18.5874262,40.2093238 Z M30,47.5 C39.6649831,47.5 47.5,39.6649831 47.5,30 C47.5,20.3350169 39.6649831,12.5 30,12.5 C20.3350169,12.5 12.5,20.3350169 12.5,30 C12.5,39.6649831 20.3350169,47.5 30,47.5 Z" id="globe-lg" fill="#FFFFFF" sketch:type="MSShapeGroup"></path>
        </g>
    </g>
</svg>