<?xml version="1.0" encoding="UTF-8" standalone="no"?>
<svg width="60px" height="60px" viewBox="0 0 60 60" version="1.1" xmlns="http://www.w3.org/2000/svg" xmlns:xlink="http://www.w3.org/1999/xlink" xmlns:sketch="http://www.bohemiancoding.com/sketch/ns">
    <!-- Generator: Sketch 3.3.1 (12005) - http://www.bohemiancoding.com/sketch -->
    <title>wellsfargo</title>
    <desc>Created with Sketch.</desc>
    <defs></defs>
    <g id="Social-icons-grid" stroke="none" stroke-width="1" fill="none" fill-rule="evenodd" sketch:type="MSPage">
        <g id="wellsfargo" sketch:type="MSLayerGroup">
            <path d="M60,30.0000003 C60,46.5600004 46.5599984,60 30.0000025,60 C13.4399991,60 0,46.5600004 0,30.0000003 C0,13.4400011 13.4399991,0 30.0000025,0 C46.5599984,0 60,13.4400011 60,30.0000003 L60,30.0000003 Z" id="path2760" fill="#B5142F" sketch:type="MSShapeGroup"></path>
            <g id="g3675" transform="translate(29.000000, 30.762457) scale(1, -1) translate(-29.000000, -30.762457) translate(4.000000, 18.762457)" fill="#FFBE00" sketch:type="MSShapeGroup">
                <path d="M25.6880869,6.98920394 C25.6880869,7.78279606 25.1208679,8.38345655 23.8552364,8.38345655 L22.1703001,8.38345655 L22.1703001,5.58852028 L23.8552364,5.58852028 C25.0218297,5.58852028 25.6880869,6.11458053 25.6880869,6.98920394 L25.6880869,6.98920394 Z M15.1424438,4.24957474 L13.9244021,7.54484705 L13.8845295,7.54484705 L12.661343,4.24957474 L15.1424438,4.24957474 L15.1424438,4.24957474 Z M28.7145411,2.46302781 L28.7145411,2.21736153 C28.7145411,0.653329085 27.9685388,0.0552410197 26.8366732,0.0552410197 C25.5144484,0.0552410197 25.0694195,0.6906292 25.0694195,1.92281924 L25.0694195,2.39614484 C25.0694195,3.95246002 24.4044484,4.58141715 22.889292,4.58141715 L22.1703001,4.58141715 L22.1703001,1.84307416 C22.1703001,1.4816489 22.3387937,1.35302781 22.7336605,1.35302781 L23.7279015,1.35302781 L23.7279015,0.335634994 L14.6845527,0.335634994 L14.6845527,1.35302781 L15.6916559,1.35302781 C15.9694774,1.35302781 16.0698019,1.41991078 16.0698019,1.58583198 C16.0698019,1.66943569 16.0453638,1.80577404 15.991343,1.95626072 C15.9437532,2.07845075 15.515445,3.24504403 15.515445,3.24504403 L12.2844832,3.24504403 C12.2844832,3.24504403 11.8883302,2.16334067 11.8188749,1.98841599 C11.7725713,1.85207764 11.740416,1.7414635 11.740416,1.60898378 C11.740416,1.41605214 11.8999061,1.35302781 12.167438,1.35302781 L13.1295238,1.35302781 L13.1295238,0.335634994 L8.86959328,0.335634994 L8.86959328,1.35302781 C9.58987138,1.35302781 10.0477625,1.45592468 10.3050046,2.09002665 L13.1912619,9.39441831 L14.9289328,9.39441831 L17.8872178,2.09002665 C18.1367428,1.44820742 18.6010649,1.35302781 19.3226292,1.35302781 L19.6917717,1.35302781 C20.0814936,1.35302781 20.2589907,1.4816489 20.2589907,1.84307416 L20.2589907,7.89212399 C20.2589907,8.25483546 20.1187937,8.38345655 19.6917717,8.38345655 L18.7425481,8.38345655 L18.7425481,9.39441831 L24.688701,9.39441831 C26.664321,9.39441831 27.591679,8.4606292 27.591679,7.04451101 C27.591679,5.29140556 25.8450046,4.94670104 25.0282607,4.90168366 L25.0282607,4.88110429 C25.9839154,4.80779027 26.7929421,4.41163731 26.7929421,3.02124334 L26.7929421,2.48875203 C26.7929421,1.55882155 26.9897323,1.35560023 27.3190023,1.35560023 C27.6418413,1.35560023 27.8141935,1.60898378 27.8141935,2.21736153 L27.8141935,2.46302781 L28.7145411,2.46302781 L28.7145411,2.46302781 Z M36.2440197,8.65227462 C36.0498019,8.8271993 35.1983302,9.66838123 33.5249699,9.66838123 C30.848365,9.66838123 29.1660012,7.62330591 29.1660012,4.86695597 C29.1660012,2.08488181 30.8740892,0.0552410197 33.5249699,0.0552410197 C35.2317717,0.0552410197 36.1565574,0.83468482 36.3636373,1.02761645 L36.874263,0.335634994 L37.8016211,0.335634994 L37.8016211,3.4778482 C37.8016211,4.00776709 38.0009838,4.15310892 38.5283302,4.15310892 L38.7804276,4.15310892 L38.7804276,5.16664311 L34.5976698,5.16664311 L34.5976698,4.15310892 L35.2163372,4.15310892 C35.666511,4.15310892 35.9404739,3.95246002 35.9404739,3.51128969 L35.9404739,2.98522943 C35.9404739,1.94725724 35.3025133,1.22440672 33.9172642,1.22440672 C32.1795933,1.22440672 31.3088285,2.78715295 31.3088285,4.86695597 C31.3088285,6.91588992 32.1808795,8.48892584 33.8632433,8.48892584 C35.617635,8.48892584 36.2144368,6.85157937 36.4150857,6.2997949 L37.5392341,6.2997949 L37.5392341,9.39441831 L36.5835794,9.39441831 L36.2440197,8.65227462 L36.2440197,8.65227462 Z M44.5966732,8.59953998 C46.742073,8.59953998 47.3838922,6.81685168 47.3838922,4.86695597 C47.3838922,2.91577404 46.742073,1.13179954 44.5966732,1.13179954 C42.44227,1.13179954 41.8030232,2.91577404 41.8030232,4.86695597 C41.8030232,6.81685168 42.4409838,8.59953998 44.5966732,8.59953998 L44.5966732,8.59953998 Z M44.5966732,9.66838123 C41.6268123,9.66838123 39.6627683,7.587292 39.6627683,4.86695597 C39.6627683,2.14790614 41.6268123,0.0552410197 44.5966732,0.0552410197 C47.5562445,0.0552410197 49.5267196,2.14790614 49.5267196,4.86695597 C49.5267196,7.587292 47.5562445,9.66838123 44.5966732,9.66838123 L44.5966732,9.66838123 Z M6.6868934,0.335634994 L6.6868934,1.35302781 L6.00391541,1.35302781 C5.37238586,1.35302781 5.13829548,1.54338702 5.13829548,2.05401275 L5.13829548,4.52225145 L5.69779722,4.52225145 C6.54798262,4.52225145 6.91712514,4.15310892 6.91712514,3.19230939 L6.91712514,2.89390846 L7.86634878,2.89390846 L7.86634878,7.05865933 L6.91712514,7.05865933 L6.91712514,6.87987601 C6.91712514,6.17889108 6.65859676,5.53064079 5.77882851,5.53064079 L5.13829548,5.53064079 L5.13829548,8.38345655 L6.92226999,8.38345655 C8.92618656,8.38345655 9.13712514,7.37506721 9.27089108,6.2997949 L10.2509838,6.2997949 L10.2509838,9.39441831 L1.67967439,9.39441831 L1.67967439,8.38345655 L2.58516686,8.38345655 C2.99546813,8.38345655 3.22312746,8.19952839 3.22312746,7.8702584 L3.22312746,2.0244299 C3.22312746,1.64113905 3.01733372,1.35302781 2.53243221,1.35302781 L1.67967439,1.35302781 L1.67967439,0.335634994 L6.6868934,0.335634994 L6.6868934,0.335634994 Z" id="path3683"></path>
                <path d="M48.2353767,22.8198747 C48.151773,22.9060509 47.3183083,23.7690984 45.6848205,23.7690984 C43.9793049,23.7690984 42.2519236,22.9060509 42.2519236,21.0487623 C42.2519236,19.3663985 43.5934416,18.5972444 45.1368947,18.2679744 C45.6488066,18.1573603 45.94978,18.0981946 46.4179607,18.0030149 C47.5755505,17.7573487 48.3459908,17.4049269 48.3459908,16.6023313 C48.3459908,15.9939535 47.7041716,15.3354136 46.4231056,15.3354136 C44.6365586,15.3354136 43.5792933,16.332227 43.358065,17.8551007 L42.3110893,17.8551007 L42.3110893,14.4492143 L43.2384474,14.4492143 L43.5394207,15.2620995 C43.7580766,15.0704541 44.6314138,14.1765375 46.2867672,14.1765375 C48.3922944,14.1765375 49.9859097,15.1193301 49.9859097,16.9714738 C49.9859097,18.7644518 48.5003362,19.5348921 46.6867788,19.8976036 C46.3665123,19.9812073 46.0693976,20.0313695 45.7388414,20.1046835 C44.6108344,20.3464912 43.8892701,20.6281714 43.8892701,21.4333394 C43.8892701,22.1330381 44.6314138,22.614081 45.7414138,22.614081 C47.4134879,22.614081 48.060452,21.5490984 48.4064428,20.4069431 L49.4251218,20.4069431 L49.4251218,23.5028527 L48.6868367,23.5028527 L48.2353767,22.8198747 L48.2353767,22.8198747 Z M41.345145,14.4492143 L41.345145,17.8551007 L40.2968831,17.8551007 C40.1579723,16.2962131 39.8660024,15.4640346 38.4640326,15.4640346 L36.4022365,15.4640346 L36.4022365,21.8655063 C36.4022365,22.3645561 36.6080302,22.4944634 37.2099769,22.4944634 L37.9739862,22.4944634 L37.9739862,23.5028527 L32.9667672,23.5028527 L32.9667672,22.4944634 L33.7603593,22.4944634 C34.3095714,22.4944634 34.4934995,22.3105352 34.4934995,21.9015202 L34.4934995,16.0685538 C34.4934995,15.5952282 34.2311125,15.4640346 33.8503941,15.4640346 L32.9667672,15.4640346 L32.9667672,14.4492143 L41.345145,14.4492143 L41.345145,14.4492143 Z M32.0548437,14.4492143 L32.0548437,17.8551007 L31.0091542,17.8551007 C30.8702435,16.2962131 30.5859908,15.4640346 29.1724451,15.4640346 L27.1132214,15.4640346 L27.1132214,21.8655063 C27.1132214,22.3645561 27.317729,22.4944634 27.9196757,22.4944634 L28.6849711,22.4944634 L28.6849711,23.5028527 L23.682897,23.5028527 L23.682897,22.4944634 L24.4752029,22.4944634 C25.0218425,22.4944634 25.2044845,22.3105352 25.2044845,21.9015202 L25.2044845,16.0685538 C25.2044845,15.5952282 24.9433837,15.4640346 24.5575204,15.4640346 L23.682897,15.4640346 L23.682897,14.4492143 L32.0548437,14.4492143 L32.0548437,14.4492143 Z M17.1772423,22.4944634 L17.1772423,19.6480787 L17.8242064,19.6480787 C18.6460951,19.6480787 19.0178101,20.0480903 19.0178101,21.1632351 L19.0178101,21.3407322 L19.9760372,21.3407322 L19.9760372,16.923884 L19.0178101,16.923884 L19.0178101,17.112957 C19.0178101,18.222957 18.6460951,18.6422618 17.8242064,18.6422618 L17.1772423,18.6422618 L17.1772423,15.4640346 L19.9040094,15.4640346 C21.1426305,15.4640346 21.5940905,16.2820648 21.743291,17.8551007 L22.7336733,17.8551007 L22.7336733,14.4492143 L13.7739283,14.4492143 L13.7739283,15.4640346 L14.5340789,15.4640346 C15.0035459,15.4640346 15.2556432,15.5952282 15.2556432,16.4158307 L15.2556432,21.7188782 C15.2556432,22.3105352 14.9855389,22.4944634 14.3527232,22.4944634 L14.0749016,22.4944634 C13.4266513,22.4944634 13.1141021,22.3401181 12.8890152,21.6609987 L10.4169178,14.4492143 L8.53776373,14.4492143 L7.10621101,19.1503151 L7.07920058,19.1503151 L5.48815771,14.4492143 L3.58713801,14.4492143 L1.02243349,22.0095619 C0.909246929,22.3799906 0.716315295,22.4944634 0.197972306,22.4944634 L0.00889930475,22.4944634 L0.00889930475,23.5028527 L3.96528401,23.5028527 L3.96528401,22.4944634 L3.38777532,22.4944634 C3.09194681,22.4944634 2.96589815,22.3105352 2.96589815,22.1330381 C2.96589815,21.997986 3.01734658,21.8282061 3.09194681,21.6404194 L4.8026073,16.5907554 L4.83090394,16.5907554 L6.46310556,21.3407322 L6.23287381,21.9864101 C6.09524925,22.3877079 5.82000012,22.4944634 5.42384716,22.4944634 L5.09714959,22.4944634 L5.09714959,23.5028527 L9.18472781,23.5028527 L9.18472781,22.4944634 L8.46444971,22.4944634 C8.18405574,22.4944634 8.07858644,22.3684147 8.07858644,22.1922038 C8.07858644,22.0545793 8.14675562,21.8590752 8.191773,21.7304541 L9.68892248,16.6795039 L9.7146467,16.6795039 L11.45489,21.6121227 C11.5101971,21.7741853 11.5603593,21.9092374 11.5603593,22.0790173 C11.5603593,22.2938145 11.4536038,22.4944634 10.9751334,22.4944634 L10.3178796,22.4944634 L10.3178796,23.5028527 L22.7336733,23.5028527 L22.7336733,20.4043707 L21.7149943,20.4069431 C21.5092006,21.717592 21.3921554,22.4944634 19.5773118,22.4944634 L17.1772423,22.4944634 L17.1772423,22.4944634 Z" id="path3687"></path>
            </g>
        </g>
    </g>
</svg>