<?xml version="1.0" encoding="UTF-8" standalone="no"?>
<svg width="60px" height="60px" viewBox="0 0 60 60" version="1.1" xmlns="http://www.w3.org/2000/svg" xmlns:xlink="http://www.w3.org/1999/xlink" xmlns:sketch="http://www.bohemiancoding.com/sketch/ns">
    <!-- Generator: Sketch 3.3.2 (12043) - http://www.bohemiancoding.com/sketch -->
    <title>wikipedia</title>
    <desc>Created with Sketch.</desc>
    <defs></defs>
    <g id="Social-icons-grid" stroke="none" stroke-width="1" fill="none" fill-rule="evenodd" sketch:type="MSPage">
        <g id="wikipedia" sketch:type="MSLayerGroup">
            <rect id="Rectangle-9" fill="#F2F3F4" sketch:type="MSShapeGroup" x="0" y="0" width="60" height="60" rx="80"></rect>
            <path d="M49.9715559,18.8333333 L41.7023144,18.8333333 L41.1107654,18.9369484 L41.1107654,19.7459604 C41.1107654,19.8409786 41.3929845,19.9206129 41.4712059,19.9798862 C41.5458717,20.0441366 41.7480917,20.0789766 41.8312019,20.0789766 L42.5805269,20.1169839 C43.4302952,20.1577059 43.688959,20.34548 44.0200664,20.6622073 C44.3449517,20.9902463 44.3982845,21.5467814 44.1449539,22.3290979 L36.8365907,41.7530786 L36.5574827,41.6684672 L31.9144232,31.036384 C31.981978,30.8766629 32.022422,30.7870743 32.022422,30.7870743 L35.8232686,22.8335992 C36.2654859,21.9947243 36.6934812,21.2449855 36.9108121,20.8956806 C37.3076966,20.2586062 37.5010278,20.1382498 38.583238,20.0825963 C38.8041244,20.0825963 38.8890123,19.9721942 38.8890123,19.7486752 L38.8890123,18.9441879 L38.8334574,18.8577666 C38.8334574,18.8577666 34.2895079,18.8419302 32.220642,18.8577666 L32.2219753,18.9405681 L32.2219753,19.745508 C32.2219753,19.8436934 32.1686426,19.9219703 32.2419751,19.9812436 C32.3201964,20.045494 32.353085,20.0785241 32.437084,20.0785241 L32.7468584,20.1187937 C33.5926267,20.1595158 33.9708448,20.4065631 34.0859546,20.5617595 C34.2881746,20.8400271 34.3823958,21.1368458 33.8930679,22.3313602 L30.9664337,28.8559427 L28.3215742,22.8037364 C27.4544727,20.8698899 27.2398084,20.2712753 28.5473495,20.1595158 L28.8984567,20.0767142 C29.1500094,20.0767142 29.1108988,19.9753615 29.1108988,19.7830628 L29.1108988,18.9369484 L29.0846768,18.8677209 C29.0846768,18.8677209 24.2402862,18.8677209 22.0300886,18.8690783 L21.9998667,18.9518798 L21.9998667,19.8002566 C21.9998667,19.9907454 22.1843091,20.0396119 22.5265275,20.0920981 C23.7509583,20.2712753 23.7296252,20.4147075 24.9393896,23.0991977 C25.1202764,23.5014414 25.6544927,24.7145069 25.6544927,24.7145069 L28.4117954,30.7735003 C28.4117954,30.7735003 28.7246808,31.5517445 29.2140087,32.759833 L25.2069421,41.7019498 L24.9780558,41.636342 C24.9780558,41.636342 18.7599027,26.9677955 16.9617004,22.0598796 C16.7723692,21.5544734 16.6901479,21.1762105 16.6901479,20.9431897 C16.6901479,20.4445704 17.0919212,20.1744472 17.8954678,20.1382498 L19.1181209,20.0934555 C19.3683404,20.0934555 19.7776691,19.9866732 19.7776691,19.7645116 L19.7776691,18.9595718 L19.4092288,18.8763178 C19.4092288,18.8763178 11.7915356,18.8668159 10.2528861,18.8763178 L10,18.9595718 L10,19.8065911 C10,19.9586202 10.1991089,20.0531859 10.5453273,20.0934555 C11.491539,20.1518239 12.1270875,20.3192369 12.4248619,20.6015766 C12.7217475,20.8857263 13.0439662,21.6037923 13.4617393,22.7227447 C15.7226031,28.7966695 20.5292163,39.6359828 22.8687459,45.8103554 C23.5411829,47.4948922 24.3905068,47.7573234 25.4167176,45.7574167 C26.4740392,43.5638539 28.6069044,38.6948502 30.1628871,35.1009002 C31.6184265,38.6862534 33.6001822,43.5367058 34.5561716,45.7343409 C35.317052,47.4930823 36.1850424,47.6668299 37.0654771,45.7868271 C39.369007,40.0613023 46.0964878,22.8304319 46.0964878,22.8304319 C46.3871513,21.98477 46.793369,21.3332167 47.3169187,20.8599356 C47.8364685,20.3925366 48.6097932,20.1282955 49.6942256,20.0767142 C49.9137787,20.0767142 50,19.9640498 50,19.7459604 L50,18.9369484 L49.9715559,18.8333333 L49.9715559,18.8333333 Z" id="Wikipedia" fill="#000000" sketch:type="MSShapeGroup"></path>
        </g>
    </g>
</svg>