<?xml version="1.0" encoding="UTF-8" standalone="no"?>
<svg width="60px" height="60px" viewBox="0 0 60 60" version="1.1" xmlns="http://www.w3.org/2000/svg" xmlns:xlink="http://www.w3.org/1999/xlink" xmlns:sketch="http://www.bohemiancoding.com/sketch/ns">
    <!-- Generator: Sketch 3.3.2 (12043) - http://www.bohemiancoding.com/sketch -->
    <title>wordpress</title>
    <desc>Created with Sketch.</desc>
    <defs></defs>
    <g id="Social-icons-grid" stroke="none" stroke-width="1" fill="none" fill-rule="evenodd" sketch:type="MSPage">
        <g id="wordpress" sketch:type="MSLayerGroup">
            <rect id="Path" fill="#21759B" sketch:type="MSShapeGroup" x="0" y="0" width="60" height="60" rx="80"></rect>
            <g id="wordpress-logo-notext-cmyk" transform="translate(10.000000, 10.000000)" fill="#FFFFFF" sketch:type="MSShapeGroup">
                <path d="M2.9441206,20.0214874 C2.9441206,26.7810854 6.8721608,32.6234975 12.5694472,35.3911357 L4.42291457,13.0711357 C3.47537688,15.1949548 2.9441206,17.5455075 2.9441206,20.0214874" id="Fill-1"></path>
                <path d="M31.5507136,19.1601608 C31.5507136,17.048804 30.7923216,15.5876985 30.1426734,14.4502111 C29.2771457,13.0427739 28.4650854,11.8522211 28.4650854,10.4447839 C28.4650854,8.87513568 29.6554372,7.41382915 31.3330251,7.41382915 C31.408804,7.41382915 31.4805628,7.42287437 31.5543317,7.42749749 C28.5159397,4.64357789 24.4678995,2.94367839 20.0218693,2.94367839 C14.0552362,2.94367839 8.80659296,6.00518593 5.75292462,10.6411658 C6.15392965,10.6540302 6.53161809,10.6618693 6.8520201,10.6618693 C8.63794975,10.6618693 11.4035779,10.4447839 11.4035779,10.4447839 C12.3237789,10.3909146 12.4325226,11.7432764 11.5129246,11.8522211 C11.5129246,11.8522211 10.5872965,11.9603618 9.55835176,12.0144322 L15.7770452,30.5133266 L19.5149347,19.3046834 L16.8544322,12.0144322 C15.9342312,11.9603618 15.0630754,11.8522211 15.0630754,11.8522211 C14.1426734,11.7977487 14.2506131,10.3909146 15.1714171,10.4447839 C15.1714171,10.4447839 17.9913166,10.6618693 19.6693065,10.6618693 C21.4548342,10.6618693 24.2210653,10.4447839 24.2210653,10.4447839 C25.1416683,10.3909146 25.2502111,11.7432764 24.3300101,11.8522211 C24.3300101,11.8522211 23.4035779,11.9603618 22.3756382,12.0144322 L28.5474975,30.3724221 L30.2512161,24.6809648 C30.9885025,22.3177487 31.5507136,20.6216683 31.5507136,19.1601608" id="Fill-3"></path>
                <path d="M20.3217286,21.515397 L15.1971055,36.4046432 C16.7275578,36.8546935 18.3456482,37.1005226 20.0218291,37.1005226 C22.0105729,37.1005226 23.9181106,36.757206 25.6931859,36.1324824 C25.6477588,36.0591156 25.6053467,35.9815276 25.5707739,35.8971055 L20.3217286,21.515397 Z" id="Fill-5"></path>
                <path d="M35.0078593,11.8284824 C35.0812261,12.372402 35.1226332,12.9559196 35.1226332,13.5846633 C35.1226332,15.3169246 34.7982111,17.2650653 33.8239397,19.7014472 L28.6078593,34.7828543 C33.6850452,31.8226533 37.0995176,26.3219497 37.0995176,20.0214472 C37.0995176,17.052201 36.3409246,14.2608442 35.0078593,11.8284824" id="Fill-7"></path>
                <path d="M20.0218894,39.0171658 C9.54832161,39.0171658 1.02711558,30.4953568 1.02711558,20.0215879 C1.02711558,9.5480201 9.54832161,1.02721608 20.0218894,1.02721608 C30.4954573,1.02721608 39.0168643,9.5480201 39.0168643,20.0215879 C39.0168643,30.4953568 30.4954573,39.0171658 20.0218894,39.0171658 M20.0218894,0.114251256 C9.04460302,0.114251256 0.114150754,9.04450251 0.114150754,20.0215879 C0.114150754,30.9992764 9.04460302,39.9299296 20.0218894,39.9299296 C30.9991759,39.9299296 39.9300302,30.9992764 39.9300302,20.0215879 C39.9300302,9.04450251 30.9991759,0.114251256 20.0218894,0.114251256" id="Fill-9"></path>
            </g>
        </g>
    </g>
</svg>