<?xml version="1.0" encoding="UTF-8" standalone="no"?>
<svg width="60px" height="60px" viewBox="0 0 60 60" version="1.1" xmlns="http://www.w3.org/2000/svg" xmlns:xlink="http://www.w3.org/1999/xlink" xmlns:sketch="http://www.bohemiancoding.com/sketch/ns">
    <!-- Generator: Sketch 3.3.2 (12043) - http://www.bohemiancoding.com/sketch -->
    <title>yahoofood</title>
    <desc>Created with Sketch.</desc>
    <defs></defs>
    <g id="Social-icons-grid" stroke="none" stroke-width="1" fill="none" fill-rule="evenodd" sketch:type="MSPage">
        <g id="yahoofood" sketch:type="MSLayerGroup">
            <rect id="Rectangle-2-Copy-7" fill="#510098" sketch:type="MSShapeGroup" x="0" y="0" width="60" height="60" rx="80"></rect>
            <g id="Imported-Layers-Copy-9" transform="translate(16.500000, 13.500000)" fill="#FFFFFF" sketch:type="MSShapeGroup">
                <path d="M12.5903158,0.7161 C13.8800526,0.85715 14.9698421,1.3237 14.9698421,2.7869 C14.9698421,4.5849 12.978,5.09795 11.209,5.09795 L10.3283158,5.09795 C8.42652632,5.09795 6.83915789,6.65105 6.83915789,8.6273 L6.83915789,9.8642 C9.65063158,12.46975 14.6081053,12.6821 19.3335789,12.2233 L19.3335789,12.24035 C18.3445263,13.3114 15.4262105,14.5359 12.6651053,14.5359 C7.84194737,14.5359 4.20321053,12.24035 4.20321053,12.24035 C2.09536842,12.24035 0.387421053,13.9748 0.387421053,16.11535 C0.387421053,18.25435 2.09536842,19.9888 4.20321053,19.9888 L23.2821579,19.9888 C25.3884737,19.9888 27.0979474,18.25435 27.0979474,16.11535 C27.0979474,13.9748 25.3884737,12.24035 23.2821579,12.24035 L20.3791053,12.24035 C22.0656842,12.24035 23.4317368,10.8531 23.4317368,9.14035 C23.4317368,7.6849 22.1923684,6.4666 22.1923684,6.4666 C20.4554211,8.3452 14.7912632,7.75775 14.7912632,7.75775 C16.6686316,7.037 18.7718947,6.16745 18.7718947,4.0145 C18.7718947,1.8631 16.9097895,0 13.6755263,0" id="Fill-1"></path>
                <path d="M22.0137895,21.7031 L22.0137895,22.2115 C22.0137895,23.4949 20.9881053,24.5365 19.7243158,24.5365 C18.4605263,24.5365 17.4348421,23.4949 17.4348421,22.2115 L17.4348421,21.7031 L15.9085263,21.7031 L15.9085263,22.2115 C15.9085263,23.4949 14.8828421,24.5365 13.6190526,24.5365 C12.3552632,24.5365 11.3295789,23.4949 11.3295789,22.2115 L11.3295789,21.7031 L9.80326316,21.7031 L9.80326316,22.2115 C9.80326316,23.4949 8.77757895,24.5365 7.51378947,24.5365 C6.25,24.5365 5.22431579,23.4949 5.22431579,22.2115 L5.22431579,21.7031 L3.698,21.7031 L6.83152632,30.8388 L20.2463158,30.8388 L23.7812632,21.7031 L22.0137895,21.7031" id="Fill-2"></path>
            </g>
        </g>
    </g>
</svg>