<?xml version="1.0" encoding="UTF-8" standalone="no"?>
<svg width="60px" height="60px" viewBox="0 0 60 60" version="1.1" xmlns="http://www.w3.org/2000/svg" xmlns:xlink="http://www.w3.org/1999/xlink" xmlns:sketch="http://www.bohemiancoding.com/sketch/ns">
    <!-- Generator: Sketch 3.3.2 (12043) - http://www.bohemiancoding.com/sketch -->
    <title>yahootravel</title>
    <desc>Created with Sketch.</desc>
    <defs></defs>
    <g id="Social-icons-grid" stroke="none" stroke-width="1" fill="none" fill-rule="evenodd" sketch:type="MSPage">
        <g id="yahootravel" sketch:type="MSLayerGroup">
            <rect id="Rectangle-2-Copy-7" fill="#510098" sketch:type="MSShapeGroup" x="0" y="0" width="60" height="60" rx="80"></rect>
            <path d="M37.4214,25.6088798 C40.73685,22.2128271 44.23985,18.2215113 43.9469,16.3594061 L43.07425,15.5000903 C41.27625,15.4802482 37.20285,18.7343534 33.7417,21.9136692 C32.7993,21.8007219 31.87705,21.6770903 30.9207,21.5778798 C25.6445,21.0436692 22.8483,19.9493008 17.8418,19.848564 L14.5,23.1423534 L27.89355,27.9731429 C26.37145,29.761985 24.8664,31.6729324 23.4652,33.4846692 C23.13505,33.4083534 22.82505,33.3213534 22.4949,33.246564 C21.00225,32.9077219 19.3918,32.7657745 17.93325,32.5322482 L15.9012,34.5363008 L20.53105,37.3279324 C20.51865,37.3370903 20.51555,37.3462482 20.50625,37.3554061 L21.754,38.5856166 C21.76175,38.577985 21.77415,38.5703534 21.78655,38.5611955 L24.61685,43.1279324 L26.65355,41.1208271 C26.41175,39.6830377 26.26605,38.0956692 25.92815,36.6258271 C25.8522,36.2961429 25.76385,35.9801955 25.68325,35.6566166 C27.5355,34.2753008 29.45905,32.8085113 31.271,31.3203534 L36.1504,44.464985 L39.4984,41.1757745 C39.39145,36.2457745 38.2987,33.5014587 37.74845,28.3058798 C37.65545,27.3900903 37.53145,26.5078798 37.4214,25.6088798" id="Imported-Layers-Copy-14" fill="#FFFFFF" sketch:type="MSShapeGroup"></path>
        </g>
    </g>
</svg>