<?xml version="1.0" encoding="UTF-8" standalone="no"?>
<svg width="60px" height="60px" viewBox="0 0 60 60" version="1.1" xmlns="http://www.w3.org/2000/svg" xmlns:xlink="http://www.w3.org/1999/xlink" xmlns:sketch="http://www.bohemiancoding.com/sketch/ns">
    <!-- Generator: Sketch 3.3.1 (12005) - http://www.bohemiancoding.com/sketch -->
    <title>yahoo</title>
    <desc>Created with Sketch.</desc>
    <defs></defs>
    <g id="Social-icons-grid" stroke="none" stroke-width="1" fill="none" fill-rule="evenodd" sketch:type="MSPage">
        <g id="yahoo" sketch:type="MSLayerGroup">
            <rect id="circle" fill="#52009A" sketch:type="MSShapeGroup" x="0" y="0" width="60" height="60" rx="80"></rect>
            <g id="Group" transform="translate(18.000000, 15.000000)" fill="#FFFFFF" sketch:type="MSShapeGroup">
                <path d="M13.3795447,17.3973684 L11.9578389,17.9336246 L11.0599265,16.324856 L19.9642561,1.76932914 L20.6008668,1.54608606 C21.4795776,1.34278323 22.4379659,1.12476451 23.0621968,0.696816724 C21.648098,2.65258131 16.4989447,11.7941567 13.3795447,17.3973684 L13.3795447,17.3973684 Z" id="path3165"></path>
                <path d="M11.4340577,17.1675443 L11.8081888,16.7845042 L20.6169766,1.54280623 L19.2908249,0.696816724 C18.2272877,2.72495232 14.3047566,9.28790993 11.8081888,13.4903589 L10.6109641,15.7885998 L11.4340577,17.1675443 Z" id="path3163"></path>
                <path d="M4.32556508,0.696816724 C6.27837701,4.24003796 9.27613797,9.19684603 11.8081888,13.4903589 L11.8081888,16.7845042 L11.2095765,17.3973684 L2.45490914,1.46289702 L4.32556508,0.696816724 Z" id="path3161"></path>
                <path d="M2.88260858,1.66050695 L4.32556508,0.696816724 C2.77717752,1.03490276 2.12946298,1.056422 0.584253196,0.696816724 L1.18286555,1.38628899 L2.88260858,1.66050695 Z" id="path3159"></path>
                <path d="M11.8081888,16.7845042 L11.1347576,17.7804086 L10.2368329,17.3973684 C8.56510099,14.43918 3.65091918,5.427838 0.584253196,0.696816724 C1.20588297,1.15799741 2.04571197,1.41106419 3.01568263,1.57234729 L11.8081888,16.7845042 Z" id="path3157"></path>
                <path d="M13.6040136,29.7312612 L11.0599265,28.5055327 L11.2844076,17.6271925 L11.8081888,16.7845042 L13.3795447,17.3973684 L13.6040136,29.7312612 Z" id="path3155"></path>
                <path d="M11.8081888,28.8885729 L10.012364,29.7312612 L10.2368329,17.3973684 L11.8081888,16.7845042 L11.8081888,28.8885729 Z" id="path3153"></path>
                <path d="M10.012364,29.7312612 L11.8115384,28.3817346 L13.6040136,29.7312612 C13.6040136,29.7312612 12.6103508,29.5461387 11.8115016,29.5461387 C11.0906982,29.5461387 10.012364,29.7312612 10.012364,29.7312612 L10.012364,29.7312612 Z" id="path3151"></path>
            </g>
        </g>
    </g>
</svg>