<?xml version="1.0" encoding="UTF-8" standalone="no"?>
<svg width="60px" height="60px" viewBox="0 0 60 60" version="1.1" xmlns="http://www.w3.org/2000/svg" xmlns:xlink="http://www.w3.org/1999/xlink" xmlns:sketch="http://www.bohemiancoding.com/sketch/ns">
    <!-- Generator: Sketch 3.3.2 (12043) - http://www.bohemiancoding.com/sketch -->
    <title>yahootech</title>
    <desc>Created with Sketch.</desc>
    <defs></defs>
    <g id="Social-icons-grid" stroke="none" stroke-width="1" fill="none" fill-rule="evenodd" sketch:type="MSPage">
        <g id="yahootech" sketch:type="MSLayerGroup">
            <rect id="Rectangle-2-Copy-7" fill="#510098" sketch:type="MSShapeGroup" x="0" y="0" width="60" height="60" rx="80"></rect>
            <g id="Imported-Layers-Copy-10" transform="translate(14.500000, 14.500000)" fill="#FFFFFF" sketch:type="MSShapeGroup">
                <path d="M9.99285,16.56485 L7.7283,16.56485 C7.3966,17.62815 6.41545,18.40935 5.24365,18.40935 C3.79905,18.40935 2.6257,17.23445 2.6257,15.78985 C2.6257,14.3499 3.79905,13.175 5.24365,13.175 C6.41545,13.175 7.3966,13.9531 7.7283,15.01485 L11.54285,15.01485 L11.54285,30.52415 C12.5426,30.78455 13.578,30.94885 14.64285,31 L14.64285,10.4718 L1.1346,10.4718 C0.5177,12.1303 0.1643,13.91435 0.1643,15.78675 C0.1643,22.29675 4.2501,27.83955 9.99285,30.02815 L9.99285,16.56485" id="Fill-1"></path>
                <path d="M4.1757,15.78985 C4.1757,16.3804 4.6562,16.85935 5.24365,16.85935 C5.8311,16.85935 6.3085,16.3804 6.3085,15.78985 C6.3085,15.20395 5.8311,14.725 5.24365,14.725 C4.6562,14.725 4.1757,15.20395 4.1757,15.78985" id="Fill-2"></path>
                <path d="M20.84285,9.6968 C20.84285,10.28735 21.3218,10.76475 21.9108,10.76475 C22.4998,10.76475 22.9772,10.28735 22.9772,9.6968 C22.9772,9.10935 22.4998,8.6304 21.9108,8.6304 C21.3218,8.6304 20.84285,9.10935 20.84285,9.6968" id="Fill-3"></path>
                <path d="M24.397,10.4718 C24.06375,11.53355 23.0826,12.31475 21.9108,12.31475 C20.46775,12.31475 19.29285,11.13985 19.29285,9.6968 C19.29285,8.2553 20.46775,7.0804 21.9108,7.0804 C23.0826,7.0804 24.06375,7.8585 24.397,8.9218 L29.0284,8.9218 C26.5143,3.94785 21.3714,0.5332 15.41785,0.5332 C9.4643,0.5332 4.32295,3.94785 1.80885,8.9218 L16.19285,8.9218 L16.19285,31 C17.25925,30.94885 18.29465,30.78455 19.29285,30.52415 L19.29285,15.01485 L23.1074,15.01485 C23.44065,13.9531 24.42335,13.175 25.5936,13.175 C27.03665,13.175 28.21155,14.3499 28.21155,15.78985 C28.21155,17.23445 27.03665,18.40935 25.5936,18.40935 C24.42335,18.40935 23.44065,17.62815 23.1074,16.56485 L20.84285,16.56485 L20.84285,30.02815 C26.5856,27.83955 30.67295,22.29675 30.67295,15.78675 C30.67295,13.91435 30.318,12.1303 29.7011,10.4718 L24.397,10.4718" id="Fill-4"></path>
                <path d="M26.66155,15.78985 C26.66155,15.20395 26.1826,14.725 25.5936,14.725 C25.00615,14.725 24.5272,15.20395 24.5272,15.78985 C24.5272,16.3804 25.00615,16.85935 25.5936,16.85935 C26.1826,16.85935 26.66155,16.3804 26.66155,15.78985" id="Fill-5"></path>
            </g>
        </g>
    </g>
</svg>