<?xml version="1.0" encoding="UTF-8" standalone="no"?>
<svg width="60px" height="60px" viewBox="0 0 60 60" version="1.1" xmlns="http://www.w3.org/2000/svg" xmlns:xlink="http://www.w3.org/1999/xlink" xmlns:sketch="http://www.bohemiancoding.com/sketch/ns">
    <!-- Generator: Sketch 3.3.2 (12043) - http://www.bohemiancoding.com/sketch -->
    <title>yahooautos</title>
    <desc>Created with Sketch.</desc>
    <defs></defs>
    <g id="Social-icons-grid" stroke="none" stroke-width="1" fill="none" fill-rule="evenodd" sketch:type="MSPage">
        <g id="yahooautos" sketch:type="MSLayerGroup">
            <rect id="Rectangle-2-Copy-4" fill="#510098" sketch:type="MSShapeGroup" x="0" y="0" width="60" height="60" rx="80"></rect>
            <path d="M45.8078,24.1117647 C44.9026,23.9617647 43.42855,23.7294118 42.26605,23.6279412 C41.7468,21.5838235 40.9811,19.9264706 40.00615,18.0676471 L39.9116,18.0676471 C37.4657,17.4073529 34.0867,17 30.34965,17 C26.5816,17 23.1902,17.4102941 20.74275,18.0794118 L20.74275,18.1882353 C19.7926,20.0132353 19.05635,21.6264706 18.54175,23.6279412 C17.3839,23.7294118 15.9114,23.9617647 15,24.1117647 L15,25.8808824 C15.7719,26.0102941 16.953,26.1941176 18.0039,26.3088235 C17.85665,27.2911765 17.77605,29.4014706 17.74195,30.4132353 L17.7311,30.4132353 L17.7311,41.1867647 L20.30875,41.1867647 C20.983,41.1867647 21.5286,40.6691176 21.5286,40.0294118 L21.5286,37.7 L39.23115,37.7 L39.23115,40.0294118 C39.23115,40.6691176 39.7752,41.1867647 40.4448,41.1867647 L43.07825,41.1867647 L43.07825,30.4132353 L43.06585,30.4132353 C43.0333,29.4014706 42.95115,27.2911765 42.80235,26.3088235 C43.85325,26.1941176 45.03745,26.0102941 45.8078,25.8808824 L45.8078,24.1117647 L45.8078,24.1117647 Z M22.02925,32.8117647 C20.8435,32.8117647 19.8825,31.9 19.8825,30.775 C19.8825,29.6455882 20.8435,28.7323529 22.02925,28.7323529 C23.21345,28.7323529 24.176,29.6455882 24.176,30.775 C24.176,31.9 23.21345,32.8117647 22.02925,32.8117647 L22.02925,32.8117647 Z M31.97715,36.3676471 L28.8322,36.3676471 C27.45425,36.3676471 26.3367,35.4102941 26.26385,34.2073529 L34.54395,34.2073529 C34.4742,35.4102941 33.35665,36.3676471 31.97715,36.3676471 L31.97715,36.3676471 Z M38.78165,32.8117647 C37.59745,32.8117647 36.63645,31.9 36.63645,30.775 C36.63645,29.6455882 37.59745,28.7323529 38.78165,28.7323529 C39.9674,28.7323529 40.93305,29.6455882 40.93305,30.775 C40.93305,31.9 39.9674,32.8117647 38.78165,32.8117647 L38.78165,32.8117647 Z M19.88715,26.3897059 L19.9414,25.9691176 L20.29945,24.5705882 C20.7009,22.9647059 21.2434,21.6985294 21.93005,20.1794118 C24.31705,19.7 27.2853,19.4323529 30.33415,19.4323529 C33.44965,19.4323529 36.48145,19.7117647 38.89015,20.2102941 C39.56905,21.7220588 40.11465,22.9764706 40.513,24.5676471 L40.86175,25.9661765 L40.92375,26.3897059 L19.88715,26.3897059 L19.88715,26.3897059 Z" id="Imported-Layers-Copy-2" fill="#FFFFFF" sketch:type="MSShapeGroup"></path>
        </g>
    </g>
</svg>