<?xml version="1.0" encoding="UTF-8" standalone="no"?>
<svg width="60px" height="60px" viewBox="0 0 60 60" version="1.1" xmlns="http://www.w3.org/2000/svg" xmlns:xlink="http://www.w3.org/1999/xlink" xmlns:sketch="http://www.bohemiancoding.com/sketch/ns">
    <!-- Generator: Sketch 3.3.1 (12005) - http://www.bohemiancoding.com/sketch -->
    <title>youtube</title>
    <desc>Created with Sketch.</desc>
    <defs></defs>
    <g id="Social-icons-grid" stroke="none" stroke-width="1" fill="none" fill-rule="evenodd" sketch:type="MSPage">
        <g id="youtube" sketch:type="MSLayerGroup">
            <rect id="circle" fill="#EA292F" sketch:type="MSShapeGroup" x="0" y="0" width="60" height="60" rx="80"></rect>
            <path d="M16.1943205,30 C16.1943205,28.999995 16.1994565,28.2187528 16.2097287,27.65625 C16.2200008,27.0937472 16.2636567,26.3828168 16.3406977,25.5234375 C16.4177387,24.6640582 16.5332985,23.8958367 16.6873805,23.21875 C16.8517347,22.4583295 17.206118,21.8177109 17.7505411,21.296875 C18.2949642,20.7760391 18.931827,20.4739588 19.6611485,20.390625 C21.9415623,20.130207 25.3878117,20 30,20 C34.6121883,20 38.0584377,20.130207 40.3388515,20.390625 C41.068173,20.4739588 41.7076038,20.7760391 42.257163,21.296875 C42.8067221,21.8177109 43.1636735,22.4583295 43.3280276,23.21875 C43.4718375,23.8958367 43.5822613,24.6640582 43.6593023,25.5234375 C43.7363433,26.3828168 43.7799992,27.0937472 43.7902713,27.65625 C43.8005435,28.2187528 43.8056795,28.999995 43.8056795,30 C43.8056795,31.000005 43.8005435,31.7812472 43.7902713,32.34375 C43.7799992,32.9062528 43.7363433,33.6171832 43.6593023,34.4765625 C43.5822613,35.3359418 43.4667015,36.1041633 43.3126195,36.78125 C43.1482653,37.5416705 42.793882,38.1822891 42.2494589,38.703125 C41.7050358,39.2239609 41.068173,39.5260412 40.3388515,39.609375 C38.0584377,39.869793 34.6121883,40 30,40 C25.3878117,40 21.9415623,39.869793 19.6611485,39.609375 C18.931827,39.5260412 18.2923962,39.2239609 17.742837,38.703125 C17.1932779,38.1822891 16.8363265,37.5416705 16.6719724,36.78125 C16.5281625,36.1041633 16.4177387,35.3359418 16.3406977,34.4765625 C16.2636567,33.6171832 16.2200008,32.9062528 16.2097287,32.34375 C16.1994565,31.7812472 16.1943205,31.000005 16.1943205,30 Z M27.0776299,34.3434344 L35.2026329,30 L27.0776299,25.6565657 L27.0776299,34.3434344 Z" id="youtube-copy" fill="#FFFFFF" sketch:type="MSShapeGroup"></path>
        </g>
    </g>
</svg>